<svg xmlns="http://www.w3.org/2000/svg" xmlns:xlink="http://www.w3.org/1999/xlink" width="1080" zoomAndPan="magnify" viewBox="0 0 810 1439.999935" height="1920" preserveAspectRatio="xMidYMid meet" version="1.0"><defs><clipPath id="96480d10a8"><path d="M 152.351562 214.695312 L 657.648438 214.695312 L 657.648438 1225.289062 L 152.351562 1225.289062 Z M 152.351562 214.695312 " clip-rule="nonzero"/></clipPath><clipPath id="14b6abb901"><path d="M 152.351562 467.34375 C 152.351562 327.808594 265.46875 214.695312 405 214.695312 C 544.535156 214.695312 657.648438 327.808594 657.648438 467.34375 L 657.648438 972.640625 C 657.648438 1112.175781 544.535156 1225.289062 405 1225.289062 C 265.46875 1225.289062 152.351562 1112.175781 152.351562 972.640625 Z M 152.351562 467.34375 " clip-rule="nonzero"/></clipPath><clipPath id="8c32107f10"><path d="M 0.351562 0.695312 L 505.648438 0.695312 L 505.648438 1011.289062 L 0.351562 1011.289062 Z M 0.351562 0.695312 " clip-rule="nonzero"/></clipPath><clipPath id="c6c5876a33"><path d="M 0.351562 253.34375 C 0.351562 113.808594 113.46875 0.695312 253 0.695312 C 392.535156 0.695312 505.648438 113.808594 505.648438 253.34375 L 505.648438 758.640625 C 505.648438 898.175781 392.535156 1011.289062 253 1011.289062 C 113.46875 1011.289062 0.351562 898.175781 0.351562 758.640625 Z M 0.351562 253.34375 " clip-rule="nonzero"/></clipPath><clipPath id="798d389804"><rect x="0" width="506" y="0" height="1012"/></clipPath><clipPath id="274c4e4684"><path d="M 217.925781 331.75 L 592.621094 331.75 L 592.621094 659.128906 L 217.925781 659.128906 Z M 217.925781 331.75 " clip-rule="nonzero"/></clipPath><clipPath id="9411aa8d66"><path d="M 405 331.75 L 592.074219 659.128906 L 217.925781 659.128906 Z M 405 331.75 " clip-rule="nonzero"/></clipPath><clipPath id="35a2474700"><path d="M 0.925781 0.75 L 375.078125 0.75 L 375.078125 328.128906 L 0.925781 328.128906 Z M 0.925781 0.75 " clip-rule="nonzero"/></clipPath><clipPath id="4d93d4d61a"><path d="M 188 0.75 L 375.074219 328.128906 L 0.925781 328.128906 Z M 188 0.75 " clip-rule="nonzero"/></clipPath><clipPath id="c49d98d5b5"><rect x="0" width="376" y="0" height="329"/></clipPath><clipPath id="1bcd9a6813"><path d="M 217.371094 783.324219 L 592.070312 783.324219 L 592.070312 1110.703125 L 217.371094 1110.703125 Z M 217.371094 783.324219 " clip-rule="nonzero"/></clipPath><clipPath id="77648d1648"><path d="M 404.996094 1110.703125 L 217.921875 783.324219 L 592.070312 783.324219 Z M 404.996094 1110.703125 " clip-rule="nonzero"/></clipPath><clipPath id="a9206d489f"><path d="M 0.921875 0.324219 L 375.070312 0.324219 L 375.070312 327.703125 L 0.921875 327.703125 Z M 0.921875 0.324219 " clip-rule="nonzero"/></clipPath><clipPath id="a183f13571"><path d="M 187.996094 327.703125 L 0.921875 0.324219 L 375.070312 0.324219 Z M 187.996094 327.703125 " clip-rule="nonzero"/></clipPath><clipPath id="efc08709dd"><rect x="0" width="376" y="0" height="328"/></clipPath></defs><g clip-path="url(#96480d10a8)"><g clip-path="url(#14b6abb901)"><g transform="matrix(1, 0, 0, 1, 152, 214)"><g clip-path="url(#798d389804)"><g clip-path="url(#8c32107f10)"><g clip-path="url(#c6c5876a33)"><path fill="#000000" d="M 0.351562 1011.289062 L 0.351562 0.695312 L 505.648438 0.695312 L 505.648438 1011.289062 Z M 0.351562 1011.289062 " fill-opacity="1" fill-rule="nonzero"/></g></g></g></g></g></g><g clip-path="url(#274c4e4684)"><g clip-path="url(#9411aa8d66)"><g transform="matrix(1, 0, 0, 1, 217, 331)"><g clip-path="url(#c49d98d5b5)"><g clip-path="url(#35a2474700)"><g clip-path="url(#4d93d4d61a)"><path fill="#ffffff" d="M 0.925781 0.75 L 375.621094 0.75 L 375.621094 328.128906 L 0.925781 328.128906 Z M 0.925781 0.75 " fill-opacity="1" fill-rule="nonzero"/></g></g></g></g></g></g><g clip-path="url(#1bcd9a6813)"><g clip-path="url(#77648d1648)"><g transform="matrix(1, 0, 0, 1, 217, 783)"><g clip-path="url(#efc08709dd)"><g clip-path="url(#a9206d489f)"><g clip-path="url(#a183f13571)"><path fill="#ffffff" d="M 375.070312 327.703125 L 0.371094 327.703125 L 0.371094 0.324219 L 375.070312 0.324219 Z M 375.070312 327.703125 " fill-opacity="1" fill-rule="nonzero"/></g></g></g></g></g></g></svg>