<svg id="svg" version="1.1" xmlns="http://www.w3.org/2000/svg" xmlns:xlink="http://www.w3.org/1999/xlink" width="400" height="711.1111111111111" viewBox="0, 0, 400,711.1111111111111"><g id="svgg"><path id="path2" d="" stroke="none" fill="#7c7c7c" fill-rule="evenodd"></path><path id="path3" d="" stroke="none" fill="#9f9f9f" fill-rule="evenodd"></path><path id="path4" d="M153.704 325.556 C 179.167 325.597,220.833 325.597,246.296 325.556 C 271.759 325.514,250.926 325.480,200.000 325.480 C 149.074 325.480,128.241 325.514,153.704 325.556 M153.852 386.889 C 179.233 386.931,220.767 386.931,246.148 386.889 C 271.530 386.847,250.763 386.813,200.000 386.813 C 149.237 386.813,128.470 386.847,153.852 386.889 " stroke="none" fill="#747474" fill-rule="evenodd"></path><path id="path0" d="M189.424 106.526 C 127.443 112.150,79.952 160.714,75.558 222.963 C 75.074 229.830,75.299 488.515,75.793 492.296 C 76.707 499.298,77.154 502.093,77.971 505.926 C 93.560 579.052,168.636 622.092,239.560 598.562 C 278.315 585.704,308.678 553.974,319.840 514.667 C 321.954 507.223,322.873 502.513,324.207 492.296 C 324.701 488.513,324.926 229.825,324.442 222.963 C 319.485 152.767,258.588 100.250,189.424 106.526 M246.271 244.677 L 292.393 325.481 246.197 325.556 C 220.788 325.598,179.212 325.598,153.803 325.556 L 107.607 325.481 153.729 244.677 C 179.097 200.234,199.919 163.872,200.000 163.872 C 200.081 163.872,220.903 200.234,246.271 244.677 M292.148 387.000 C 292.148 387.387,200.221 548.423,200.000 548.423 C 199.779 548.423,107.852 387.387,107.852 387.000 C 107.852 386.754,131.988 386.667,200.000 386.667 C 268.012 386.667,292.148 386.754,292.148 387.000 " stroke="none" fill="#040404" fill-rule="evenodd"></path><path id="path1" d="M0.000 355.556 L 0.000 711.111 200.000 711.111 L 400.000 711.111 400.000 355.556 L 400.000 0.000 200.000 0.000 L 0.000 0.000 0.000 355.556 M215.407 106.941 C 273.544 114.858,316.025 157.730,324.062 216.593 C 324.690 221.190,325.058 481.433,324.448 489.481 C 319.495 554.854,265.450 605.037,200.000 605.037 C 134.729 605.037,80.951 555.311,75.572 489.984 C 75.135 484.686,75.135 226.425,75.572 221.127 C 80.665 159.265,128.136 111.950,190.815 106.264 C 194.883 105.895,210.980 106.338,215.407 106.941 M153.852 244.670 L 107.852 325.185 153.926 325.260 C 179.267 325.301,220.733 325.301,246.074 325.260 L 292.148 325.185 246.148 244.670 C 220.848 200.387,200.081 164.155,200.000 164.155 C 199.919 164.155,179.152 200.387,153.852 244.670 M108.940 388.994 C 113.616 397.367,199.884 548.141,200.000 548.141 C 200.116 548.141,286.384 397.367,291.060 388.994 L 292.193 386.963 200.000 386.963 L 107.807 386.963 108.940 388.994 " stroke="none" fill="#fbfbfb" fill-rule="evenodd"></path><path id="path2" d="" stroke="none" fill="#7c7c7c" fill-rule="evenodd"></path><path id="path3" d="" stroke="none" fill="#9f9f9f" fill-rule="evenodd"></path><path id="path4" d="M153.704 325.556 C 179.167 325.597,220.833 325.597,246.296 325.556 C 271.759 325.514,250.926 325.480,200.000 325.480 C 149.074 325.480,128.241 325.514,153.704 325.556 M153.852 386.889 C 179.233 386.931,220.767 386.931,246.148 386.889 C 271.530 386.847,250.763 386.813,200.000 386.813 C 149.237 386.813,128.470 386.847,153.852 386.889 " stroke="none" fill="#747474" fill-rule="evenodd"></path><path id="path0" d="M189.424 106.526 C 127.443 112.150,79.952 160.714,75.558 222.963 C 75.074 229.830,75.299 488.515,75.793 492.296 C 76.707 499.298,77.154 502.093,77.971 505.926 C 93.560 579.052,168.636 622.092,239.560 598.562 C 278.315 585.704,308.678 553.974,319.840 514.667 C 321.954 507.223,322.873 502.513,324.207 492.296 C 324.701 488.513,324.926 229.825,324.442 222.963 C 319.485 152.767,258.588 100.250,189.424 106.526 M246.271 244.677 L 292.393 325.481 246.197 325.556 C 220.788 325.598,179.212 325.598,153.803 325.556 L 107.607 325.481 153.729 244.677 C 179.097 200.234,199.919 163.872,200.000 163.872 C 200.081 163.872,220.903 200.234,246.271 244.677 M292.148 387.000 C 292.148 387.387,200.221 548.423,200.000 548.423 C 199.779 548.423,107.852 387.387,107.852 387.000 C 107.852 386.754,131.988 386.667,200.000 386.667 C 268.012 386.667,292.148 386.754,292.148 387.000 " stroke="none" fill="#040404" fill-rule="evenodd"></path><path id="path1" d="M0.000 355.556 L 0.000 711.111 200.000 711.111 L 400.000 711.111 400.000 355.556 L 400.000 0.000 200.000 0.000 L 0.000 0.000 0.000 355.556 M215.407 106.941 C 273.544 114.858,316.025 157.730,324.062 216.593 C 324.690 221.190,325.058 481.433,324.448 489.481 C 319.495 554.854,265.450 605.037,200.000 605.037 C 134.729 605.037,80.951 555.311,75.572 489.984 C 75.135 484.686,75.135 226.425,75.572 221.127 C 80.665 159.265,128.136 111.950,190.815 106.264 C 194.883 105.895,210.980 106.338,215.407 106.941 M153.852 244.670 L 107.852 325.185 153.926 325.260 C 179.267 325.301,220.733 325.301,246.074 325.260 L 292.148 325.185 246.148 244.670 C 220.848 200.387,200.081 164.155,200.000 164.155 C 199.919 164.155,179.152 200.387,153.852 244.670 M108.940 388.994 C 113.616 397.367,199.884 548.141,200.000 548.141 C 200.116 548.141,286.384 397.367,291.060 388.994 L 292.193 386.963 200.000 386.963 L 107.807 386.963 108.940 388.994 " stroke="none" fill="#fbfbfb" fill-rule="evenodd"></path><path id="path2" d="" stroke="none" fill="#7c7c7c" fill-rule="evenodd"></path><path id="path3" d="" stroke="none" fill="#9f9f9f" fill-rule="evenodd"></path><path id="path4" d="M153.704 325.556 C 179.167 325.597,220.833 325.597,246.296 325.556 C 271.759 325.514,250.926 325.480,200.000 325.480 C 149.074 325.480,128.241 325.514,153.704 325.556 M153.852 386.889 C 179.233 386.931,220.767 386.931,246.148 386.889 C 271.530 386.847,250.763 386.813,200.000 386.813 C 149.237 386.813,128.470 386.847,153.852 386.889 " stroke="none" fill="#747474" fill-rule="evenodd"></path></g></svg>