<svg xmlns="http://www.w3.org/2000/svg" xmlns:xlink="http://www.w3.org/1999/xlink" width="1080" zoomAndPan="magnify" viewBox="0 0 810 1439.999935" height="1920" preserveAspectRatio="xMidYMid meet" version="1.0"><defs><clipPath id="6cee907319"><path d="M 282.605469 141.945312 L 527.105469 141.945312 L 527.105469 1297.695312 L 282.605469 1297.695312 Z M 282.605469 141.945312 " clip-rule="nonzero"/></clipPath><clipPath id="d34fc7239f"><path d="M 331.246094 189.238281 L 478.753906 189.238281 L 478.753906 336.742188 L 331.246094 336.742188 Z M 331.246094 189.238281 " clip-rule="nonzero"/></clipPath><clipPath id="7da7936b61"><path d="M 405 189.238281 C 364.265625 189.238281 331.246094 222.257812 331.246094 262.988281 C 331.246094 303.722656 364.265625 336.742188 405 336.742188 C 445.734375 336.742188 478.753906 303.722656 478.753906 262.988281 C 478.753906 222.257812 445.734375 189.238281 405 189.238281 Z M 405 189.238281 " clip-rule="nonzero"/></clipPath><clipPath id="118be1551b"><path d="M 0.246094 0.238281 L 147.753906 0.238281 L 147.753906 147.742188 L 0.246094 147.742188 Z M 0.246094 0.238281 " clip-rule="nonzero"/></clipPath><clipPath id="308105d592"><path d="M 74 0.238281 C 33.265625 0.238281 0.246094 33.257812 0.246094 73.988281 C 0.246094 114.722656 33.265625 147.742188 74 147.742188 C 114.734375 147.742188 147.753906 114.722656 147.753906 73.988281 C 147.753906 33.257812 114.734375 0.238281 74 0.238281 Z M 74 0.238281 " clip-rule="nonzero"/></clipPath><clipPath id="3b3cd8498d"><rect x="0" width="148" y="0" height="148"/></clipPath><clipPath id="1f7b8d0563"><path d="M 331.246094 1098.585938 L 478.753906 1098.585938 L 478.753906 1246.089844 L 331.246094 1246.089844 Z M 331.246094 1098.585938 " clip-rule="nonzero"/></clipPath><clipPath id="7d745b5254"><path d="M 405 1098.585938 C 364.265625 1098.585938 331.246094 1131.605469 331.246094 1172.335938 C 331.246094 1213.070312 364.265625 1246.089844 405 1246.089844 C 445.734375 1246.089844 478.753906 1213.070312 478.753906 1172.335938 C 478.753906 1131.605469 445.734375 1098.585938 405 1098.585938 Z M 405 1098.585938 " clip-rule="nonzero"/></clipPath><clipPath id="48bb0e7f40"><path d="M 0.246094 0.585938 L 147.753906 0.585938 L 147.753906 148.089844 L 0.246094 148.089844 Z M 0.246094 0.585938 " clip-rule="nonzero"/></clipPath><clipPath id="419bd3a11a"><path d="M 74 0.585938 C 33.265625 0.585938 0.246094 33.605469 0.246094 74.335938 C 0.246094 115.070312 33.265625 148.089844 74 148.089844 C 114.734375 148.089844 147.753906 115.070312 147.753906 74.335938 C 147.753906 33.605469 114.734375 0.585938 74 0.585938 Z M 74 0.585938 " clip-rule="nonzero"/></clipPath><clipPath id="68435da3b5"><rect x="0" width="148" y="0" height="149"/></clipPath></defs><g clip-path="url(#6cee907319)"><path fill="#000000" d="M 527.09375 141.945312 L 527.09375 1297.695312 L 282.617188 1297.695312 L 282.617188 141.945312 Z M 527.09375 141.945312 " fill-opacity="1" fill-rule="nonzero"/></g><g clip-path="url(#d34fc7239f)"><g clip-path="url(#7da7936b61)"><g transform="matrix(1, 0, 0, 1, 331, 189)"><g clip-path="url(#3b3cd8498d)"><g clip-path="url(#118be1551b)"><g clip-path="url(#308105d592)"><path fill="#ffffff" d="M 0.246094 0.238281 L 147.753906 0.238281 L 147.753906 147.742188 L 0.246094 147.742188 Z M 0.246094 0.238281 " fill-opacity="1" fill-rule="nonzero"/></g></g></g></g></g></g><g clip-path="url(#1f7b8d0563)"><g clip-path="url(#7d745b5254)"><g transform="matrix(1, 0, 0, 1, 331, 1098)"><g clip-path="url(#68435da3b5)"><g clip-path="url(#48bb0e7f40)"><g clip-path="url(#419bd3a11a)"><path fill="#ffffff" d="M 0.246094 0.585938 L 147.753906 0.585938 L 147.753906 148.089844 L 0.246094 148.089844 Z M 0.246094 0.585938 " fill-opacity="1" fill-rule="nonzero"/></g></g></g></g></g></g></svg>