<svg id="svg-bottom" version="1.1" xmlns="http://www.w3.org/2000/svg" xmlns:xlink="http://www.w3.org/1999/xlink" width="400" height="200" viewBox="0, 0, 400, 200">
  <defs>
    <clipPath id="clip-bottom">
      <rect x="0" y="99" width="400" height="101"/>
    </clipPath>
  </defs>
  <g id="svgg" clip-path="url(#clip-bottom)">
    <path id="path0" d="M98.823 0.817 C 35.925 2.314,-9.838 62.142,5.098 123.349 C 15.479 165.894,51.580 195.910,95.951 198.888 C 98.647 199.069,302.469 199.071,305.132 198.890 C 341.701 196.405,372.685 175.879,388.599 143.597 C 415.028 89.985,387.989 25.105,331.242 5.971 C 322.875 3.150,315.671 1.744,305.367 0.923 C 304.173 0.828,102.711 0.724,98.823 0.817 M275.282 28.532 C 308.246 30.270,335.492 53.596,341.988 85.640 C 350.719 128.709,319.127 169.155,275.094 171.281 C 271.082 171.475,125.816 171.360,123.635 171.161 C 119.864 170.817,116.878 170.383,114.068 169.769 C 70.573 160.262,46.232 114.304,62.852 73.070 C 73.369 46.978,98.663 29.320,126.695 28.500 C 129.456 28.420,273.734 28.451,275.282 28.532 " stroke="none" fill="#000000" fill-rule="evenodd"/>
  </g>
   <g id="pins-bottom" style="display:none">
    <circle id="pinL" cx="23%" cy="50%" r="3" fill="red" stroke="black"/>
    <circle id="pinR" cx="77%" cy="50%" r="3" fill="red" stroke="black"/>
  </g>
</svg>
