<svg id="svg-last-bottom" xmlns="http://www.w3.org/2000/svg" xmlns:xlink="http://www.w3.org/1999/xlink" width="400" height="87.37704918032786" viewBox="0, 0, 400, 87.37704918032786">
  <defs>
    <clipPath id="clip-last-bottom">
      <rect x="0" y="43.69" width="400" height="43.69"/>
    </clipPath>
  </defs>
  <g id="svgg-bottom" clip-path="url(#clip-last-bottom)">
    <path id="path0-bottom" d="M3.770 1.742 C 3.770 1.753,3.770 20.537,3.770 43.484 L 3.769 85.205 201.086 85.205 L 398.402 85.205 398.402 43.484 L 398.402 1.762 201.086 1.742 C 92.562 1.731,3.770 1.731,3.770 1.742 M49.162 18.487 C 66.270 20.271,76.601 38.446,69.403 54.098 C 68.247 56.614,65.785 60.086,64.086 61.598 C 63.934 61.734,63.496 62.124,63.114 62.466 C 56.529 68.354,46.799 70.261,38.338 67.323 C 23.938 62.321,17.219 45.857,24.031 32.265 C 28.736 22.878,38.730 17.398,49.162 18.487 M360.464 18.558 C 380.683 21.584,389.324 45.344,375.711 60.479 C 375.239 61.005,374.729 61.543,374.578 61.675 C 374.427 61.807,374.008 62.179,373.648 62.502 C 365.430 69.853,352.602 70.738,343.330 64.593 C 329.717 55.573,328.010 36.505,339.806 25.246 C 343.904 21.335,349.038 19.032,355.041 18.411 C 355.794 18.333,359.662 18.438,360.464 18.558 " stroke="none" fill="#000000" fill-rule="evenodd"></path>
  </g>
  <g id="pins-last-bottom" style="display:inline; pointer-events:none" clip-path="url(#clip-last-bottom)">
    <circle id="pinL" cx="11%" cy="50%" r="3" fill="red" stroke="black"/>
    <circle id="pinR" cx="89%" cy="50%" r="3" fill="red" stroke="black"/>
  </g>
</svg>