<svg id="svg-split-bottom" xmlns="http://www.w3.org/2000/svg" xmlns:xlink="http://www.w3.org/1999/xlink" width="400" height="200" viewBox="0, 0, 400, 200">
  <defs>
    <clipPath id="clip-split-bottom">
      <rect x="0" y="100" width="400" height="100"/>
    </clipPath>
  </defs>
  <g id="svgg-bottom" clip-path="url(#clip-split-bottom)">
    <path id="path0-bottom" d="M86.400 26.225 C 33.125 31.485,-5.327 67.888,0.376 107.666 C 5.407 142.758,41.656 169.951,88.800 173.998 C 95.228 174.550,304.963 174.532,311.400 173.979 C 380.683 168.028,420.567 113.034,389.416 66.408 C 374.793 44.521,345.971 29.351,313.036 26.207 C 304.139 25.358,95.014 25.375,86.400 26.225 M280.800 48.625 C 304.461 51.361,325.766 63.731,334.492 79.800 C 351.756 111.592,325.734 146.113,280.518 151.402 C 272.860 152.298,127.140 152.298,119.482 151.402 C 67.435 145.314,42.662 100.870,73.661 69.197 C 84.162 58.467,101.154 50.726,118.800 48.632 C 126.162 47.758,273.249 47.752,280.800 48.625 " stroke="none" fill="#000000" fill-rule="evenodd"></path>
  </g>
  <g id="pins-split-bottom" style="display:inline; pointer-events:none" clip-path="url(#clip-split-bottom)">
    <circle id="pinL" cx="22%" cy="50%" r="3" fill="red" stroke="black"/>
    <circle id="pinR" cx="78%" cy="50%" r="3" fill="red" stroke="black"/>
  </g>
</svg>