<svg id="svg-final-design-bottom" xmlns="http://www.w3.org/2000/svg" xmlns:xlink="http://www.w3.org/1999/xlink" width="400" height="200" viewBox="0, 0, 400, 200">
  <defs>
    <clipPath id="clip-final-design-bottom">
      <rect x="0" y="100" width="400" height="100"/>
    </clipPath>
  </defs>
  <g id="svgg-final-design-bottom" clip-path="url(#clip-final-design-bottom)">
    <path id="path0-final-design-bottom" d="M183.000 1.875 C 102.939 6.015,36.981 31.690,13.128 68.000 C -17.097 114.012,19.342 162.654,101.832 186.408 C 140.189 197.454,189.420 201.695,234.000 197.796 C 329.187 189.469,397.416 148.798,397.389 100.400 C 397.362 51.198,330.363 11.761,231.600 2.813 C 220.240 1.784,194.409 1.285,183.000 1.875 M35.121 91.467 C 44.490 97.233,39.134 111.461,28.211 109.823 C 21.782 108.858,17.985 100.768,21.309 95.114 C 24.189 90.214,30.414 88.570,35.121 91.467 M375.121 91.467 C 384.490 97.233,379.134 111.461,368.211 109.823 C 361.782 108.858,357.985 100.768,361.309 95.114 C 364.189 90.214,370.414 88.570,375.121 91.467 " stroke="none" fill="#000000" fill-rule="evenodd"></path>
  </g>
  <g id="pins-final-design-bottom" style="display:inline; pointer-events:none" clip-path="url(#clip-final-design-bottom)">
    <circle id="pinL" cx="7.5%" cy="50%" r="3" fill="red" stroke="black"/>
    <circle id="pinR" cx="92.5%" cy="50%" r="3" fill="red" stroke="black"/>
  </g>
</svg>