<svg id="svg-final-bottom" xmlns="http://www.w3.org/2000/svg" xmlns:xlink="http://www.w3.org/1999/xlink" width="400" height="200" viewBox="0, 0, 400, 200">
  <defs>
    <clipPath id="clip-final-bottom">
      <rect x="0" y="100" width="400" height="100"/>
    </clipPath>
  </defs>
  <g id="svgg-final-bottom" clip-path="url(#clip-final-bottom)">
    <path id="path0-final-bottom" d="M32.200 0.593 C 17.540 3.323,5.380 14.593,1.122 29.400 L 0.202 32.600 0.078 98.200 C -0.013 146.572,0.077 164.582,0.419 166.779 C 2.735 181.631,13.988 194.206,29.000 198.718 L 32.600 199.800 198.200 199.904 C 382.537 200.019,367.176 200.250,374.838 197.243 C 387.753 192.173,397.491 180.191,399.578 166.800 C 399.924 164.577,400.013 146.819,399.922 98.200 L 399.798 32.600 398.884 29.400 C 394.608 14.442,381.669 2.752,366.800 0.415 C 362.557 -0.252,35.805 -0.078,32.200 0.593 M35.121 91.467 C 44.490 97.233,39.134 111.461,28.211 109.823 C 21.782 108.858,17.985 100.768,21.309 95.114 C 24.189 90.214,30.414 88.570,35.121 91.467 M375.121 91.467 C 384.490 97.233,379.134 111.461,368.211 109.823 C 361.782 108.858,357.985 100.768,361.309 95.114 C 364.189 90.214,370.414 88.570,375.121 91.467 " stroke="none" fill="#000000" fill-rule="evenodd"></path>
  </g>
  <g id="pins-final-bottom" style="display:inline; pointer-events:none" clip-path="url(#clip-final-bottom)">
    <circle id="pinL" cx="7.5%" cy="50%" r="3" fill="red" stroke="black"/>
    <circle id="pinR" cx="92.5%" cy="50%" r="3" fill="red" stroke="black"/>
  </g>
</svg>