<svg id="svg-bottom" xmlns="http://www.w3.org/2000/svg" xmlns:xlink="http://www.w3.org/1999/xlink" width="400" height="200" viewBox="0, 0, 400, 200">
  <defs>
    <clipPath id="dol-clip-bottom">
      <rect x="0" y="101.14" width="400" height="101.14"/>
    </clipPath>
  </defs>
  <g id="svgg-bottom" clip-path="url(#dol-clip-bottom)">
    <path id="path0" d="M96.968 1.011 C 42.934 3.643,1.233 47.051,1.233 100.663 C 1.233 153.972,42.951 197.669,96.343 200.284 C 99.043 200.417,302.433 200.415,305.078 200.282 C 346.451 198.213,381.940 171.319,395.028 132.117 C 397.423 124.946,398.738 118.685,399.737 109.711 C 400.035 107.032,400.068 94.559,399.784 92.089 C 399.691 91.281,399.549 90.024,399.470 89.294 C 394.195 41.055,354.021 3.498,305.069 1.042 C 303.437 0.960,98.639 0.930,96.968 1.011 M112.174 35.290 C 151.888 38.739,179.310 75.988,170.764 114.874 C 163.013 150.139,127.813 172.553,92.515 164.700 C 55.771 156.526,33.439 119.191,43.584 82.899 C 50.991 56.403,74.704 37.055,101.990 35.246 C 102.823 35.190,103.740 35.129,104.027 35.110 C 105.161 35.034,110.611 35.154,112.174 35.290 M293.984 35.287 C 336.270 38.907,364.039 80.737,350.921 121.052 C 339.752 155.378,302.680 174.218,268.309 163.035 C 232.613 151.421,213.958 112.347,227.337 77.215 C 236.347 53.555,258.766 36.892,283.799 35.249 C 284.685 35.191,285.644 35.128,285.931 35.109 C 287.065 35.035,292.420 35.153,293.984 35.287 " stroke="none" fill="#000000" fill-rule="evenodd"></path>
  </g>
 
  <g id="dol-pins-bottom" style="display:none">
  <circle id="pinL" cx="20%" cy="50%" r="3" fill="red" stroke="black"/>
  <circle id="pinR" cx="80%" cy="50%" r="3" fill="red" stroke="black"/>
  <!-- etc. -->
</g>
  
</svg>