<svg xmlns="http://www.w3.org/2000/svg" xmlns:xlink="http://www.w3.org/1999/xlink" width="1080" zoomAndPan="magnify" viewBox="0 0 810 1439.999935" height="1920" preserveAspectRatio="xMidYMid meet" version="1.0"><defs><clipPath id="72fb2110e2"><path d="M 152.351562 214.695312 L 657.648438 214.695312 L 657.648438 1225.289062 L 152.351562 1225.289062 Z M 152.351562 214.695312 " clip-rule="nonzero"/></clipPath><clipPath id="f93d5c8650"><path d="M 152.351562 467.34375 C 152.351562 327.808594 265.46875 214.695312 405 214.695312 C 544.535156 214.695312 657.648438 327.808594 657.648438 467.34375 L 657.648438 972.640625 C 657.648438 1112.175781 544.535156 1225.289062 405 1225.289062 C 265.46875 1225.289062 152.351562 1112.175781 152.351562 972.640625 Z M 152.351562 467.34375 " clip-rule="nonzero"/></clipPath><clipPath id="622bfd5ff8"><path d="M 0.351562 0.695312 L 505.648438 0.695312 L 505.648438 1011.289062 L 0.351562 1011.289062 Z M 0.351562 0.695312 " clip-rule="nonzero"/></clipPath><clipPath id="e32b922890"><path d="M 0.351562 253.34375 C 0.351562 113.808594 113.46875 0.695312 253 0.695312 C 392.535156 0.695312 505.648438 113.808594 505.648438 253.34375 L 505.648438 758.640625 C 505.648438 898.175781 392.535156 1011.289062 253 1011.289062 C 113.46875 1011.289062 0.351562 898.175781 0.351562 758.640625 Z M 0.351562 253.34375 " clip-rule="nonzero"/></clipPath><clipPath id="6927b30633"><rect x="0" width="506" y="0" height="1012"/></clipPath><clipPath id="172e24c63d"><path d="M 238.785156 331.046875 L 571.214844 331.046875 L 571.214844 663.480469 L 238.785156 663.480469 Z M 238.785156 331.046875 " clip-rule="nonzero"/></clipPath><clipPath id="0e291a9f7f"><path d="M 405 331.046875 C 313.203125 331.046875 238.785156 405.464844 238.785156 497.265625 C 238.785156 589.0625 313.203125 663.480469 405 663.480469 C 496.796875 663.480469 571.214844 589.0625 571.214844 497.265625 C 571.214844 405.464844 496.796875 331.046875 405 331.046875 Z M 405 331.046875 " clip-rule="nonzero"/></clipPath><clipPath id="2cc9efa207"><path d="M 0.785156 0.046875 L 333.214844 0.046875 L 333.214844 332.480469 L 0.785156 332.480469 Z M 0.785156 0.046875 " clip-rule="nonzero"/></clipPath><clipPath id="978348da62"><path d="M 167 0.046875 C 75.203125 0.046875 0.785156 74.464844 0.785156 166.265625 C 0.785156 258.0625 75.203125 332.480469 167 332.480469 C 258.796875 332.480469 333.214844 258.0625 333.214844 166.265625 C 333.214844 74.464844 258.796875 0.046875 167 0.046875 Z M 167 0.046875 " clip-rule="nonzero"/></clipPath><clipPath id="78ad3285eb"><rect x="0" width="334" y="0" height="333"/></clipPath><clipPath id="6341625b56"><path d="M 238.785156 791.722656 L 571.214844 791.722656 L 571.214844 1124.152344 L 238.785156 1124.152344 Z M 238.785156 791.722656 " clip-rule="nonzero"/></clipPath><clipPath id="4361cbb770"><path d="M 405 791.722656 C 313.203125 791.722656 238.785156 866.140625 238.785156 957.9375 C 238.785156 1049.734375 313.203125 1124.152344 405 1124.152344 C 496.796875 1124.152344 571.214844 1049.734375 571.214844 957.9375 C 571.214844 866.140625 496.796875 791.722656 405 791.722656 Z M 405 791.722656 " clip-rule="nonzero"/></clipPath><clipPath id="51a790759f"><path d="M 0.785156 0.722656 L 333.214844 0.722656 L 333.214844 333.152344 L 0.785156 333.152344 Z M 0.785156 0.722656 " clip-rule="nonzero"/></clipPath><clipPath id="54b0928be9"><path d="M 167 0.722656 C 75.203125 0.722656 0.785156 75.140625 0.785156 166.9375 C 0.785156 258.734375 75.203125 333.152344 167 333.152344 C 258.796875 333.152344 333.214844 258.734375 333.214844 166.9375 C 333.214844 75.140625 258.796875 0.722656 167 0.722656 Z M 167 0.722656 " clip-rule="nonzero"/></clipPath><clipPath id="38c3a6b6a2"><rect x="0" width="334" y="0" height="334"/></clipPath></defs><g clip-path="url(#72fb2110e2)"><g clip-path="url(#f93d5c8650)"><g transform="matrix(1, 0, 0, 1, 152, 214)"><g clip-path="url(#6927b30633)"><g clip-path="url(#622bfd5ff8)"><g clip-path="url(#e32b922890)"><path fill="#000000" d="M 0.351562 1011.289062 L 0.351562 0.695312 L 505.648438 0.695312 L 505.648438 1011.289062 Z M 0.351562 1011.289062 " fill-opacity="1" fill-rule="nonzero"/></g></g></g></g></g></g><g clip-path="url(#172e24c63d)"><g clip-path="url(#0e291a9f7f)"><g transform="matrix(1, 0, 0, 1, 238, 331)"><g clip-path="url(#78ad3285eb)"><g clip-path="url(#2cc9efa207)"><g clip-path="url(#978348da62)"><path fill="#ffffff" d="M 0.785156 0.046875 L 333.214844 0.046875 L 333.214844 332.480469 L 0.785156 332.480469 Z M 0.785156 0.046875 " fill-opacity="1" fill-rule="nonzero"/></g></g></g></g></g></g><g clip-path="url(#6341625b56)"><g clip-path="url(#4361cbb770)"><g transform="matrix(1, 0, 0, 1, 238, 791)"><g clip-path="url(#38c3a6b6a2)"><g clip-path="url(#51a790759f)"><g clip-path="url(#54b0928be9)"><path fill="#ffffff" d="M 0.785156 0.722656 L 333.214844 0.722656 L 333.214844 333.152344 L 0.785156 333.152344 Z M 0.785156 0.722656 " fill-opacity="1" fill-rule="nonzero"/></g></g></g></g></g></g></svg>