
<svg id="svg" xmlns="http://www.w3.org/2000/svg" xmlns:xlink="http://www.w3.org/1999/xlink" width="400" height="205" viewBox="0, 0, 400,205"><g id="svgg"><path id="path0" d="M100.375 4.005 C 47.045 5.275,4.252 49.151,4.189 102.628 C 4.128 153.859,43.204 196.667,94.134 201.166 C 98.636 201.564,94.377 201.549,201.783 201.549 C 309.067 201.549,304.870 201.563,309.338 201.168 C 354.639 197.159,391.260 162.684,398.211 117.504 C 398.604 114.945,398.992 111.428,399.174 108.775 C 399.416 105.234,399.302 97.244,398.965 94.181 C 398.602 90.876,398.363 88.971,398.119 87.424 C 391.103 43.018,355.081 8.962,310.371 4.464 C 305.365 3.961,313.876 3.998,203.144 3.989 C 147.189 3.984,100.943 3.992,100.375 4.005 M265.462 44.324 C 291.530 47.065,312.012 64.950,317.592 89.844 C 325.434 124.835,300.910 158.043,264.852 161.258 C 262.814 161.440,140.858 161.437,138.667 161.255 C 107.812 158.694,84.471 133.505,84.471 102.769 C 84.471 71.272,108.985 45.697,140.638 44.172 C 143.457 44.036,264.122 44.183,265.462 44.324 " stroke="none" fill="#000000" fill-rule="evenodd"></path></g>
<g id="pins" style="display:inline; pointer-events:none">
  <circle id="pinL" cx="30%" cy="50%" r="3" fill="red" stroke="black"/>
  <circle id="pinR" cx="70%" cy="50%" r="3" fill="red" stroke="black"/>
  <!-- etc. -->
</g>



</svg>