<svg xmlns="http://www.w3.org/2000/svg" xmlns:xlink="http://www.w3.org/1999/xlink" width="1080" zoomAndPan="magnify" viewBox="0 0 810 1439.999935" height="1920" preserveAspectRatio="xMidYMid meet" version="1.0"><defs><clipPath id="5032f27340"><path d="M 152.351562 214.695312 L 657.648438 214.695312 L 657.648438 1225.289062 L 152.351562 1225.289062 Z M 152.351562 214.695312 " clip-rule="nonzero"/></clipPath><clipPath id="03ba8a6250"><path d="M 152.351562 467.34375 C 152.351562 327.808594 265.46875 214.695312 405 214.695312 C 544.535156 214.695312 657.648438 327.808594 657.648438 467.34375 L 657.648438 972.640625 C 657.648438 1112.175781 544.535156 1225.289062 405 1225.289062 C 265.46875 1225.289062 152.351562 1112.175781 152.351562 972.640625 Z M 152.351562 467.34375 " clip-rule="nonzero"/></clipPath><clipPath id="b9d12193fb"><path d="M 0.351562 0.695312 L 505.648438 0.695312 L 505.648438 1011.289062 L 0.351562 1011.289062 Z M 0.351562 0.695312 " clip-rule="nonzero"/></clipPath><clipPath id="8998231678"><path d="M 0.351562 253.34375 C 0.351562 113.808594 113.46875 0.695312 253 0.695312 C 392.535156 0.695312 505.648438 113.808594 505.648438 253.34375 L 505.648438 758.640625 C 505.648438 898.175781 392.535156 1011.289062 253 1011.289062 C 113.46875 1011.289062 0.351562 898.175781 0.351562 758.640625 Z M 0.351562 253.34375 " clip-rule="nonzero"/></clipPath><clipPath id="377b5981d2"><rect x="0" width="506" y="0" height="1012"/></clipPath><clipPath id="b5fa75f794"><path d="M 255 420 L 555 420 L 555 1020 L 255 1020 Z M 255 420 " clip-rule="nonzero"/></clipPath><clipPath id="d5564172ea"><path d="M 255 570 C 255 487.15625 322.15625 420 405 420 C 487.84375 420 555 487.15625 555 570 L 555 870 C 555 952.84375 487.84375 1020 405 1020 C 322.15625 1020 255 952.84375 255 870 Z M 255 570 " clip-rule="nonzero"/></clipPath><clipPath id="fc9bda6822"><path d="M 0 0 L 300 0 L 300 600 L 0 600 Z M 0 0 " clip-rule="nonzero"/></clipPath><clipPath id="5fc079b437"><path d="M 0 150 C 0 67.15625 67.15625 0 150 0 C 232.84375 0 300 67.15625 300 150 L 300 450 C 300 532.84375 232.84375 600 150 600 C 67.15625 600 0 532.84375 0 450 Z M 0 150 " clip-rule="nonzero"/></clipPath><clipPath id="0d8425a51c"><rect x="0" width="300" y="0" height="600"/></clipPath></defs><g clip-path="url(#5032f27340)"><g clip-path="url(#03ba8a6250)"><g transform="matrix(1, 0, 0, 1, 152, 214)"><g clip-path="url(#377b5981d2)"><g clip-path="url(#b9d12193fb)"><g clip-path="url(#8998231678)"><path fill="#000000" d="M 0.351562 1011.289062 L 0.351562 0.695312 L 505.648438 0.695312 L 505.648438 1011.289062 Z M 0.351562 1011.289062 " fill-opacity="1" fill-rule="nonzero"/></g></g></g></g></g></g><g clip-path="url(#b5fa75f794)"><g clip-path="url(#d5564172ea)"><g transform="matrix(1, 0, 0, 1, 255, 420)"><g clip-path="url(#0d8425a51c)"><g clip-path="url(#fc9bda6822)"><g clip-path="url(#5fc079b437)"><rect x="-433.2" width="1166.4" fill="#ffffff" height="2073.599906" y="-736.799986" fill-opacity="1"/></g></g></g></g></g></g></svg>