<svg xmlns="http://www.w3.org/2000/svg" xmlns:xlink="http://www.w3.org/1999/xlink" width="1080" zoomAndPan="magnify" viewBox="0 0 810 1439.999935" height="1920" preserveAspectRatio="xMidYMid meet" version="1.0"><defs><clipPath id="5c10d95b40"><path d="M 152.351562 214.695312 L 657.648438 214.695312 L 657.648438 1225.289062 L 152.351562 1225.289062 Z M 152.351562 214.695312 " clip-rule="nonzero"/></clipPath><clipPath id="d3dd7d25d5"><path d="M 152.351562 467.34375 C 152.351562 327.808594 265.46875 214.695312 405 214.695312 C 544.535156 214.695312 657.648438 327.808594 657.648438 467.34375 L 657.648438 972.640625 C 657.648438 1112.175781 544.535156 1225.289062 405 1225.289062 C 265.46875 1225.289062 152.351562 1112.175781 152.351562 972.640625 Z M 152.351562 467.34375 " clip-rule="nonzero"/></clipPath><clipPath id="6d01814bff"><path d="M 0.351562 0.695312 L 505.648438 0.695312 L 505.648438 1011.289062 L 0.351562 1011.289062 Z M 0.351562 0.695312 " clip-rule="nonzero"/></clipPath><clipPath id="12523fbed7"><path d="M 0.351562 253.34375 C 0.351562 113.808594 113.46875 0.695312 253 0.695312 C 392.535156 0.695312 505.648438 113.808594 505.648438 253.34375 L 505.648438 758.640625 C 505.648438 898.175781 392.535156 1011.289062 253 1011.289062 C 113.46875 1011.289062 0.351562 898.175781 0.351562 758.640625 Z M 0.351562 253.34375 " clip-rule="nonzero"/></clipPath><clipPath id="6317aefcf8"><rect x="0" width="506" y="0" height="1012"/></clipPath><clipPath id="6f3cf911c6"><path d="M 223.507812 443.445312 L 586.480469 443.445312 L 586.480469 997 L 223.507812 997 Z M 223.507812 443.445312 " clip-rule="nonzero"/></clipPath><clipPath id="c366d55ee1"><path d="M 586.480469 757.484375 C 586.480469 763.550781 586.480469 769.65625 586.480469 775.710938 C 580.417969 823.980469 560.238281 854.152344 527.21875 867.890625 C 531.621094 948.371094 469.183594 1006.882812 407.902344 971.222656 C 395.027344 983.082031 380.621094 992.976562 361.289062 996.546875 C 355.75 996.546875 350.226562 996.546875 344.691406 996.546875 C 295.484375 985.898438 262.238281 940.085938 271.1875 864.871094 C 245.925781 845.515625 220.625 811.082031 223.773438 757.496094 C 225.433594 729.796875 235.039062 710.53125 246.710938 693.660156 C 237.011719 675.890625 229.394531 656.644531 229.3125 628.839844 C 229.167969 564.511719 266.546875 521.476562 317.8125 520.433594 C 329.808594 479.082031 352.195312 451.070312 390.503906 443.445312 C 396.039062 443.445312 401.589844 443.445312 407.105469 443.445312 C 445.066406 451.863281 468.910156 478.347656 479.015625 522.449219 C 543.054688 519.800781 583.070312 608.011719 554.855469 680.480469 C 568.808594 697.738281 584.023438 722.148438 586.480469 757.484375 Z M 586.480469 757.484375 " clip-rule="nonzero"/></clipPath><clipPath id="64691a16da"><path d="M 0.507812 0.445312 L 363.480469 0.445312 L 363.480469 554 L 0.507812 554 Z M 0.507812 0.445312 " clip-rule="nonzero"/></clipPath><clipPath id="83e8899b62"><path d="M 363.480469 314.484375 C 363.480469 320.550781 363.480469 326.65625 363.480469 332.710938 C 357.417969 380.980469 337.238281 411.152344 304.21875 424.890625 C 308.621094 505.371094 246.183594 563.882812 184.902344 528.222656 C 172.027344 540.082031 157.621094 549.976562 138.289062 553.546875 C 132.75 553.546875 127.226562 553.546875 121.691406 553.546875 C 72.484375 542.898438 39.238281 497.085938 48.1875 421.871094 C 22.925781 402.515625 -2.375 368.082031 0.773438 314.496094 C 2.433594 286.796875 12.039062 267.53125 23.710938 250.660156 C 14.011719 232.890625 6.394531 213.644531 6.3125 185.839844 C 6.167969 121.511719 43.546875 78.476562 94.8125 77.433594 C 106.808594 36.082031 129.195312 8.070312 167.503906 0.445312 C 173.039062 0.445312 178.589844 0.445312 184.105469 0.445312 C 222.066406 8.863281 245.910156 35.347656 256.015625 79.449219 C 320.054688 76.800781 360.070312 165.011719 331.855469 237.480469 C 345.808594 254.738281 361.023438 279.148438 363.480469 314.484375 Z M 363.480469 314.484375 " clip-rule="nonzero"/></clipPath><clipPath id="cf8f51bb84"><rect x="0" width="364" y="0" height="554"/></clipPath></defs><g clip-path="url(#5c10d95b40)"><g clip-path="url(#d3dd7d25d5)"><g transform="matrix(1, 0, 0, 1, 152, 214)"><g clip-path="url(#6317aefcf8)"><g clip-path="url(#6d01814bff)"><g clip-path="url(#12523fbed7)"><path fill="#000000" d="M 0.351562 1011.289062 L 0.351562 0.695312 L 505.648438 0.695312 L 505.648438 1011.289062 Z M 0.351562 1011.289062 " fill-opacity="1" fill-rule="nonzero"/></g></g></g></g></g></g><g clip-path="url(#6f3cf911c6)"><g clip-path="url(#c366d55ee1)"><g transform="matrix(1, 0, 0, 1, 223, 443)"><g clip-path="url(#cf8f51bb84)"><g clip-path="url(#64691a16da)"><g clip-path="url(#83e8899b62)"><path fill="#ffffff" d="M 363.480469 0.445312 L 363.480469 553.414062 L 0.507812 553.414062 L 0.507812 0.445312 Z M 363.480469 0.445312 " fill-opacity="1" fill-rule="nonzero"/></g></g></g></g></g></g></svg>