
<svg id="svg" xmlns="http://www.w3.org/2000/svg" xmlns:xlink="http://www.w3.org/1999/xlink" width="400" height="711.1111111111111" viewBox="0, 0, 400,711.1111111111111" version="1.1"><g id="svgg"><path id="path0" d="M192.237 106.258 C 128.749 110.255,78.568 161.218,75.380 224.936 C 75.215 228.242,75.214 482.931,75.379 486.163 C 78.799 553.020,133.331 605.036,200.000 605.036 C 266.695 605.036,321.350 552.855,324.622 486.057 C 324.783 482.770,324.783 228.157,324.623 224.948 C 321.125 155.255,261.604 101.891,192.237 106.258 M206.578 175.953 C 229.519 177.418,251.977 188.541,267.403 206.079 C 280.195 220.622,287.560 237.740,289.620 257.719 C 289.925 260.673,290.022 447.271,289.721 451.496 C 285.501 510.746,226.976 549.644,170.786 530.545 C 136.923 519.035,113.126 488.225,110.340 452.286 C 110.068 448.776,109.958 264.115,110.226 260.128 C 113.091 217.429,144.474 183.162,186.667 176.661 C 192.710 175.730,199.378 175.493,206.578 175.953 " stroke="none" fill="#000000" fill-rule="evenodd"></path></g>
 <g id="pins" style="display:none">
  <circle id="pinL" cx="50%" cy="70%" r="3" fill="red" stroke="black"/>
  <circle id="pinR" cx="50%" cy="30%" r="3" fill="red" stroke="black"/>
  <!-- etc. -->
</g> 
</svg>
