
<svg id="svg" xmlns="http://www.w3.org/2000/svg" xmlns:xlink="http://www.w3.org/1999/xlink" width="400" height="711.1111111111111" viewBox="0, 0, 400,711.1111111111111" version="1.1"><g id="svgg"><path id="path2" d="" stroke="none" fill="#9f9f9f" fill-rule="evenodd"></path><path id="path3" d="M110.072 355.111 C 110.072 406.119,110.106 427.029,110.148 401.580 C 110.190 376.130,110.190 334.396,110.148 308.839 C 110.106 283.281,110.072 304.104,110.072 355.111 M289.924 355.259 C 289.924 406.185,289.958 427.019,290.000 401.556 C 290.042 376.093,290.042 334.426,290.000 308.963 C 289.958 283.500,289.924 304.333,289.924 355.259 " stroke="none" fill="#747474" fill-rule="evenodd"></path><path id="path4" d="" stroke="none" fill="#7c7c7c" fill-rule="evenodd"></path><path id="path0" d="M189.424 106.526 C 127.443 112.150,79.952 160.714,75.558 222.963 C 75.074 229.830,75.299 488.515,75.793 492.296 C 76.707 499.298,77.154 502.093,77.971 505.926 C 93.560 579.052,168.636 622.092,239.560 598.562 C 278.315 585.704,308.678 553.974,319.840 514.667 C 321.954 507.223,322.873 502.513,324.207 492.296 C 324.701 488.513,324.926 229.825,324.442 222.963 C 319.485 152.767,258.588 100.250,189.424 106.526 M213.038 176.569 C 255.674 183.062,287.208 217.642,289.796 260.741 C 290.378 270.428,290.004 451.777,289.393 456.228 C 283.076 502.252,245.644 535.407,200.000 535.407 C 154.374 535.407,116.909 502.241,110.612 456.277 C 109.996 451.775,109.619 269.649,110.208 260.444 C 113.090 215.362,147.607 179.934,192.593 175.887 C 196.327 175.551,209.166 175.979,213.038 176.569 " stroke="none" fill="#040404" fill-rule="evenodd"></path><path id="path1" d="M0.000 355.556 L 0.000 711.111 200.000 711.111 L 400.000 711.111 400.000 355.556 L 400.000 0.000 200.000 0.000 L 0.000 0.000 0.000 355.556 M215.407 106.941 C 273.544 114.858,316.025 157.730,324.062 216.593 C 324.690 221.190,325.058 481.433,324.448 489.481 C 319.495 554.854,265.450 605.037,200.000 605.037 C 134.729 605.037,80.951 555.311,75.572 489.984 C 75.135 484.686,75.135 226.425,75.572 221.127 C 80.665 159.265,128.136 111.950,190.815 106.264 C 194.883 105.895,210.980 106.338,215.407 106.941 M192.535 176.031 C 151.318 179.203,117.715 210.770,111.033 252.593 L 110.370 256.741 110.370 355.556 L 110.370 454.370 111.034 458.519 C 120.327 516.600,179.313 550.442,233.602 528.840 C 263.006 517.139,283.816 490.707,288.966 458.519 L 289.630 454.370 289.630 355.556 L 289.630 256.741 288.967 252.593 C 281.378 205.087,240.164 172.365,192.535 176.031 " stroke="none" fill="#fbfbfb" fill-rule="evenodd"></path><path id="path2" d="" stroke="none" fill="#9f9f9f" fill-rule="evenodd"></path><path id="path3" d="M110.072 355.111 C 110.072 406.119,110.106 427.029,110.148 401.580 C 110.190 376.130,110.190 334.396,110.148 308.839 C 110.106 283.281,110.072 304.104,110.072 355.111 M289.924 355.259 C 289.924 406.185,289.958 427.019,290.000 401.556 C 290.042 376.093,290.042 334.426,290.000 308.963 C 289.958 283.500,289.924 304.333,289.924 355.259 " stroke="none" fill="#747474" fill-rule="evenodd"></path><path id="path4" d="" stroke="none" fill="#7c7c7c" fill-rule="evenodd"></path><path id="path0" d="M189.424 106.526 C 127.443 112.150,79.952 160.714,75.558 222.963 C 75.074 229.830,75.299 488.515,75.793 492.296 C 76.707 499.298,77.154 502.093,77.971 505.926 C 93.560 579.052,168.636 622.092,239.560 598.562 C 278.315 585.704,308.678 553.974,319.840 514.667 C 321.954 507.223,322.873 502.513,324.207 492.296 C 324.701 488.513,324.926 229.825,324.442 222.963 C 319.485 152.767,258.588 100.250,189.424 106.526 M213.038 176.569 C 255.674 183.062,287.208 217.642,289.796 260.741 C 290.378 270.428,290.004 451.777,289.393 456.228 C 283.076 502.252,245.644 535.407,200.000 535.407 C 154.374 535.407,116.909 502.241,110.612 456.277 C 109.996 451.775,109.619 269.649,110.208 260.444 C 113.090 215.362,147.607 179.934,192.593 175.887 C 196.327 175.551,209.166 175.979,213.038 176.569 " stroke="none" fill="#040404" fill-rule="evenodd"></path><path id="path1" d="M0.000 355.556 L 0.000 711.111 200.000 711.111 L 400.000 711.111 400.000 355.556 L 400.000 0.000 200.000 0.000 L 0.000 0.000 0.000 355.556 M215.407 106.941 C 273.544 114.858,316.025 157.730,324.062 216.593 C 324.690 221.190,325.058 481.433,324.448 489.481 C 319.495 554.854,265.450 605.037,200.000 605.037 C 134.729 605.037,80.951 555.311,75.572 489.984 C 75.135 484.686,75.135 226.425,75.572 221.127 C 80.665 159.265,128.136 111.950,190.815 106.264 C 194.883 105.895,210.980 106.338,215.407 106.941 M192.535 176.031 C 151.318 179.203,117.715 210.770,111.033 252.593 L 110.370 256.741 110.370 355.556 L 110.370 454.370 111.034 458.519 C 120.327 516.600,179.313 550.442,233.602 528.840 C 263.006 517.139,283.816 490.707,288.966 458.519 L 289.630 454.370 289.630 355.556 L 289.630 256.741 288.967 252.593 C 281.378 205.087,240.164 172.365,192.535 176.031 " stroke="none" fill="#fbfbfb" fill-rule="evenodd"></path><path id="path2" d="" stroke="none" fill="#9f9f9f" fill-rule="evenodd"></path><path id="path3" d="M110.072 355.111 C 110.072 406.119,110.106 427.029,110.148 401.580 C 110.190 376.130,110.190 334.396,110.148 308.839 C 110.106 283.281,110.072 304.104,110.072 355.111 M289.924 355.259 C 289.924 406.185,289.958 427.019,290.000 401.556 C 290.042 376.093,290.042 334.426,290.000 308.963 C 289.958 283.500,289.924 304.333,289.924 355.259 " stroke="none" fill="#747474" fill-rule="evenodd"></path><path id="path4" d="" stroke="none" fill="#7c7c7c" fill-rule="evenodd"></path></g>
<g id="pins" style="display:none">
  <circle id="pinL" cx="50%" cy="70%" r="3" />
  <circle id="pinR" cx="50%" cy="30%" r="3" />
  <!-- etc. -->
</g>
</svg>
