<svg xmlns="http://www.w3.org/2000/svg" xmlns:xlink="http://www.w3.org/1999/xlink" width="1080" zoomAndPan="magnify" viewBox="0 0 810 1439.999935" height="1920" preserveAspectRatio="xMidYMid meet" version="1.0"><defs><clipPath id="ec1dce7750"><path d="M 152.351562 214.695312 L 657.648438 214.695312 L 657.648438 1225.289062 L 152.351562 1225.289062 Z M 152.351562 214.695312 " clip-rule="nonzero"/></clipPath><clipPath id="fca3ef20c5"><path d="M 152.351562 467.34375 C 152.351562 327.808594 265.46875 214.695312 405 214.695312 C 544.535156 214.695312 657.648438 327.808594 657.648438 467.34375 L 657.648438 972.640625 C 657.648438 1112.175781 544.535156 1225.289062 405 1225.289062 C 265.46875 1225.289062 152.351562 1112.175781 152.351562 972.640625 Z M 152.351562 467.34375 " clip-rule="nonzero"/></clipPath><clipPath id="8052e41d58"><path d="M 0.351562 0.695312 L 505.648438 0.695312 L 505.648438 1011.289062 L 0.351562 1011.289062 Z M 0.351562 0.695312 " clip-rule="nonzero"/></clipPath><clipPath id="338e3150ff"><path d="M 0.351562 253.34375 C 0.351562 113.808594 113.46875 0.695312 253 0.695312 C 392.535156 0.695312 505.648438 113.808594 505.648438 253.34375 L 505.648438 758.640625 C 505.648438 898.175781 392.535156 1011.289062 253 1011.289062 C 113.46875 1011.289062 0.351562 898.175781 0.351562 758.640625 Z M 0.351562 253.34375 " clip-rule="nonzero"/></clipPath><clipPath id="622865c1a8"><rect x="0" width="506" y="0" height="1012"/></clipPath><clipPath id="7cf8635af6"><path d="M 222.863281 355.726562 L 587.132812 355.726562 L 587.132812 1084.261719 L 222.863281 1084.261719 Z M 222.863281 355.726562 " clip-rule="nonzero"/></clipPath><clipPath id="bd64a448c5"><path d="M 222.863281 537.859375 C 222.863281 437.269531 304.40625 355.726562 404.996094 355.726562 C 505.589844 355.726562 587.132812 437.269531 587.132812 537.859375 L 587.132812 902.128906 C 587.132812 1002.71875 505.589844 1084.261719 404.996094 1084.261719 C 304.40625 1084.261719 222.863281 1002.71875 222.863281 902.128906 Z M 222.863281 537.859375 " clip-rule="nonzero"/></clipPath><clipPath id="6b47e0a512"><path d="M 0.863281 0.726562 L 365.132812 0.726562 L 365.132812 729.261719 L 0.863281 729.261719 Z M 0.863281 0.726562 " clip-rule="nonzero"/></clipPath><clipPath id="bac5143aa9"><path d="M 0.863281 182.859375 C 0.863281 82.269531 82.40625 0.726562 182.996094 0.726562 C 283.589844 0.726562 365.132812 82.269531 365.132812 182.859375 L 365.132812 547.128906 C 365.132812 647.71875 283.589844 729.261719 182.996094 729.261719 C 82.40625 729.261719 0.863281 647.71875 0.863281 547.128906 Z M 0.863281 182.859375 " clip-rule="nonzero"/></clipPath><clipPath id="2bccca6383"><rect x="0" width="366" y="0" height="730"/></clipPath></defs><g clip-path="url(#ec1dce7750)"><g clip-path="url(#fca3ef20c5)"><g transform="matrix(1, 0, 0, 1, 152, 214)"><g clip-path="url(#622865c1a8)"><g clip-path="url(#8052e41d58)"><g clip-path="url(#338e3150ff)"><path fill="#000000" d="M 0.351562 1011.289062 L 0.351562 0.695312 L 505.648438 0.695312 L 505.648438 1011.289062 Z M 0.351562 1011.289062 " fill-opacity="1" fill-rule="nonzero"/></g></g></g></g></g></g><g clip-path="url(#7cf8635af6)"><g clip-path="url(#bd64a448c5)"><g transform="matrix(1, 0, 0, 1, 222, 355)"><g clip-path="url(#2bccca6383)"><g clip-path="url(#6b47e0a512)"><g clip-path="url(#bac5143aa9)"><path fill="#ffffff" d="M 0.863281 729.261719 L 0.863281 0.726562 L 365.132812 0.726562 L 365.132812 729.261719 Z M 0.863281 729.261719 " fill-opacity="1" fill-rule="nonzero"/></g></g></g></g></g></g></svg>