
<svg id="svg" version="1.1" xmlns="http://www.w3.org/2000/svg" xmlns:xlink="http://www.w3.org/1999/xlink" width="400" height="200" viewBox="0, 0, 400,200"><g id="svgg"><path id="path0" d="M96.750 0.943 C 52.206 3.108,14.502 34.731,4.775 78.084 C -8.668 137.999,34.712 195.311,96.167 198.828 C 100.154 199.056,300.816 199.058,304.833 198.830 C 366.521 195.327,409.974 137.585,396.138 77.500 C 386.567 35.935,352.298 6.048,308.667 1.214 C 306.358 0.958,101.817 0.696,96.750 0.943 M278.250 28.667 C 325.967 33.012,355.983 81.760,338.383 126.328 C 328.841 150.490,307.387 167.120,280.917 170.872 L 278.250 171.250 200.667 171.250 C 126.552 171.250,122.979 171.236,120.750 170.946 C 64.455 163.614,38.284 99.202,73.568 54.821 C 85.115 40.298,104.039 30.207,122.583 28.684 C 125.076 28.479,276.007 28.463,278.250 28.667 " stroke="none" fill="#040404" fill-rule="evenodd"></path><path id="path1" d="M0.000 100.000 L 0.000 200.000 200.000 200.000 L 400.000 200.000 400.000 100.000 L 400.000 0.000 200.000 0.000 L 0.000 0.000 0.000 100.000 M304.000 0.836 C 374.778 4.448,419.097 77.362,389.599 141.666 C 374.742 174.052,342.656 196.190,306.750 198.827 C 303.534 199.064,97.703 199.063,94.333 198.827 C 46.489 195.473,7.512 157.704,2.749 110.083 C -2.924 53.352,39.657 3.782,96.584 0.846 C 100.428 0.648,300.123 0.638,304.000 0.836 M124.083 28.685 C 87.121 31.464,58.696 61.232,57.718 98.187 C 56.697 136.749,86.548 168.969,125.333 171.169 C 131.463 171.516,276.340 171.311,279.333 170.950 C 307.911 167.507,330.710 149.214,339.650 122.555 C 354.501 78.268,323.543 32.059,276.750 28.670 C 273.899 28.464,126.836 28.478,124.083 28.685 " stroke="none" fill="#fbfbfb" fill-rule="evenodd"></path><path id="path2" d="M398.732 99.750 C 398.733 101.033,398.759 101.536,398.791 100.868 C 398.822 100.199,398.822 99.149,398.790 98.534 C 398.758 97.920,398.732 98.467,398.732 99.750 " stroke="none" fill="#7c7c7c" fill-rule="evenodd"></path><path id="path3" d="M149.708 0.792 C 177.644 0.815,223.356 0.815,251.292 0.792 C 279.227 0.768,256.371 0.749,200.500 0.749 C 144.629 0.749,121.773 0.768,149.708 0.792 M366.333 26.552 C 366.333 26.581,366.577 26.825,366.875 27.094 L 367.417 27.583 366.927 27.042 C 366.471 26.537,366.333 26.423,366.333 26.552 M320.000 47.052 C 320.000 47.081,320.244 47.325,320.542 47.594 L 321.083 48.083 320.594 47.542 C 320.138 47.037,320.000 46.923,320.000 47.052 M79.667 48.250 C 79.262 48.663,78.968 49.000,79.014 49.000 C 79.060 49.000,79.428 48.663,79.833 48.250 C 80.238 47.837,80.532 47.500,80.486 47.500 C 80.440 47.500,80.072 47.837,79.667 48.250 M77.333 50.583 C 76.928 50.996,76.635 51.333,76.681 51.333 C 76.726 51.333,77.095 50.996,77.500 50.583 C 77.905 50.171,78.199 49.833,78.153 49.833 C 78.107 49.833,77.738 50.171,77.333 50.583 M323.833 50.885 C 323.833 50.914,324.077 51.158,324.375 51.427 L 324.917 51.917 324.427 51.375 C 323.971 50.870,323.833 50.757,323.833 50.885 M398.539 93.167 C 398.539 93.487,398.573 93.619,398.615 93.458 C 398.657 93.298,398.657 93.035,398.615 92.875 C 398.573 92.715,398.539 92.846,398.539 93.167 M343.209 95.417 C 343.211 95.783,343.245 95.914,343.285 95.706 C 343.324 95.499,343.323 95.199,343.281 95.040 C 343.239 94.880,343.207 95.050,343.209 95.417 M398.718 96.583 C 398.719 97.133,398.750 97.338,398.787 97.039 C 398.825 96.739,398.824 96.289,398.786 96.039 C 398.748 95.788,398.717 96.033,398.718 96.583 M2.232 99.917 C 2.233 101.200,2.259 101.703,2.291 101.034 C 2.322 100.366,2.322 99.316,2.290 98.701 C 2.258 98.086,2.232 98.633,2.232 99.917 M398.721 103.083 C 398.722 103.725,398.752 103.967,398.788 103.621 C 398.824 103.275,398.824 102.750,398.787 102.455 C 398.750 102.159,398.721 102.442,398.721 103.083 M398.539 106.667 C 398.539 106.987,398.573 107.119,398.615 106.958 C 398.657 106.798,398.657 106.535,398.615 106.375 C 398.573 106.215,398.539 106.346,398.539 106.667 M323.906 148.875 L 323.417 149.417 323.958 148.927 C 324.463 148.471,324.577 148.333,324.448 148.333 C 324.419 148.333,324.175 148.577,323.906 148.875 M78.417 150.333 C 79.238 151.158,79.947 151.833,79.993 151.833 C 80.039 151.833,79.405 151.158,78.583 150.333 C 77.762 149.508,77.053 148.833,77.007 148.833 C 76.961 148.833,77.595 149.508,78.417 150.333 M320.824 151.958 L 320.250 152.583 320.875 152.009 C 321.457 151.474,321.577 151.333,321.449 151.333 C 321.422 151.333,321.140 151.615,320.824 151.958 M28.833 167.552 C 28.833 167.581,29.077 167.825,29.375 168.094 L 29.917 168.583 29.427 168.042 C 28.971 167.537,28.833 167.423,28.833 167.552 M125.625 171.284 C 125.831 171.324,126.169 171.324,126.375 171.284 C 126.581 171.245,126.412 171.212,126.000 171.212 C 125.587 171.212,125.419 171.245,125.625 171.284 M274.960 171.285 C 275.168 171.324,275.468 171.323,275.627 171.281 C 275.786 171.239,275.617 171.207,275.250 171.209 C 274.883 171.211,274.753 171.245,274.960 171.285 M33.250 172.000 C 33.608 172.367,33.938 172.667,33.984 172.667 C 34.030 172.667,33.775 172.367,33.417 172.000 C 33.059 171.633,32.728 171.333,32.682 171.333 C 32.637 171.333,32.892 171.633,33.250 172.000 M367.073 172.542 L 366.583 173.083 367.125 172.594 C 367.630 172.138,367.743 172.000,367.615 172.000 C 367.586 172.000,367.342 172.244,367.073 172.542 " stroke="none" fill="#9b9b9b" fill-rule="evenodd"></path><path id="path4" d="M96.625 0.951 C 96.831 0.991,97.169 0.991,97.375 0.951 C 97.581 0.911,97.412 0.879,97.000 0.879 C 96.587 0.879,96.419 0.911,96.625 0.951 M303.625 0.951 C 303.831 0.991,304.169 0.991,304.375 0.951 C 304.581 0.911,304.412 0.879,304.000 0.879 C 303.587 0.879,303.419 0.911,303.625 0.951 M368.250 28.500 C 368.701 28.958,369.108 29.333,369.154 29.333 C 369.200 29.333,368.868 28.958,368.417 28.500 C 367.965 28.042,367.558 27.667,367.513 27.667 C 367.467 27.667,367.799 28.042,368.250 28.500 M31.330 29.792 L 29.750 31.417 31.375 29.837 C 32.269 28.968,33.000 28.236,33.000 28.212 C 33.000 28.091,32.798 28.282,31.330 29.792 M371.250 31.500 C 371.608 31.867,371.938 32.167,371.984 32.167 C 372.030 32.167,371.775 31.867,371.417 31.500 C 371.059 31.133,370.728 30.833,370.682 30.833 C 370.637 30.833,370.892 31.133,371.250 31.500 M322.583 49.500 C 323.220 50.142,323.779 50.667,323.824 50.667 C 323.870 50.667,323.387 50.142,322.750 49.500 C 322.113 48.858,321.555 48.333,321.509 48.333 C 321.463 48.333,321.947 48.858,322.583 49.500 M2.379 95.500 C 2.379 95.912,2.411 96.081,2.451 95.875 C 2.491 95.669,2.491 95.331,2.451 95.125 C 2.411 94.919,2.379 95.087,2.379 95.500 M343.389 98.333 C 343.389 99.021,343.419 99.302,343.455 98.958 C 343.491 98.615,343.491 98.052,343.455 97.708 C 343.419 97.365,343.389 97.646,343.389 98.333 M57.559 99.250 C 57.559 100.075,57.587 100.434,57.622 100.047 C 57.657 99.660,57.657 98.985,57.623 98.547 C 57.588 98.109,57.560 98.425,57.559 99.250 M343.387 101.167 C 343.387 101.763,343.417 102.006,343.454 101.708 C 343.491 101.410,343.491 100.923,343.454 100.625 C 343.417 100.327,343.387 100.571,343.387 101.167 M2.379 104.333 C 2.379 104.746,2.411 104.915,2.451 104.708 C 2.491 104.502,2.491 104.165,2.451 103.958 C 2.411 103.752,2.379 103.921,2.379 104.333 M369.664 169.958 L 367.750 171.917 369.708 170.003 C 371.527 168.225,371.742 168.000,371.622 168.000 C 371.598 168.000,370.717 168.881,369.664 169.958 M31.333 170.083 C 31.644 170.404,31.936 170.667,31.982 170.667 C 32.028 170.667,31.811 170.404,31.500 170.083 C 31.189 169.762,30.897 169.500,30.851 169.500 C 30.805 169.500,31.022 169.762,31.333 170.083 M97.127 198.951 C 97.334 198.991,97.634 198.990,97.794 198.948 C 97.953 198.906,97.783 198.874,97.417 198.875 C 97.050 198.877,96.920 198.911,97.127 198.951 M303.292 198.951 C 303.498 198.991,303.835 198.991,304.042 198.951 C 304.248 198.911,304.079 198.879,303.667 198.879 C 303.254 198.879,303.085 198.911,303.292 198.951 " stroke="none" fill="#747474" fill-rule="evenodd"></path></g>
<g id="pins" style="display:none">
  <circle id="pinL" cx="30%" cy="50%" r="3" fill="red" stroke="black"/>
  <circle id="pinR" cx="70%" cy="50%" r="3" fill="red" stroke="black"/>
  <!-- etc. -->
</g>



</svg>
