
<svg id="svg" xmlns="http://www.w3.org/2000/svg" xmlns:xlink="http://www.w3.org/1999/xlink" width="400" height="200" viewBox="0, 0, 400,200"><g id="svgg"><path id="path0" d="M86.400 26.225 C 33.125 31.485,-5.327 67.888,0.376 107.666 C 5.407 142.758,41.656 169.951,88.800 173.998 C 95.228 174.550,304.963 174.532,311.400 173.979 C 380.683 168.028,420.567 113.034,389.416 66.408 C 374.793 44.521,345.971 29.351,313.036 26.207 C 304.139 25.358,95.014 25.375,86.400 26.225 M280.800 48.625 C 304.461 51.361,325.766 63.731,334.492 79.800 C 351.756 111.592,325.734 146.113,280.518 151.402 C 272.860 152.298,127.140 152.298,119.482 151.402 C 67.435 145.314,42.662 100.870,73.661 69.197 C 84.162 58.467,101.154 50.726,118.800 48.632 C 126.162 47.758,273.249 47.752,280.800 48.625 M35.121 91.467 C 44.490 97.233,39.134 111.461,28.211 109.823 C 21.782 108.858,17.985 100.768,21.309 95.114 C 24.189 90.214,30.414 88.570,35.121 91.467 M375.121 91.467 C 384.490 97.233,379.134 111.461,368.211 109.823 C 361.782 108.858,357.985 100.768,361.309 95.114 C 364.189 90.214,370.414 88.570,375.121 91.467 " stroke="none" fill="#000000" fill-rule="evenodd"></path></g>
<g id="pins" style="display:inline; pointer-events:none">
  <circle id="pinL" cx="7%" cy="50%" r="3" fill="red" stroke="black"/>
  <circle id="pinR" cx="93%" cy="50%" r="3" fill="red" stroke="black"/>
  <!-- etc. -->
</g>




</svg>