<svg id="svg-half-top" xmlns="http://www.w3.org/2000/svg" xmlns:xlink="http://www.w3.org/1999/xlink" width="400" height="200.94250706880302" viewBox="0, 0, 400, 200.94250706880302">
  <defs>
    <clipPath id="clip-top-part">
      <rect x="0" y="0" width="400" height="100.48"/>
    </clipPath>
  </defs>
  <g id="svgg-top" clip-path="url(#clip-top-part)">
    <path id="path0-top" d="M98.586 1.759 C 76.625 2.296,54.860 10.511,37.849 24.684 C 0.728 55.612,-8.745 108.719,15.395 150.566 C 32.155 179.618,61.750 197.788,95.947 200.021 C 98.676 200.200,302.495 200.198,305.184 200.020 C 356.140 196.641,395.324 157.693,398.793 106.975 C 399.202 101.006,398.812 92.626,397.823 86.111 C 391.150 42.160,356.180 8.069,312.062 2.505 C 310.306 2.283,308.629 2.120,305.514 1.868 C 304.279 1.767,102.574 1.662,98.586 1.759 M175.683 100.943 C 175.683 141.266,175.652 174.278,175.613 174.302 C 175.506 174.368,47.267 101.068,47.267 100.942 C 47.267 100.816,175.506 27.519,175.613 27.584 C 175.652 27.607,175.683 60.619,175.683 100.943 M288.811 64.277 C 324.049 84.407,352.869 100.913,352.854 100.958 C 352.815 101.075,224.566 174.343,224.482 174.297 C 224.395 174.250,224.386 27.672,224.473 27.585 C 224.507 27.551,224.581 27.558,224.638 27.600 C 224.694 27.643,253.572 44.148,288.811 64.277 " stroke="none" fill="#000000" fill-rule="evenodd"></path>
  </g>
  <g id="al-pins-top" style="display:inline; pointer-events:none" clip-path="url(#al-clip-top-part)">
    <circle id="pinL" cx="20%" cy="50%" r="3" fill="red" stroke="black"/>
    <circle id="pinR" cx="80%" cy="50%" r="3" fill="red" stroke="black"/>
  </g>
</svg>