<svg id="svg-last-top-part" xmlns="http://www.w3.org/2000/svg" xmlns:xlink="http://www.w3.org/1999/xlink" width="400" height="201.25028941884696" viewBox="0, 0, 400, 201.25028941884696">
  <defs>
    <clipPath id="clip-last-top-part">
      <rect x="0" y="0" width="400" height="100.63"/>
    </clipPath>
  </defs>
  <g id="svgg-top-part" clip-path="url(#clip-last-top-part)">
    <path id="path0-top-part" d="M99.421 3.806 C 60.783 5.199,26.394 29.616,12.299 65.663 C -6.086 112.682,14.360 165.822,59.551 188.470 C 71.291 194.354,83.697 197.642,97.708 198.582 C 100.345 198.759,300.706 198.762,303.404 198.585 C 345.911 195.796,380.191 168.185,392.023 127.205 C 393.227 123.038,394.445 116.637,394.950 111.831 C 395.030 111.067,395.136 110.088,395.185 109.655 C 395.406 107.706,395.504 105.148,395.505 101.273 C 395.513 53.389,360.970 12.750,313.673 5.003 C 310.679 4.513,308.331 4.246,303.728 3.873 C 302.115 3.742,102.998 3.676,99.421 3.806 M186.088 31.306 C 194.705 31.817,202.002 34.329,209.611 39.402 L 210.701 40.129 212.621 39.151 C 220.401 35.186,226.651 33.618,235.286 33.463 C 258.900 33.040,276.104 46.300,277.488 65.992 L 277.600 67.587 278.741 67.922 C 293.221 72.171,302.922 80.662,306.366 92.102 C 307.264 95.086,307.293 95.303,307.293 98.877 L 307.292 102.014 306.922 103.431 C 303.436 116.777,294.204 125.196,278.514 129.338 L 276.823 129.784 276.822 130.486 C 276.808 141.750,270.041 151.359,257.894 157.364 C 245.884 163.301,231.139 164.215,218.038 159.834 L 215.793 159.084 215.306 159.472 C 201.829 170.191,186.557 173.697,170.688 169.715 C 157.527 166.413,148.722 159.786,144.069 149.684 L 143.502 148.453 140.123 148.423 C 110.399 148.159,91.576 125.568,102.871 103.712 L 103.573 102.354 103.303 102.031 C 103.155 101.853,102.591 101.193,102.051 100.564 C 101.510 99.936,100.664 98.879,100.169 98.217 C 99.675 97.555,99.221 96.951,99.160 96.874 C 97.489 94.768,95.290 90.096,94.388 86.733 C 93.834 84.671,93.818 84.513,93.818 81.123 L 93.818 77.986 94.190 76.525 C 99.042 57.482,117.248 47.108,141.931 49.322 C 142.797 49.400,143.776 49.485,144.107 49.512 L 144.709 49.560 145.046 49.087 C 145.709 48.155,147.417 46.234,148.921 44.727 C 158.548 35.084,171.422 30.435,186.088 31.306 " stroke="none" fill="#000000" fill-rule="evenodd"></path>
  </g>
  <g id="pins-top-part" style="display:inline; pointer-events:none" clip-path="url(#clip-last-top-part)">
    <circle id="pinL" cx="70%" cy="50%" r="3" fill="red" stroke="black"/>
    <circle id="pinR" cx="30%" cy="50%" r="3" fill="red" stroke="black"/>
  </g>
</svg>