<?xml version="1.0" standalone="no"?>
<!DOCTYPE svg PUBLIC "-//W3C//DTD SVG 20010904//EN"
 "http://www.w3.org/TR/2001/REC-SVG-20010904/DTD/svg10.dtd">
<svg version="1.0" xmlns="http://www.w3.org/2000/svg"
 width="300.000000pt" height="386.000000pt" viewBox="0 0 300.000000 386.000000"
 preserveAspectRatio="xMidYMid meet">
<metadata>
Created by potrace 1.10, written by Peter Selinger 2001-2011
</metadata>
<g transform="translate(0.000000,386.000000) scale(0.100000,-0.100000)"
fill="#000000" stroke="none">
<path d="M1921 3329 c-162 -49 -301 -287 -301 -514 0 -60 -2 -66 -17 -60 -39
16 -164 25 -218 17 -40 -7 -58 -6 -60 2 -2 6 -13 60 -25 119 -35 181 -75 266
-164 344 -83 73 -125 88 -250 88 -100 0 -117 -3 -168 -27 -94 -45 -147 -136
-148 -254 0 -140 80 -234 201 -234 99 0 157 39 179 121 12 44 6 78 -23 130
-34 64 -118 81 -156 33 -31 -39 -27 -77 10 -108 33 -28 53 -32 93 -16 24 9 26
7 26 -15 0 -14 -13 -39 -29 -57 -26 -29 -34 -32 -89 -33 -106 0 -154 56 -154
180 0 62 4 82 26 119 33 57 66 82 129 101 81 24 175 20 233 -11 127 -67 199
-181 233 -369 25 -143 29 -128 -38 -169 -33 -20 -80 -59 -105 -87 -57 -63
-126 -201 -133 -263 -3 -25 -8 -46 -12 -46 -3 0 -24 12 -45 26 -95 65 -271 96
-424 75 -195 -27 -287 -92 -314 -222 -10 -47 -9 -71 4 -137 28 -143 92 -250
187 -314 25 -17 47 -32 49 -33 1 -1 -10 -24 -25 -51 -36 -66 -38 -169 -6 -230
79 -148 233 -185 410 -98 43 21 80 39 83 41 3 2 5 -41 6 -95 2 -265 127 -453
392 -588 115 -58 155 -92 172 -146 19 -59 39 -98 50 -98 6 0 26 33 46 74 19
41 48 88 64 104 25 27 163 122 176 122 12 0 96 64 137 104 62 60 102 122 139
213 29 71 32 88 33 188 0 63 -5 118 -11 130 -6 11 -14 36 -18 56 l-6 35 102
-34 c91 -31 115 -35 208 -35 88 -1 114 3 157 22 91 40 125 99 127 221 1 94
-22 159 -71 199 l-36 30 33 33 c81 82 131 251 111 382 -30 202 -135 289 -334
273 -111 -8 -260 -66 -365 -141 -59 -43 -68 -44 -76 -11 -17 68 -128 217 -217
290 l-36 30 9 85 c20 179 65 294 148 380 64 66 106 83 205 84 90 0 127 -14
182 -70 52 -54 76 -167 49 -237 -18 -47 -50 -71 -108 -82 -34 -7 -41 -4 -73
28 -40 40 -46 62 -14 54 43 -12 109 36 109 78 0 12 -11 34 -25 49 -34 37 -84
36 -127 -3 -30 -27 -33 -34 -32 -88 1 -107 57 -168 152 -167 68 0 111 21 149
71 26 34 28 43 28 129 -1 76 -5 100 -24 136 -33 65 -59 92 -121 124 -46 24
-69 29 -135 31 -44 1 -95 -2 -114 -8z m602 -839 c57 -27 91 -84 112 -186 14
-73 15 -87 1 -153 -18 -86 -48 -149 -96 -204 l-36 -40 -139 -2 c-148 -3 -239
-19 -485 -86 -161 -44 -180 -46 -180 -21 0 30 26 151 46 208 40 121 84 199
152 267 108 110 192 164 329 213 91 32 232 34 296 4z m-1777 -131 c89 -16 169
-63 259 -154 93 -93 172 -204 221 -310 19 -40 34 -76 34 -78 0 -3 -98 -2 -217
0 -217 5 -288 -1 -443 -38 -135 -31 -171 -24 -247 51 -84 83 -149 276 -124
367 22 79 88 132 196 159 63 16 243 17 321 3z m984 -213 c0 -2 -9 -28 -20 -58
-10 -29 -24 -72 -30 -95 -8 -33 -16 -43 -41 -52 -48 -17 -238 -32 -293 -24
-49 8 -49 8 -87 81 -21 41 -43 80 -50 88 -10 12 7 14 112 15 82 0 168 8 254
23 150 27 155 27 155 22z m745 -300 c62 -19 102 -59 120 -120 19 -62 19 -80
-1 -145 -26 -89 -84 -121 -224 -121 -94 0 -125 7 -250 53 -116 42 -213 93
-292 152 l-67 49 32 14 c35 15 202 68 257 82 32 8 66 14 205 39 78 14 167 12
220 -3z m-1257 -91 c3 -3 -180 -182 -243 -237 -115 -101 -248 -169 -345 -176
-61 -4 -68 -2 -115 29 -65 45 -98 103 -97 175 0 52 12 81 56 137 8 10 43 24
82 33 38 8 89 20 114 26 87 19 207 26 375 21 94 -3 171 -7 173 -8z m696 -210
c66 -37 79 -54 91 -127 5 -33 3 -39 -22 -51 -108 -55 -377 -108 -579 -114
-156 -5 -250 8 -381 54 l-73 26 0 37 c0 43 29 79 122 149 l57 43 82 -21 c140
-35 432 -24 579 23 25 8 48 14 52 15 4 1 36 -15 72 -34z m-32 -648 c-49 -50
-126 -99 -203 -129 -45 -17 -77 -21 -189 -22 l-135 -1 -85 42 c-47 24 -99 55
-117 71 l-32 28 247 0 c238 0 363 11 492 43 62 16 65 12 22 -32z"/>
</g>
</svg>
