<?xml version="1.0" standalone="no"?>
<!DOCTYPE svg PUBLIC "-//W3C//DTD SVG 20010904//EN"
 "http://www.w3.org/TR/2001/REC-SVG-20010904/DTD/svg10.dtd">
<svg version="1.0" xmlns="http://www.w3.org/2000/svg"
 width="300.000000pt" height="277.000000pt" viewBox="0 0 300.000000 277.000000"
 preserveAspectRatio="xMidYMid meet">
<metadata>
Created by potrace 1.10, written by Peter Selinger 2001-2011
</metadata>
<g transform="translate(0.000000,277.000000) scale(0.100000,-0.100000)"
fill="#000000" stroke="none">
<path d="M890 2752 c-80 -27 -112 -46 -153 -91 -77 -86 -75 -191 8 -369 59
-125 182 -298 325 -457 35 -39 37 -43 10 -19 -208 184 -454 324 -632 360 -154
31 -264 -1 -361 -105 -64 -70 -82 -121 -82 -236 1 -102 31 -171 112 -256 122
-128 329 -216 633 -268 63 -11 144 -23 178 -26 l64 -7 -3 -52 c-2 -28 0 -116
5 -196 l8 -145 -42 -105 c-23 -58 -48 -121 -55 -142 l-13 -36 96 45 c224 105
205 100 315 88 l98 -10 53 -130 c115 -286 264 -482 423 -558 62 -29 77 -32
164 -32 92 0 98 1 182 43 100 49 196 132 226 196 25 51 27 122 6 194 -25 83
-105 190 -238 319 -67 65 -115 113 -107 107 8 -6 65 -49 125 -95 221 -171 321
-229 426 -249 154 -29 259 71 319 304 36 142 20 221 -62 311 -109 120 -335
193 -661 215 -71 5 -130 10 -132 12 -1 2 -5 35 -7 74 l-5 72 56 15 c74 21 140
78 172 149 36 80 34 199 -5 292 l-29 70 24 19 c13 11 49 32 79 46 44 21 68 26
120 24 76 -3 100 12 100 63 0 36 -29 64 -65 64 -29 0 -65 -28 -65 -51 0 -10
-7 -19 -15 -19 -30 0 -127 -43 -169 -75 l-44 -33 -38 40 c-22 22 -55 51 -75
63 l-36 24 21 104 c18 92 25 108 54 135 46 43 40 90 -15 110 -63 21 -106 -28
-84 -96 11 -32 10 -52 -6 -132 -15 -71 -23 -94 -34 -91 -8 2 -53 6 -101 9 -80
4 -93 2 -143 -22 -101 -50 -155 -143 -155 -266 0 -62 -2 -68 -22 -74 -40 -10
-44 -7 -40 34 6 63 -17 206 -50 309 -82 256 -220 438 -392 517 -77 35 -189 42
-266 16z m323 -135 c187 -86 333 -383 325 -661 l-3 -98 -77 -28 c-42 -14 -108
-45 -147 -68 l-71 -40 -67 75 c-147 163 -258 332 -304 465 -62 177 -25 292
116 360 75 36 142 35 228 -5z m-687 -547 c146 -37 370 -162 579 -326 l85 -67
-51 -55 c-52 -57 -111 -162 -124 -219 -3 -18 -11 -35 -16 -39 -13 -8 -215 32
-339 67 -58 16 -156 55 -219 85 -229 112 -307 238 -255 413 20 69 73 127 133
145 64 20 115 19 207 -4z m1174 -297 c50 -116 200 -238 318 -258 38 -6 40 -8
46 -52 8 -59 8 -142 0 -182 -7 -31 -8 -32 -48 -26 -203 30 -347 116 -468 278
-50 67 -128 203 -128 221 0 14 192 74 240 75 9 1 25 -23 40 -56z m-372 -95 c3
-13 25 -61 48 -108 49 -97 131 -201 205 -260 102 -80 287 -150 401 -150 36 0
48 -4 48 -15 0 -17 -51 -119 -73 -147 -43 -54 -284 24 -438 141 -37 28 -104
90 -150 139 -84 88 -209 258 -209 284 0 22 128 138 152 138 6 0 13 -10 16 -22z
m-217 -270 c45 -110 192 -279 310 -357 113 -74 193 -108 379 -159 l35 -9 -56
-27 c-114 -54 -304 -83 -394 -61 -114 29 -242 138 -309 264 l-39 73 6 102 c5
98 29 206 46 206 5 0 14 -14 22 -32z m1338 -158 c223 -40 354 -109 419 -219
23 -39 27 -57 27 -121 -1 -139 -57 -234 -156 -260 -124 -34 -366 68 -624 262
-44 34 -83 64 -88 68 -4 3 8 40 27 81 18 41 39 101 46 134 7 33 14 66 16 74 6
18 182 8 333 -19z m-368 -457 c131 -134 176 -192 220 -287 38 -82 43 -165 13
-217 -28 -47 -105 -103 -194 -141 -63 -27 -88 -32 -155 -32 -68 -1 -88 3 -131
26 -69 36 -137 115 -184 212 -42 88 -85 234 -96 326 l-6 58 67 11 c113 20 261
87 309 140 11 12 24 21 31 21 6 0 63 -53 126 -117z"/>
</g>
</svg>
