
<svg version="1.0" xmlns="http://www.w3.org/2000/svg"
 width="300.000000pt" height="256.000000pt" viewBox="0 0 300.000000 256.000000"
 preserveAspectRatio="xMidYMid meet">
<g transform="translate(0.000000,256.000000) scale(0.100000,-0.100000)"
fill="#000000" stroke="none">
<path d="M203 2355 c-87 -38 -67 -138 52 -265 105 -112 147 -216 185 -470 24
-151 41 -200 82 -235 40 -34 68 -32 204 15 64 22 133 40 153 39 l36 0 -50 -24
c-27 -14 -98 -47 -157 -74 -187 -86 -267 -186 -255 -321 4 -36 16 -94 27 -130
14 -42 25 -116 31 -210 12 -168 26 -210 76 -224 28 -8 41 -4 100 31 93 55 145
73 222 80 64 5 68 7 116 58 50 51 143 207 169 281 8 21 24 73 36 114 23 78
107 257 141 300 l19 25 -7 -115 c-5 -63 -8 -180 -7 -260 0 -119 3 -152 18
-183 35 -71 99 -54 125 33 17 56 30 220 32 385 l1 140 39 -80 c49 -101 83
-204 109 -324 25 -118 110 -298 172 -363 38 -40 50 -46 96 -51 63 -7 138 -40
221 -96 67 -46 101 -51 131 -21 30 30 39 61 51 174 7 68 23 141 51 226 64 197
54 271 -54 378 -37 37 -92 73 -190 124 -75 40 -138 77 -138 82 0 20 94 -12
259 -86 58 -26 100 -18 139 26 36 41 52 86 87 241 49 216 108 333 217 428 100
86 140 186 95 235 -66 73 -343 57 -582 -33 -226 -85 -485 -269 -642 -455 -46
-56 -69 -77 -75 -68 -13 22 -9 47 22 126 43 106 108 200 196 281 58 53 75 74
72 92 -5 36 -24 33 -73 -12 -97 -89 -186 -233 -231 -374 -28 -87 -45 -94 -64
-23 -34 136 -118 285 -217 390 -37 38 -64 58 -80 58 -46 0 -26 -38 70 -133 99
-99 150 -176 192 -292 26 -70 26 -74 10 -99 l-17 -25 -38 57 c-158 237 -460
476 -720 572 -47 17 -121 40 -165 51 -95 23 -245 25 -292 4z m536 -256 c173
-49 236 -85 362 -204 130 -123 172 -172 205 -237 43 -85 41 -88 -85 -88 -75 0
-150 -8 -242 -26 -218 -41 -235 -43 -272 -33 -18 5 -44 21 -58 35 -21 23 -24
33 -20 87 10 162 7 190 -20 227 -66 87 -90 169 -65 219 14 26 34 38 85 50 2 1
52 -13 110 -30z m1677 -58 c17 -11 34 -31 38 -46 10 -40 -17 -111 -69 -180
-56 -73 -59 -86 -52 -188 6 -96 -7 -138 -52 -161 -45 -24 -77 -20 -259 29
-169 45 -329 72 -359 61 -8 -4 -22 -1 -29 5 -11 9 -9 20 11 60 34 66 70 106
205 221 133 115 197 149 354 188 133 34 171 36 212 11z m-1078 -593 c16 -16
15 -47 -2 -78 -8 -14 -49 -90 -91 -170 -103 -195 -169 -291 -257 -376 -75 -73
-116 -94 -183 -94 -36 0 -105 18 -105 28 0 35 -54 255 -71 289 -65 134 19 240
251 317 245 82 427 115 458 84z m502 -47 c254 -86 353 -134 418 -205 64 -69
75 -144 31 -206 -17 -25 -33 -73 -78 -227 l-21 -72 -45 -6 c-147 -23 -265 86
-399 365 -67 141 -156 345 -156 359 0 5 8 17 17 26 24 24 91 14 233 -34z"/>
</g>

<g id="pins" style="display:none">
  <circle id="pinL" cx="27%" cy="37%" r="3" fill="red" stroke="black"/>
  <circle id="pinR" cx="73%" cy="37%" r="3" fill="red" stroke="black"/>
  <!-- etc. -->
</g>

  
</svg>
