<svg version="1.1" xmlns="http://www.w3.org/2000/svg" width="300.000000pt" height="423.000000pt" viewBox="0 0 300.000000 423.000000" preserveAspectRatio="xMidYMid meet" xmlns:xlink="http://www.w3.org/1999/xlink" transform="matrix(6.123233995736766e-17,1,-1,6.123233995736766e-17,0,0)">

<g transform="translate(0.000000,423.000000) scale(0.100000,-0.100000)" fill="#000000" stroke="none">
<path d="M215 4184 c-66 -34 -111 -95 -146 -196 -18 -52 -22 -85 -22 -183 1
-190 53 -357 185 -600 260 -477 518 -757 833 -904 l50 -24 -70 -17 c-38 -9
-85 -24 -102 -33 -23 -12 -44 -15 -73 -11 -24 4 -52 2 -70 -6 -29 -12 -37 -10
-115 29 -140 69 -245 160 -306 263 -35 59 -109 138 -131 138 -14 0 -8 -43 11
-86 21 -46 158 -183 262 -261 39 -29 108 -72 155 -94 107 -52 109 -65 13 -109
-107 -49 -203 -118 -310 -222 -97 -94 -139 -155 -139 -203 l0 -26 31 18 c39
22 83 75 108 128 38 80 197 212 328 272 47 22 58 23 83 13 16 -7 49 -10 72 -8
31 3 57 -2 92 -18 28 -13 74 -26 104 -30 l54 -7 -90 -47 c-300 -159 -507 -382
-762 -825 -109 -188 -184 -375 -209 -519 -37 -205 20 -424 128 -501 39 -28 50
-30 142 -33 124 -5 187 14 433 127 186 86 212 93 409 116 199 23 283 54 376
140 89 81 127 160 139 284 l7 73 32 -44 c42 -59 139 -156 175 -174 200 -104
632 71 915 369 105 112 143 185 143 277 0 158 -103 330 -284 476 -166 134
-422 290 -545 332 -19 7 -32 14 -30 16 2 2 107 9 233 15 137 8 236 17 247 24
25 16 24 44 -2 58 -24 13 -229 28 -389 29 l-105 0 100 44 c171 74 421 238 561
369 132 124 224 298 224 426 0 160 -258 421 -565 571 -172 84 -343 114 -459
81 -55 -16 -150 -98 -213 -184 l-38 -52 -6 85 c-4 50 -15 103 -26 130 -50 112
-168 213 -292 250 -36 11 -138 29 -226 39 -188 24 -188 24 -375 112 -216 101
-307 129 -421 129 -66 0 -103 -5 -124 -16z m224 -298 c61 -32 84 -120 44 -174
-48 -66 -135 -76 -192 -23 -103 97 22 262 148 197z m436 -144 c55 -14 73 -23
82 -43 23 -47 42 -139 53 -256 11 -119 40 -596 37 -600 -1 -1 -66 61 -144 138
l-143 140 -15 113 c-26 200 -36 381 -25 449 5 34 10 65 10 70 0 13 73 7 145
-11z m419 -107 c89 -42 149 -99 170 -162 24 -69 20 -165 -19 -455 -46 -343
-60 -541 -47 -644 6 -43 10 -80 8 -81 -1 -2 -53 77 -116 175 l-113 177 -8 155
c-23 440 -2 870 42 870 5 0 43 -16 83 -35z m875 -151 c6 -5 -19 -61 -109 -247
-73 -150 -89 -176 -111 -180 -36 -8 -84 -50 -110 -97 -24 -42 -99 -109 -99
-88 0 7 27 107 59 223 33 115 65 230 71 254 13 49 88 137 123 144 22 5 169 -3
176 -9z m214 -72 c65 -36 99 -62 132 -102 25 -30 45 -58 45 -61 0 -3 -26 -23
-57 -45 -32 -21 -96 -71 -143 -109 -47 -39 -119 -96 -160 -126 -41 -31 -95
-72 -119 -93 -24 -20 -45 -35 -46 -34 -2 2 1 30 6 63 5 37 4 75 -2 97 -12 45
-12 43 109 242 122 201 131 216 140 216 4 0 47 -22 95 -48z m-1781 -341 c135
-64 206 -117 333 -245 131 -131 165 -176 298 -384 l87 -137 -36 -8 c-32 -6
-46 -2 -103 29 -205 112 -401 287 -514 459 -77 118 -174 325 -152 325 2 0 42
-18 87 -39z m2018 -17 c0 -25 5 -77 11 -116 21 -133 -28 -286 -116 -367 -123
-112 -298 -224 -460 -294 l-90 -40 -125 23 c-69 12 -133 25 -142 29 -13 5 -1
24 66 102 45 52 121 148 170 212 66 87 111 134 182 191 161 129 442 306 487
306 14 0 17 -9 17 -46z m-652 -66 c18 -18 14 -111 -7 -167 -27 -72 -113 -209
-219 -350 -52 -70 -100 -138 -108 -153 -13 -25 -54 -40 -54 -20 0 11 57 264
81 356 33 130 40 141 107 175 59 30 109 77 137 130 13 26 26 37 46 40 3 1 10
-4 17 -11z m172 -1030 c102 -51 260 -156 351 -233 51 -43 73 -70 94 -116 38
-86 56 -199 45 -280 -5 -35 -10 -83 -10 -106 0 -23 -4 -44 -10 -48 -23 -14
-254 124 -433 259 -129 97 -152 120 -272 276 -49 63 -117 147 -152 186 -35 39
-63 76 -63 81 0 5 60 21 133 35 152 28 150 29 317 -54z m-820 17 c0 -11 -155
-252 -216 -335 -34 -47 -122 -144 -196 -215 -134 -131 -212 -185 -352 -245
l-48 -20 7 27 c13 52 103 230 155 309 145 214 484 484 608 484 23 0 42 -2 42
-5z m79 -77 c-14 -103 0 -303 46 -643 53 -389 45 -470 -51 -555 -52 -45 -184
-105 -195 -88 -4 7 -14 44 -21 83 -16 84 -16 846 -1 911 9 36 220 380 229 372
1 -2 -2 -38 -7 -80z m271 6 c165 -230 236 -337 271 -409 36 -72 39 -87 37
-145 -3 -61 -4 -65 -27 -65 -18 0 -35 15 -66 60 -32 45 -57 68 -104 93 -34 19
-69 45 -77 58 -16 23 -66 206 -99 359 -9 44 -19 90 -22 103 -4 17 -1 22 14 22
12 0 38 -27 73 -76z m-624 -536 c-3 -35 -11 -148 -16 -253 -15 -273 -29 -397
-53 -484 l-22 -76 -75 -22 c-41 -12 -92 -22 -112 -22 -36 -1 -37 0 -45 47 -15
88 5 429 33 567 5 21 47 71 143 166 75 74 140 136 144 137 5 1 6 -26 3 -60z
m1063 9 c36 -30 84 -67 106 -83 22 -16 79 -61 126 -100 47 -39 116 -92 152
-118 37 -26 67 -51 67 -55 0 -4 -22 -32 -50 -63 -34 -39 -73 -68 -129 -97 -43
-22 -85 -41 -93 -41 -7 0 -69 92 -137 205 l-124 204 11 43 c6 24 9 53 7 63 -9
46 -13 95 -8 95 3 0 36 -24 72 -53z m-291 -34 c41 -61 105 -122 130 -125 23
-3 36 -25 126 -210 55 -115 97 -211 93 -214 -3 -4 -46 -9 -96 -12 l-89 -5 -44
45 c-25 25 -52 64 -61 89 -20 57 -137 475 -137 489 0 16 56 -26 78 -57z
m-1379 -737 c61 -32 84 -120 44 -174 -48 -66 -135 -76 -192 -23 -103 97 22
262 148 197z"></path>
</g>
  <g id="pins" style="display:none">
  <circle id="pinL" cx="45%" cy="80%" r="3" fill="red" stroke="black"/>
  <circle id="pinR" cx="45%" cy="20%" r="3" fill="red" stroke="black"/>
  <!-- etc. -->
</g>
</svg>
