
<svg id="svg" xmlns="http://www.w3.org/2000/svg" xmlns:xlink="http://www.w3.org/1999/xlink" width="400" height="283.9945280437757" viewBox="0, 0, 400,283.9945280437757"><g id="svgg"><path id="path0" d="M33.379 4.647 C 3.848 10.572,-0.411 28.806,18.488 68.399 C 28.112 88.563,28.482 89.810,30.666 109.439 C 32.574 126.596,34.191 132.209,39.512 140.165 C 47.810 152.570,58.154 158.413,71.818 158.413 C 75.655 158.413,78.794 158.446,78.795 158.487 C 78.796 158.528,76.583 160.202,73.879 162.208 C 53.764 177.128,50.040 189.329,58.084 213.953 C 66.752 240.483,93.273 272.881,111.197 278.835 C 124.592 283.284,147.431 272.024,162.164 253.707 C 176.163 236.302,188.622 216.106,194.283 201.642 C 194.989 199.836,195.727 198.162,195.922 197.922 C 196.308 197.446,196.609 201.781,197.822 225.297 C 198.695 242.209,199.114 244.285,201.791 244.957 C 206.194 246.062,207.110 240.845,207.858 210.397 L 208.208 196.170 210.055 201.094 C 215.931 216.767,234.605 246.138,247.059 259.296 C 262.853 275.983,283.703 283.953,296.229 278.092 C 319.878 267.025,347.247 226.883,350.219 198.906 C 351.849 183.558,347.045 174.539,330.917 162.670 C 328.283 160.732,326.129 159.105,326.130 159.053 C 326.131 159.002,329.148 158.944,332.833 158.924 C 356.567 158.796,370.783 142.083,373.994 110.534 C 375.875 92.052,376.490 89.820,384.243 73.324 C 387.568 66.252,391.356 57.668,392.661 54.249 C 405.295 21.162,393.113 3.757,357.866 4.533 C 322.733 5.306,264.537 38.466,233.295 75.513 C 228.217 81.535,222.872 89.996,218.695 98.625 C 216.840 102.459,215.122 105.598,214.879 105.602 C 214.635 105.606,214.579 105.377,214.754 105.095 C 215.674 103.605,211.281 89.250,209.181 86.887 C 208.433 86.046,208.439 85.719,209.235 83.729 C 210.447 80.700,210.349 77.980,208.939 75.470 L 207.754 73.362 209.309 69.650 C 215.355 55.216,227.370 40.383,236.905 35.579 C 244.675 31.664,252.642 22.435,248.251 22.435 C 243.176 22.435,238.048 25.848,229.182 35.127 C 217.074 47.798,213.703 52.421,208.019 64.150 L 204.378 71.665 202.456 71.674 C 200.544 71.683,200.524 71.656,198.179 66.241 C 189.590 46.405,166.886 22.435,156.686 22.435 C 152.680 22.435,160.493 31.616,167.589 35.245 C 176.728 39.920,186.685 51.295,193.451 64.788 C 197.495 72.854,197.444 72.607,195.622 75.291 C 193.910 77.814,193.779 81.567,195.315 84.086 C 196.082 85.343,196.189 85.890,195.705 86.076 C 194.000 86.730,191.289 94.332,190.339 101.118 L 189.684 105.803 188.852 103.928 C 175.670 74.215,154.786 53.090,114.637 28.859 C 81.209 8.683,53.867 0.536,33.379 4.647 M51.050 24.649 C 58.861 27.111,61.101 38.645,54.919 44.570 C 46.522 52.619,32.418 43.841,35.783 32.661 C 37.912 25.587,43.959 22.414,51.050 24.649 M361.423 24.676 C 365.383 25.876,368.786 31.036,368.786 35.841 C 368.786 49.473,349.879 52.200,346.076 39.117 C 343.292 29.543,351.621 21.705,361.423 24.676 M120.185 51.890 C 147.656 64.014,169.581 84.467,184.295 111.696 C 187.118 116.920,188.503 124.761,186.602 124.761 C 184.705 124.761,157.642 106.895,148.837 99.830 C 142.747 94.944,125.188 76.709,121.996 71.956 C 118.858 67.283,109.372 48.704,109.784 48.038 C 110.055 47.600,112.601 48.543,120.185 51.890 M290.090 57.557 C 283.139 71.760,281.126 74.522,267.886 88.016 C 255.983 100.147,240.233 111.870,220.472 123.308 C 217.234 125.181,217.437 125.299,217.079 121.347 C 216.303 112.785,236.384 84.316,252.573 71.030 C 263.926 61.711,293.391 45.541,294.288 48.136 C 294.382 48.407,292.493 52.647,290.090 57.557 M74.419 68.140 C 81.018 68.467,96.438 70.097,104.747 71.346 L 109.632 72.080 112.360 75.301 C 113.861 77.073,119.789 83.132,125.533 88.766 L 135.978 99.009 133.242 99.013 C 131.737 99.016,124.596 98.663,117.373 98.229 C 73.434 95.591,68.765 95.140,60.418 92.721 C 51.764 90.213,52.415 90.835,50.357 83.101 C 46.836 69.874,46.961 69.336,53.752 68.437 C 56.541 68.068,59.193 67.689,59.644 67.594 C 60.096 67.499,62.189 67.513,64.295 67.625 C 66.402 67.737,70.958 67.969,74.419 68.140 M352.120 68.625 L 355.402 69.269 355.818 71.707 C 356.157 73.688,355.840 75.628,354.130 82.046 L 352.026 89.947 346.601 91.780 C 339.359 94.226,330.343 95.537,313.543 96.586 C 284.268 98.414,273.781 99.019,271.136 99.030 L 268.401 99.042 279.428 87.962 C 285.493 81.867,291.451 75.759,292.669 74.388 L 294.883 71.894 304.076 70.708 C 329.484 67.427,343.023 66.840,352.120 68.625 M140.082 110.749 L 154.036 111.458 157.592 113.648 C 165.462 118.493,186.372 132.069,187.141 132.832 C 187.869 133.555,187.776 133.610,186.320 133.311 C 176.564 131.310,158.708 131.608,139.808 134.088 C 133.680 134.892,107.567 138.281,97.401 139.591 C 75.630 142.398,66.401 137.501,58.874 119.145 C 57.793 116.509,56.908 114.238,56.908 114.100 C 56.908 110.250,97.808 108.602,140.082 110.749 M332.695 110.840 C 336.758 111.295,341.738 112.156,343.763 112.754 L 347.444 113.840 346.325 116.701 C 338.033 137.906,329.499 142.550,304.788 139.305 C 243.420 131.245,231.290 130.400,217.957 133.260 L 216.416 133.591 217.784 132.405 C 219.051 131.307,236.083 120.222,245.781 114.184 C 250.885 111.006,248.992 111.297,269.494 110.544 C 278.824 110.202,287.319 109.836,288.372 109.730 C 293.087 109.258,325.896 110.079,332.695 110.840 M187.141 151.515 C 187.141 152.880,186.853 153.755,186.340 153.952 C 184.977 154.475,177.694 159.338,175.103 161.456 C 161.820 172.309,144.044 183.461,135.431 186.345 C 123.503 190.338,115.133 184.910,125.285 179.765 C 129.806 177.474,133.694 173.413,136.435 168.118 C 139.173 162.828,140.567 161.085,142.734 160.246 C 145.705 159.094,162.534 154.743,170.999 152.938 C 175.814 151.911,180.985 150.722,182.490 150.295 C 186.934 149.036,187.141 149.090,187.141 151.515 M227.360 151.620 C 262.854 159.525,263.790 159.903,267.858 168.002 C 270.555 173.371,273.446 176.441,278.881 179.709 C 287.295 184.770,282.495 189.499,271.303 187.176 C 264.716 185.808,247.522 175.733,234.131 165.393 C 227.728 160.450,220.805 155.527,218.386 154.198 C 215.825 152.791,215.998 148.924,218.591 149.617 C 219.200 149.780,223.146 150.681,227.360 151.620 M190.158 172.407 L 192.578 185.166 190.717 190.121 C 184.036 207.900,165.588 236.137,156.641 242.281 C 149.136 247.434,132.908 250.815,124.761 248.923 C 123.406 248.608,119.757 248.145,116.651 247.895 C 109.671 247.331,109.948 247.721,112.600 242.194 C 122.556 221.445,142.007 195.342,154.521 185.934 C 163.645 179.075,170.176 173.811,179.385 165.892 C 183.701 162.180,187.346 159.257,187.485 159.396 C 187.624 159.535,188.827 165.390,190.158 172.407 M220.005 161.754 C 221.643 163.141,225.198 166.193,227.907 168.538 C 233.081 173.016,240.286 178.732,250.342 186.336 C 256.337 190.869,259.231 193.811,264.858 201.094 C 276.264 215.855,285.949 230.767,291.408 241.969 L 293.889 247.059 292.362 247.404 C 291.522 247.595,289.357 247.788,287.551 247.834 C 285.746 247.880,282.668 248.270,280.711 248.700 C 271.746 250.673,260.967 249.017,251.163 244.161 C 240.595 238.928,222.320 212.910,213.678 190.795 L 211.577 185.420 213.995 172.327 C 215.325 165.126,216.551 159.234,216.720 159.234 C 216.890 159.234,218.368 160.368,220.005 161.754 M133.516 164.599 C 133.516 165.760,127.315 172.365,124.957 173.716 C 119.628 176.769,114.944 182.171,114.881 185.335 C 114.847 187.043,117.092 185.830,89.094 199.265 C 81.666 202.829,75.361 205.746,75.082 205.746 C 74.406 205.746,73.411 191.846,73.898 189.186 C 74.775 184.388,82.518 178.003,89.301 176.484 C 91.499 175.992,102.161 173.034,112.996 169.911 C 134.479 163.720,133.516 163.969,133.516 164.599 M293.023 170.400 C 304.460 173.622,315.171 176.645,316.826 177.118 C 322.277 178.675,329.524 185.088,330.259 189.003 C 330.707 191.394,330.047 204.170,329.423 205.181 C 328.400 206.835,289.104 187.243,289.042 185.048 C 288.949 181.767,284.484 176.431,279.891 174.110 C 276.445 172.369,268.651 163.595,271.135 164.252 C 271.737 164.412,281.587 167.178,293.023 170.400 M120.078 192.960 C 122.705 193.855,124.966 193.830,132.942 192.814 L 135.926 192.434 134.858 193.823 C 134.270 194.588,131.807 197.644,129.385 200.616 C 126.963 203.588,123.597 207.989,121.906 210.397 C 120.215 212.804,116.818 217.114,114.357 219.973 C 109.086 226.098,100.718 237.069,98.932 240.197 C 97.359 242.952,97.460 242.961,93.023 239.671 C 87.146 235.315,77.155 220.585,77.155 216.278 C 77.155 215.466,115.462 192.066,116.791 192.066 C 117.154 192.066,118.634 192.468,120.078 192.960 M297.346 197.621 C 302.492 200.676,309.289 204.773,312.449 206.726 C 319.377 211.007,326.874 215.697,327.149 215.922 C 327.259 216.013,325.536 219.731,323.319 224.185 C 319.001 232.863,317.043 235.306,310.610 240.045 C 306.785 242.863,306.699 242.875,305.582 240.714 C 304.058 237.768,298.714 230.751,289.160 219.152 C 286.433 215.841,282.513 210.793,280.448 207.934 C 278.383 205.075,274.874 200.555,272.650 197.890 C 267.814 192.094,267.639 192.412,275.191 193.252 C 280.547 193.848,281.589 193.824,283.607 193.064 C 287.253 191.692,287.492 191.771,297.346 197.621 " stroke="none" fill="#000000" fill-rule="evenodd"></path></g>
<g id="pins" style="display:none">
  <circle id="pinL" cx="20%" cy="45%" r="3" fill="red" stroke="black"/>
  <circle id="pinR" cx="80%" cy="45%" r="3" fill="red" stroke="black"/>
  <!-- etc. -->
</g>



</svg>
