<?xml version="1.0" standalone="no"?>
<!DOCTYPE svg PUBLIC "-//W3C//DTD SVG 20010904//EN"
 "http://www.w3.org/TR/2001/REC-SVG-20010904/DTD/svg10.dtd">
<svg version="1.0" xmlns="http://www.w3.org/2000/svg"
 width="300.000000pt" height="289.000000pt" viewBox="0 0 300.000000 289.000000"
 preserveAspectRatio="xMidYMid meet">
<metadata>
Created by potrace 1.10, written by Peter Selinger 2001-2011
</metadata>
<g transform="translate(0.000000,289.000000) scale(0.100000,-0.100000)"
fill="#000000" stroke="none">
<path d="M849 2075 c-321 -322 -584 -589 -584 -594 0 -5 265 -275 589 -601
l589 -592 593 593 594 594 -592 592 c-326 326 -595 593 -599 593 -3 0 -268
-263 -590 -585z m619 464 c3 -28 -16 -43 -43 -33 -15 6 -21 45 -8 58 16 16 48
1 51 -25z m52 -174 c66 -66 72 -75 50 -75 -14 0 -45 14 -70 30 -55 37 -65 37
-114 4 -38 -26 -96 -48 -96 -36 0 8 142 152 150 152 3 0 39 -34 80 -75z m-56
-112 c27 -77 30 -150 12 -223 -9 -36 -23 -71 -31 -79 -11 -12 -16 -4 -34 54
-30 95 -27 171 11 268 15 38 24 34 42 -20z m-142 -144 l3 -76 -62 5 c-74 6
-81 -2 -66 -76 l9 -47 -93 0 -94 0 8 25 c4 14 7 42 7 62 0 33 8 46 78 115 75
75 81 78 141 88 71 11 65 20 69 -96z m329 93 c24 4 40 -7 112 -81 84 -86 85
-86 90 -146 l5 -60 -49 3 c-26 2 -71 -1 -100 -7 -29 -6 -54 -10 -56 -8 -2 2 8
30 23 61 14 31 23 63 20 71 -8 21 -62 18 -114 -5 l-42 -19 7 27 c5 15 8 61 8
103 l0 76 34 -9 c19 -6 47 -8 62 -6z m-46 -242 c7 -12 -25 -88 -55 -130 l-21
-29 35 -53 c79 -120 45 -154 -72 -73 l-51 34 -52 -34 c-76 -52 -119 -58 -119
-17 0 16 26 64 63 114 17 25 17 26 -18 83 -64 107 -38 134 67 69 l58 -35 44
31 c68 46 109 60 121 40z m-686 -95 l-33 -65 32 -65 c56 -113 42 -128 -68 -71
l-66 35 -50 -30 c-27 -16 -60 -29 -74 -29 -21 0 0 25 130 155 85 85 156 151
158 145 2 -5 -11 -39 -29 -75z m1312 -223 c-5 -2 -37 11 -70 27 -33 17 -66 31
-74 31 -7 0 -34 -13 -60 -30 -102 -64 -130 -46 -73 47 20 32 36 70 36 83 0 14
-14 48 -30 75 -16 28 -30 57 -30 65 0 8 70 -55 155 -140 85 -85 151 -156 146
-158z m-332 182 c23 -9 41 -19 41 -23 0 -13 -47 -30 -115 -42 -66 -13 -143 -5
-207 20 -48 18 -33 33 62 60 47 14 169 5 219 -15z m-641 -4 c38 -14 40 -23 9
-37 -78 -36 -217 -40 -293 -8 -43 18 -38 30 24 50 54 17 207 14 260 -5z m521
-140 l78 0 -11 -49 c-13 -65 2 -86 55 -77 21 3 44 9 52 12 12 4 15 -5 13 -53
0 -32 2 -74 7 -94 l7 -36 -56 11 c-51 9 -58 8 -70 -9 -8 -10 -12 -26 -10 -34
3 -9 8 -33 12 -54 6 -38 6 -38 -22 -30 -16 4 -59 7 -95 6 l-65 -2 10 49 c7 37
7 52 -3 64 -15 18 -57 21 -94 7 l-25 -10 1 72 c0 40 -3 82 -7 94 -7 21 -5 21
26 12 88 -25 118 1 100 85 -8 40 -8 46 5 42 8 -3 49 -6 92 -6z m-582 -52 c-5
-26 -7 -54 -4 -63 7 -17 54 -20 102 -6 l30 8 0 -94 c0 -89 -1 -94 -20 -88 -11
3 -36 9 -57 12 -46 7 -61 -15 -48 -73 5 -21 10 -42 10 -46 0 -4 -30 -6 -67 -5
-38 1 -81 -2 -97 -6 -27 -8 -28 -7 -20 20 4 15 8 46 8 68 l1 40 -40 0 c-22 0
-52 -4 -68 -8 -26 -7 -27 -6 -20 20 5 16 7 58 6 94 l-2 65 48 -9 c70 -15 85
-6 78 46 -3 24 -9 49 -12 57 -4 13 11 15 88 15 l93 0 -9 -47z m-367 -75 c7
-32 9 -82 6 -113 -7 -60 -35 -150 -48 -150 -14 0 -30 77 -35 173 -4 78 -2 107
12 144 l18 46 18 -22 c10 -12 23 -47 29 -78z m635 55 c27 -65 30 -171 8 -242
-10 -33 -23 -61 -30 -63 -19 -7 -47 96 -47 172 0 68 27 175 44 175 4 0 16 -19
25 -42z m652 -5 c24 -63 24 -211 0 -265 -20 -45 -30 -47 -46 -10 -33 70 -32
225 1 297 16 35 24 32 45 -22z m-1442 -126 l0 -92 -69 5 c-65 5 -70 7 -102 45
l-33 40 36 37 c28 29 45 38 73 39 19 1 46 5 60 9 14 4 27 8 30 9 3 1 5 -41 5
-92z m1618 79 c29 0 46 -8 80 -38 l42 -37 -40 -39 c-37 -37 -45 -40 -106 -45
l-66 -4 9 41 c5 22 6 63 3 89 -7 48 -7 49 16 41 13 -5 41 -9 62 -8z m-915
-277 c25 -16 53 -29 61 -29 9 0 42 16 73 36 97 59 123 32 64 -67 -20 -33 -36
-64 -36 -69 0 -5 16 -35 35 -67 61 -101 41 -125 -59 -69 -35 20 -69 36 -74 36
-6 0 -38 -16 -71 -36 -98 -59 -130 -28 -66 64 40 58 43 82 16 120 -40 58 -53
93 -40 108 14 18 36 12 97 -27z m653 2 c55 -33 66 -37 79 -26 20 18 101 54
120 55 8 0 -55 -70 -140 -155 -85 -85 -155 -153 -157 -151 -6 6 27 88 48 117
l21 30 -30 47 c-81 125 -59 155 59 83z m-1306 -4 l59 -34 56 34 c30 18 67 33
83 33 23 0 27 -4 27 -28 0 -15 -15 -52 -34 -81 l-33 -54 28 -42 c25 -37 49
-105 38 -105 -3 0 -74 70 -159 155 -85 85 -148 155 -140 155 8 0 42 -15 75
-33z m535 -108 l45 -21 -50 -21 c-67 -28 -200 -30 -267 -4 -27 10 -48 22 -48
27 0 8 72 35 120 44 47 9 154 -5 200 -25z m650 3 l45 -20 -38 -16 c-56 -24
-143 -38 -191 -31 -57 9 -136 35 -136 45 0 8 60 33 105 44 43 11 171 -3 215
-22z m-775 -142 l73 0 -1 -62 c-2 -70 -3 -69 75 -54 l36 7 -1 -68 c-1 -37 2
-77 6 -88 7 -20 4 -21 -60 -17 l-68 4 -71 70 c-69 67 -72 72 -77 126 -3 32 -9
66 -13 76 -6 16 -4 18 10 13 10 -4 51 -7 91 -7z m630 -4 c22 0 52 3 66 7 l25
6 -4 -62 -4 -62 -81 -82 c-81 -80 -83 -81 -142 -88 l-60 -6 0 90 c0 77 2 90
15 85 31 -14 81 -16 95 -4 17 14 20 66 5 104 -9 25 -8 26 17 20 15 -4 45 -7
68 -8z m-278 -186 c2 -63 -1 -98 -14 -135 -20 -56 -32 -62 -51 -23 -37 77 -35
207 5 298 l15 35 21 -45 c14 -31 22 -71 24 -130z m-124 -196 c18 -9 42 -25 55
-35 23 -18 24 -17 71 11 27 17 63 33 82 36 33 6 32 4 -43 -70 -43 -42 -81 -76
-85 -76 -5 0 -42 34 -83 75 -62 63 -71 75 -52 75 13 0 37 -7 55 -16z"/>
</g>
</svg>
