<?xml version="1.0" standalone="no"?>
<!DOCTYPE svg PUBLIC "-//W3C//DTD SVG 20010904//EN"
 "http://www.w3.org/TR/2001/REC-SVG-20010904/DTD/svg10.dtd">
<svg version="1.0" xmlns="http://www.w3.org/2000/svg"
 width="300.000000pt" height="219.000000pt" viewBox="0 0 300.000000 219.000000"
 preserveAspectRatio="xMidYMid meet">
<metadata>
Created by potrace 1.10, written by Peter Selinger 2001-2011
</metadata>
<g transform="translate(0.000000,219.000000) scale(0.100000,-0.100000)"
fill="#000000" stroke="none">
<path d="M848 1939 c-51 -8 -108 -42 -108 -64 0 -8 42 -47 93 -88 50 -41 100
-83 110 -94 17 -20 16 -21 -36 -60 -153 -116 -283 -291 -366 -494 -69 -170
-107 -344 -126 -586 l-7 -82 -62 -29 c-108 -51 -177 -130 -191 -218 -8 -46 14
-81 44 -69 132 55 239 69 305 41 18 -7 66 -44 107 -81 41 -37 87 -73 103 -82
25 -13 30 -13 44 1 13 13 14 23 4 65 -19 85 -72 209 -108 256 -19 25 -34 50
-34 56 0 6 19 48 42 92 82 159 299 347 501 435 76 32 235 82 264 82 16 0 17
-64 3 -177 -20 -157 14 -171 167 -67 124 83 173 131 230 222 l45 72 138 0
c148 0 320 -14 385 -32 62 -17 175 -15 210 4 71 37 89 96 44 144 -13 14 -49
39 -80 54 -30 16 -60 34 -66 42 -5 7 -15 44 -21 83 -25 152 -145 317 -288 392
-209 111 -535 152 -789 98 l-80 -16 -79 31 c-146 59 -301 85 -398 69z m1436
-485 c35 -34 5 -114 -43 -114 -28 0 -71 39 -71 64 0 12 7 32 16 44 18 26 74
30 98 6z"/>
</g>
</svg>
