
<svg version="1.0" xmlns="http://www.w3.org/2000/svg"
 width="300.000000pt" height="300.000000pt" viewBox="0 0 300.000000 300.000000"

<g transform="translate(0.000000,300.000000) scale(0.100000,-0.100000)"
fill="#000000" stroke="none">
<path d="M1435 2967 c-157 -84 -284 -269 -285 -414 0 -44 -13 -48 -62 -19 -53
30 -181 76 -212 76 -19 0 -26 -8 -35 -42 -19 -73 -31 -148 -31 -203 l0 -53
-59 24 c-156 63 -333 46 -491 -48 l-55 -33 -3 -78 c-4 -103 11 -176 52 -264
34 -71 118 -168 175 -204 l24 -15 -61 -38 c-68 -41 -172 -135 -172 -155 0 -20
93 -105 166 -153 66 -42 66 -42 43 -57 -57 -36 -141 -134 -174 -204 -41 -85
-55 -152 -55 -258 l0 -78 45 -31 c60 -41 160 -78 246 -90 84 -12 177 0 260 34
l56 23 6 -88 c3 -48 13 -115 23 -148 14 -50 20 -61 38 -61 34 0 184 56 226 84
43 28 50 23 50 -37 1 -136 133 -323 288 -405 l62 -33 62 33 c159 84 287 269
288 415 0 17 4 34 9 37 4 3 39 -10 77 -29 68 -34 198 -74 208 -64 13 13 38
132 43 210 l6 86 57 -24 c155 -62 333 -45 490 49 l55 33 3 88 c3 99 -14 181
-54 265 -28 58 -119 162 -165 189 -37 22 -36 28 3 44 39 16 145 100 176 139
22 28 22 30 6 55 -18 28 -116 108 -178 145 l-39 23 29 20 c58 41 134 127 164
186 40 80 60 168 60 268 l0 82 -45 31 c-59 40 -158 77 -245 91 -86 13 -191 -1
-266 -35 l-51 -24 -6 87 c-5 77 -30 197 -43 210 -11 11 -122 -21 -198 -58 -44
-21 -84 -37 -88 -34 -5 2 -8 19 -8 36 -1 139 -127 327 -273 410 -71 39 -77 39
-142 4z m111 -136 c126 -93 194 -232 179 -365 -9 -83 -63 -246 -136 -413 -33
-76 -66 -150 -72 -165 -6 -16 -14 -28 -17 -28 -7 0 -77 157 -135 300 -53 132
-95 284 -95 344 0 49 20 128 44 175 30 58 157 181 186 181 4 0 25 -13 46 -29z
m-522 -388 c64 -33 138 -108 154 -158 15 -44 29 -265 18 -265 -14 0 -145 89
-187 127 -69 62 -97 151 -84 269 8 74 6 73 99 27z m1051 -19 c4 -30 4 -78 1
-106 -14 -106 -51 -156 -174 -239 -113 -77 -106 -81 -99 52 7 143 20 182 77
240 38 38 155 108 182 109 4 0 10 -25 13 -56z m-1414 -190 c77 -23 139 -65
220 -153 59 -63 275 -340 304 -390 10 -17 -82 -11 -300 20 -264 38 -375 78
-452 163 -55 62 -79 107 -98 188 -24 101 -21 114 25 138 95 49 207 61 301 34z
m1890 0 c30 -9 71 -25 92 -36 l38 -19 -7 -57 c-18 -151 -93 -266 -214 -327
-86 -44 -329 -91 -570 -111 l-84 -7 18 29 c55 85 232 309 304 386 83 87 149
130 225 148 55 13 141 11 198 -6z m-953 -540 c116 -58 156 -202 86 -311 -99
-152 -325 -127 -390 44 -38 98 8 215 105 265 69 36 129 37 199 2z m-803 -133
c58 -27 105 -54 105 -58 0 -9 -89 -57 -175 -94 -78 -33 -151 -29 -239 14 -39
20 -82 47 -94 60 l-23 24 55 38 c131 90 209 94 371 16z m1691 33 c21 -9 59
-30 83 -48 25 -17 50 -34 55 -38 22 -15 -115 -98 -196 -118 -37 -10 -59 -10
-95 -1 -53 13 -233 99 -233 111 0 10 127 76 193 101 59 21 131 19 193 -7z
m-1352 -356 c-92 -130 -248 -321 -306 -373 -133 -120 -288 -144 -455 -70 -61
27 -61 30 -38 138 18 86 56 156 115 211 63 59 110 82 231 111 112 27 490 78
508 68 2 -1 -23 -39 -55 -85z m991 52 c161 -23 302 -60 362 -95 48 -29 117
-104 145 -159 20 -38 48 -151 48 -194 0 -18 -11 -28 -53 -47 -184 -81 -336
-49 -486 103 -74 74 -183 210 -286 356 l-49 69 89 -7 c50 -3 153 -15 230 -26z
m-576 -245 c129 -291 175 -433 175 -550 1 -69 -4 -89 -31 -146 -35 -75 -86
-136 -150 -180 l-43 -30 -43 30 c-99 68 -172 185 -183 296 -11 104 35 256 163
548 31 70 59 127 63 127 3 0 25 -43 49 -95z m-351 -173 c-8 -180 -49 -249
-193 -318 l-70 -34 -8 37 c-5 21 -7 68 -4 105 6 93 42 164 110 216 49 38 158
110 166 111 2 1 2 -52 -1 -117z m705 50 c87 -59 140 -115 158 -168 13 -39 19
-217 7 -229 -9 -9 -109 40 -161 80 -30 23 -55 54 -73 91 -24 50 -28 72 -32
172 -5 134 -12 130 101 54z"/>
</g>
<g id="pins" style="display:none">
  <circle id="pinL" cx="17%" cy="50%" r="3" fill="red" stroke="black"/>
  <circle id="pinR" cx="82%" cy="50%" r="3" fill="red" stroke="black"/>
  <!-- etc. -->
</g>

  
</svg>
