<?xml version="1.0" standalone="no"?>
<!DOCTYPE svg PUBLIC "-//W3C//DTD SVG 20010904//EN"
 "http://www.w3.org/TR/2001/REC-SVG-20010904/DTD/svg10.dtd">
<svg version="1.0" xmlns="http://www.w3.org/2000/svg"
 width="300.000000pt" height="345.000000pt" viewBox="0 0 300.000000 345.000000"
 preserveAspectRatio="xMidYMid meet">
<metadata>
Created by potrace 1.10, written by Peter Selinger 2001-2011
</metadata>
<g transform="translate(0.000000,345.000000) scale(0.100000,-0.100000)"
fill="#000000" stroke="none">
<path d="M1362 3293 c-189 -190 -309 -389 -354 -586 -18 -80 -25 -96 -38 -91
-8 4 -51 18 -95 33 -75 23 -93 25 -280 26 -158 0 -218 -4 -285 -19 -99 -21
-267 -73 -274 -85 -7 -12 30 -179 59 -268 37 -112 115 -271 175 -358 29 -41
86 -107 128 -147 l77 -73 -69 -65 c-38 -36 -91 -94 -117 -129 -62 -82 -150
-254 -189 -370 -33 -99 -72 -270 -64 -282 10 -16 201 -71 318 -91 170 -28 404
-22 521 14 44 14 87 28 95 32 13 5 20 -11 38 -91 27 -118 87 -248 174 -375 75
-111 286 -328 318 -328 26 0 215 187 287 284 106 144 171 277 207 429 17 70
24 86 36 81 143 -63 402 -82 616 -46 117 20 308 75 318 91 8 12 -31 183 -64
282 -39 116 -127 288 -189 370 -26 35 -79 93 -117 129 l-69 65 69 65 c38 36
91 94 117 129 63 82 150 254 190 372 34 101 71 267 63 280 -10 16 -201 71
-318 91 -170 28 -404 22 -521 -14 -44 -14 -87 -28 -95 -32 -13 -5 -20 11 -38
91 -27 118 -87 248 -174 375 -75 112 -286 328 -318 328 -14 0 -61 -40 -138
-117z m213 -105 c313 -339 390 -649 239 -968 -46 -97 -128 -219 -202 -300
l-59 -65 -7 160 c-28 618 -43 916 -47 920 -3 2 -16 -236 -29 -530 -13 -294
-27 -535 -31 -535 -15 0 -123 129 -179 213 -64 96 -111 200 -136 299 -26 99
-15 270 23 374 34 94 94 203 163 295 56 75 178 209 190 209 4 0 38 -32 75 -72z
m-735 -655 c36 -10 83 -28 104 -38 39 -20 40 -21 62 -123 25 -111 92 -264 158
-361 20 -29 36 -55 36 -58 0 -4 -225 110 -620 315 -80 41 -140 70 -135 65 6
-6 163 -108 350 -228 187 -119 343 -220 348 -224 4 -4 -57 -8 -135 -8 -150 0
-255 -16 -351 -54 -28 -11 -61 -18 -73 -15 -35 9 -169 141 -218 214 -24 37
-60 100 -81 141 -36 73 -115 292 -115 322 0 17 77 40 215 64 115 20 369 14
455 -12z m1750 17 c115 -19 240 -53 240 -65 0 -29 -52 -188 -88 -272 -68 -156
-161 -285 -270 -372 l-62 -50 -43 18 c-113 47 -300 75 -439 64 -43 -3 -78 -4
-78 -1 0 3 162 108 359 234 197 126 358 230 356 232 -1 1 -172 -86 -380 -193
-208 -108 -379 -194 -381 -192 -2 2 12 26 31 54 78 117 142 267 166 393 6 36
16 70 21 76 12 16 110 52 188 68 78 17 289 20 380 6z m-1373 -816 c167 -26
251 42 -679 -554 -54 -34 -98 -64 -98 -66 0 -3 69 31 153 74 134 71 698 362
785 406 l33 17 -7 -28 c-16 -68 -89 -237 -137 -318 -157 -263 -358 -375 -674
-375 -128 0 -200 9 -336 42 l-89 22 7 34 c13 69 66 215 110 304 92 186 215
319 357 386 97 47 154 62 263 71 98 9 191 4 312 -15z m1009 -4 c227 -58 398
-222 516 -493 43 -100 91 -255 84 -272 -12 -31 -258 -75 -418 -75 -315 0 -515
111 -675 375 -47 79 -121 249 -137 318 l-6 27 87 -44 c49 -24 268 -137 487
-250 219 -114 400 -205 401 -204 2 2 -204 135 -457 297 -299 191 -455 297
-446 301 14 8 178 38 243 44 75 7 250 -6 321 -24z m-750 -782 c10 -225 21
-408 24 -408 3 0 12 129 18 288 7 158 15 342 19 410 l6 123 48 -92 c65 -122
135 -214 226 -299 l76 -69 -6 -59 c-19 -177 -133 -389 -313 -579 l-74 -78 -69
73 c-181 189 -299 406 -317 581 l-7 62 73 67 c90 81 172 191 231 305 24 47 44
85 45 84 1 -1 10 -185 20 -409z"/>
</g>
</svg>
