

<svg version="1.0" xmlns="http://www.w3.org/2000/svg"
 width="300.000000pt" height="300.000000pt" viewBox="0 0 300.000000 300.000000"
 preserveAspectRatio="xMidYMid meet">
<g transform="translate(0.000000,300.000000) scale(0.100000,-0.100000)"
fill="#000000" stroke="none">
<path d="M1365 2986 c-129 -30 -233 -86 -319 -172 -57 -56 -117 -146 -141
-207 l-16 -42 -112 3 c-130 4 -204 -11 -306 -63 -155 -79 -266 -211 -327 -390
-23 -68 -27 -97 -28 -190 0 -152 33 -257 121 -377 l34 -47 -41 -61 c-56 -83
-89 -160 -106 -248 -18 -95 -18 -145 2 -239 51 -248 234 -445 469 -508 58 -15
234 -23 272 -11 15 4 26 -12 61 -86 224 -469 940 -457 1154 18 23 53 37 73 47
69 30 -12 218 -5 272 9 218 58 385 218 454 437 62 198 29 407 -90 570 l-36 48
36 49 c264 369 80 882 -360 1003 -64 17 -98 20 -186 17 l-108 -3 -16 42 c-62
161 -217 304 -389 359 -100 32 -251 41 -341 20z m276 -122 c130 -38 254 -134
316 -244 49 -88 49 -92 -8 -118 -27 -13 -71 -41 -97 -62 l-48 -38 -40 24
c-102 62 -237 84 -359 59 -157 -32 -284 -121 -360 -250 l-40 -68 -13 44 c-52
177 3 382 137 517 59 58 150 114 225 138 59 18 221 17 287 -2z m-834 -410 l51
-7 1 -96 c0 -53 7 -120 15 -148 l14 -53 -63 -30 c-176 -84 -296 -276 -297
-476 0 -48 7 -107 17 -140 9 -31 14 -58 12 -61 -8 -7 -58 21 -124 71 -37 28
-79 73 -107 114 -220 323 -35 757 352 822 64 11 70 11 129 4z m1599 -25 c332
-102 472 -526 265 -807 l-32 -43 -42 29 c-23 16 -61 39 -84 51 -36 18 -43 26
-43 50 0 49 -38 155 -78 217 -78 120 -204 207 -340 235 -55 12 -66 18 -79 44
-9 16 -29 49 -46 72 -29 41 -30 44 -13 62 10 11 49 36 88 56 123 65 264 77
404 34z m-766 -74 c64 -22 141 -78 179 -129 18 -24 33 -47 33 -51 -1 -4 -29
-17 -64 -29 -83 -28 -151 -69 -214 -128 -40 -38 -58 -48 -85 -48 -77 0 -173
-69 -206 -147 -15 -38 -17 -131 -3 -169 6 -15 9 -28 7 -30 -9 -10 -89 62 -121
109 -140 203 -78 474 135 591 102 56 234 69 339 31z m447 -327 c113 -42 202
-128 245 -238 27 -70 29 -212 4 -280 -18 -49 -74 -140 -85 -140 -4 0 -25 25
-46 55 -46 67 -114 126 -191 164 -46 24 -60 37 -76 73 -41 91 -116 141 -213
141 -58 0 -134 -26 -150 -53 -3 -5 -10 -10 -16 -10 -34 0 37 134 106 199 118
112 273 144 422 89z m-1115 -27 c-7 -73 16 -181 54 -261 32 -67 33 -74 23
-117 -15 -58 2 -137 41 -191 37 -52 117 -92 184 -92 47 0 49 -1 32 -19 -24
-27 -124 -70 -192 -82 -118 -22 -257 24 -349 116 -218 218 -133 571 164 680
20 8 39 14 42 14 3 1 4 -21 1 -48z m598 -410 c14 -10 31 -36 39 -58 13 -36 12
-43 -5 -79 -10 -21 -34 -47 -52 -57 -61 -36 -141 0 -163 73 -10 32 -9 44 7 77
34 69 113 89 174 44z m1041 -144 c96 -95 147 -208 156 -342 7 -103 -8 -175
-58 -274 -94 -188 -320 -313 -517 -286 l-49 6 0 92 c0 92 0 92 39 141 89 112
121 213 117 361 l-4 104 42 43 c45 47 94 131 113 193 6 22 13 46 15 53 6 17
91 -36 146 -91z m-665 44 c125 -59 211 -171 235 -309 42 -239 -157 -472 -404
-472 -64 0 -167 24 -167 39 0 5 14 26 31 47 47 58 89 155 103 234 10 60 16 74
49 103 115 106 100 284 -33 380 -25 18 -24 18 48 13 53 -4 92 -13 138 -35z
m-1455 -150 c35 -16 90 -34 121 -41 86 -19 93 -31 89 -155 -2 -75 2 -119 14
-162 40 -137 134 -258 253 -325 l64 -36 -24 -16 c-33 -24 -138 -54 -211 -62
-82 -8 -191 16 -283 61 -79 39 -178 134 -215 207 -99 194 -88 406 30 566 l32
43 32 -26 c19 -13 62 -38 98 -54z m1119 -81 c20 -38 30 -132 20 -194 -11 -72
-56 -169 -100 -220 -191 -217 -556 -163 -677 99 -27 62 -48 164 -39 199 l6 24
58 -20 c65 -24 227 -36 283 -20 30 8 41 5 84 -19 128 -74 300 -8 338 129 6 23
12 42 14 42 1 0 7 -9 13 -20z m-55 -619 c147 -67 286 -65 459 5 18 7 19 4 12
-54 -24 -211 -158 -379 -360 -450 -134 -47 -307 -29 -432 44 -91 54 -181 154
-219 246 l-15 38 48 24 c27 14 70 41 95 60 36 28 57 36 88 36 57 0 166 27 219
54 25 13 47 22 50 22 3 -1 28 -12 55 -25z"/>
</g>
<g id="pins" style="display:none">
  <circle id="pinL" cx="12%" cy="45%" r="3" fill="red" stroke="black"/>
  <circle id="pinR" cx="88%" cy="45%" r="3" fill="red" stroke="black"/>
  <!-- etc. -->
</g>

  
</svg>
