
<svg version="1.0" xmlns="http://www.w3.org/2000/svg"
 width="300.000000pt" height="301.000000pt" viewBox="0 0 300.000000 301.000000"
 preserveAspectRatio="xMidYMid meet">

<g transform="translate(0.000000,301.000000) scale(0.100000,-0.100000)"
fill="#000000" stroke="none">
<path d="M1452 2944 c-43 -52 -126 -205 -162 -299 -28 -75 -62 -205 -75 -286
l-5 -36 -85 42 c-97 49 -229 88 -283 83 -34 -3 -37 -6 -40 -36 -4 -39 38 -194
69 -254 14 -27 16 -39 7 -35 -91 40 -151 61 -213 74 -63 14 -76 14 -91 2 -34
-28 6 -197 80 -336 20 -37 35 -67 33 -68 -1 -1 -38 -7 -81 -13 -151 -23 -348
-101 -497 -197 -76 -49 -83 -57 -75 -90 11 -42 232 -166 388 -218 81 -27 212
-57 248 -57 12 0 20 -3 18 -7 -2 -5 -19 -39 -39 -78 -45 -86 -89 -223 -89
-275 0 -59 21 -65 123 -41 46 11 110 31 142 45 31 15 59 26 62 26 2 0 -4 -14
-13 -32 -26 -50 -63 -166 -70 -219 -8 -58 5 -79 49 -79 53 0 185 41 272 85
l85 42 5 -36 c14 -93 57 -246 93 -329 69 -160 156 -292 192 -292 67 0 237 352
275 567 8 47 15 87 15 88 0 1 38 -17 85 -40 46 -24 120 -52 163 -64 125 -33
162 -27 162 30 0 36 -46 191 -71 241 -14 27 -16 39 -7 35 153 -67 277 -99 302
-77 9 7 16 27 16 45 0 51 -46 199 -87 278 -21 40 -39 74 -41 77 -1 3 34 11 78
18 206 30 580 206 580 273 0 77 -385 260 -599 285 -34 4 -60 9 -59 13 2 3 18
35 37 71 73 139 110 302 77 329 -27 23 -147 -7 -304 -76 -9 -4 -7 8 7 35 31
60 73 215 69 254 -3 30 -6 33 -40 36 -54 5 -186 -34 -283 -83 l-85 -42 -5 36
c-30 204 -139 469 -241 590 -34 40 -56 39 -92 -5z m120 -225 c65 -128 102
-247 120 -380 l12 -90 -41 -42 c-23 -23 -59 -69 -80 -103 l-39 -61 -1 176 c-1
105 -8 221 -18 286 -23 155 -27 155 -50 0 -10 -67 -17 -180 -17 -286 l-2 -177
-39 62 c-21 33 -57 80 -80 103 l-40 42 11 95 c12 99 47 221 89 316 41 93 94
181 106 177 7 -2 38 -55 69 -118z m-594 -393 c177 -61 313 -173 390 -323 23
-44 42 -85 42 -90 0 -5 -40 29 -88 76 -83 80 -196 161 -208 148 -16 -16 110
-184 192 -256 59 -51 36 -49 -66 6 -125 68 -213 159 -275 288 -29 61 -69 175
-61 175 1 0 35 -11 74 -24z m1105 -28 c-41 -141 -132 -278 -235 -353 -60 -45
-186 -111 -194 -102 -2 2 15 20 39 40 70 57 209 239 194 253 -17 17 -156 -86
-245 -180 -68 -73 -68 -65 -4 59 47 91 163 208 252 255 56 29 182 79 202 80 4
0 0 -24 -9 -52z m-1315 -228 c167 -64 284 -167 359 -313 51 -102 47 -103 -50
-11 -86 81 -201 164 -212 152 -12 -11 84 -140 163 -221 90 -91 89 -96 -15 -44
-115 59 -210 151 -276 267 -21 37 -77 180 -77 196 0 10 36 2 108 -26z m1567 8
c-64 -209 -172 -350 -334 -436 -113 -61 -122 -59 -51 10 36 35 82 83 101 108
47 59 94 140 81 140 -25 0 -163 -105 -230 -174 -79 -81 -82 -75 -24 39 48 93
172 217 262 263 68 34 166 71 188 72 9 0 11 -7 7 -22z m-1052 -313 c167 -73
273 -69 481 20 17 7 18 6 11 -11 -36 -81 -76 -223 -76 -267 0 -51 39 -194 68
-250 8 -16 13 -31 10 -33 -2 -2 -29 7 -60 20 -73 33 -164 56 -218 56 -47 0
-140 -24 -226 -59 -29 -11 -53 -18 -53 -16 0 3 11 31 24 63 39 93 59 181 53
243 -4 46 -40 166 -72 242 -9 22 -8 22 58 -8z m1213 -101 c103 -29 200 -71
286 -121 73 -43 75 -39 -77 -113 -150 -73 -313 -119 -421 -120 -42 0 -55 5
-75 26 -13 14 -57 48 -97 75 l-74 49 134 0 c180 0 461 31 443 48 -15 16 -182
33 -368 39 l-208 6 63 42 c35 24 80 58 102 77 l39 34 83 -8 c45 -5 122 -20
170 -34z m-1683 -8 c29 -24 74 -57 101 -73 l48 -30 -203 -6 c-211 -6 -393 -27
-376 -43 15 -15 206 -36 379 -41 l197 -6 -59 -38 c-32 -20 -77 -54 -99 -75
l-42 -37 -77 6 c-134 11 -310 69 -458 152 -79 44 -81 40 56 110 152 76 309
123 423 124 55 1 62 -2 110 -43z m254 -277 c-78 -68 -229 -269 -201 -269 24 0
143 88 216 160 93 90 97 87 40 -25 -51 -99 -162 -209 -267 -262 -82 -41 -183
-79 -191 -70 -8 8 52 165 87 223 57 97 152 184 258 238 51 25 96 46 100 46 3
-1 -15 -19 -42 -41z m943 -15 c136 -71 240 -196 299 -359 17 -48 30 -90 27
-92 -8 -9 -109 29 -191 70 -105 53 -216 163 -267 262 -57 112 -53 115 40 25
73 -72 192 -160 216 -160 28 0 -122 200 -201 269 -42 36 -44 40 -18 31 16 -6
59 -27 95 -46z m-749 -282 c-80 -83 -161 -196 -148 -208 16 -16 184 110 256
192 51 59 49 38 -8 -71 -43 -83 -150 -194 -234 -244 -50 -30 -217 -95 -224
-87 -6 6 48 150 79 208 50 95 164 205 267 256 46 23 86 42 90 42 4 0 -31 -40
-78 -88z m504 39 c85 -44 195 -150 246 -238 41 -70 87 -198 76 -210 -12 -11
-140 35 -210 76 -88 51 -194 161 -238 246 -60 114 -55 117 39 26 84 -82 196
-161 209 -148 13 14 -67 125 -149 209 -93 95 -90 100 27 39z m-308 -328 c1
-106 8 -222 18 -288 23 -155 27 -155 50 0 10 67 17 180 17 287 l2 177 43 -67
c24 -37 60 -84 80 -104 l37 -38 -12 -89 c-7 -49 -24 -129 -37 -178 -31 -107
-134 -318 -155 -318 -22 0 -124 212 -155 318 -14 49 -30 129 -37 177 l-11 88
47 53 c25 28 61 76 79 105 17 30 32 54 32 54 1 0 2 -80 2 -177z"/>
</g>
<g id="pins" style="display:none">
  <circle id="pinL" cx="10%" cy="50%" r="3" fill="red" stroke="black"/>
  <circle id="pinR" cx="90%" cy="50%" r="3" fill="red" stroke="black"/>
  <!-- etc. -->
</g>

  
</svg>
