<?xml version="1.0" standalone="no"?>
<!DOCTYPE svg PUBLIC "-//W3C//DTD SVG 20010904//EN"
 "http://www.w3.org/TR/2001/REC-SVG-20010904/DTD/svg10.dtd">
<svg version="1.0" xmlns="http://www.w3.org/2000/svg"
 width="300.000000pt" height="156.000000pt" viewBox="0 0 300.000000 156.000000"
 preserveAspectRatio="xMidYMid meet">
<metadata>
Created by potrace 1.10, written by Peter Selinger 2001-2011
</metadata>
<g transform="translate(0.000000,156.000000) scale(0.100000,-0.100000)"
fill="#000000" stroke="none">
<path d="M1418 1443 c-41 -48 -49 -99 -22 -161 14 -35 14 -38 -7 -54 -31 -26
-91 -23 -117 5 -28 30 -28 42 0 23 29 -20 34 -20 58 4 61 61 -34 134 -103 80
-14 -11 -28 -33 -32 -49 l-6 -29 -79 5 c-72 5 -84 3 -134 -21 -34 -17 -76 -50
-108 -86 l-53 -58 -28 24 c-56 48 -154 29 -199 -39 l-21 -33 -44 44 c-24 24
-49 41 -56 39 -8 -2 -12 -24 -11 -58 l1 -55 -54 18 c-51 18 -59 18 -108 3 -91
-26 -138 -94 -121 -177 3 -18 13 -40 22 -49 15 -17 15 -21 -5 -52 -79 -129 74
-269 232 -213 l37 14 -6 -34 c-3 -19 -3 -45 0 -59 6 -25 7 -25 36 -10 17 9 40
31 52 49 l23 34 20 -35 c40 -70 132 -94 196 -50 l34 24 55 -57 c31 -32 75 -67
99 -79 52 -27 132 -37 182 -23 36 10 37 9 48 -28 12 -39 46 -70 79 -70 29 0
72 38 72 64 0 42 -51 71 -78 44 -20 -20 -23 -2 -3 23 25 31 91 33 121 3 20
-19 20 -22 4 -59 -22 -54 -13 -110 24 -148 25 -25 33 -27 51 -18 47 26 65 109
36 177 -14 34 -14 35 18 54 18 11 37 20 44 20 25 0 62 -20 72 -39 10 -18 9
-18 -20 -8 -28 11 -33 10 -50 -12 -10 -13 -19 -30 -19 -38 0 -22 47 -63 73
-63 36 0 75 36 83 75 6 32 8 34 33 27 14 -4 53 -7 86 -6 88 1 173 50 236 137
26 36 28 37 41 18 48 -68 178 -46 219 37 l17 33 20 -33 c11 -18 34 -41 51 -51
28 -17 32 -17 37 -2 4 9 4 35 2 59 l-5 44 44 -15 c87 -30 187 0 227 68 21 36
20 107 -2 144 -18 29 -18 31 0 60 24 40 23 111 -2 152 -37 61 -130 91 -207 68
-26 -8 -50 -15 -53 -15 -3 0 -3 25 -2 55 2 30 1 55 -3 55 -19 0 -66 -34 -85
-61 l-22 -30 -18 29 c-32 52 -67 72 -126 72 -41 0 -59 -5 -80 -24 l-28 -23
-53 58 c-69 74 -137 109 -214 109 -32 0 -69 -4 -83 -10 -23 -9 -26 -7 -26 14
0 14 -12 39 -26 56 -22 26 -33 31 -62 28 -47 -4 -81 -46 -64 -82 15 -33 48
-42 73 -20 27 25 24 2 -4 -24 -29 -27 -83 -29 -115 -4 -22 17 -22 19 -7 55 21
51 19 98 -8 138 -26 39 -56 48 -79 22z m42 -93 c0 -16 -4 -30 -10 -30 -11 0
-14 43 -3 53 11 12 13 8 13 -23z m-393 -161 c-42 -22 -77 -71 -77 -108 0 -19
-4 -22 -22 -17 -13 4 -35 9 -50 12 -16 4 -28 10 -28 15 0 14 73 80 110 100 19
10 51 18 70 18 l35 0 -38 -20z m826 6 c38 -16 117 -85 117 -102 0 -12 -79 -35
-92 -27 -4 3 -8 16 -8 29 0 30 -40 77 -82 98 l-33 17 31 0 c17 0 48 -7 67 -15z
m-427 -65 c-13 -44 -14 -44 -23 -20 -23 58 -24 68 -6 79 13 7 22 6 30 -2 10
-10 10 -22 -1 -57z m-261 10 c15 -6 44 -25 66 -43 38 -32 51 -51 26 -41 -7 2
-35 -2 -62 -10 -48 -15 -49 -15 -71 9 -36 40 -94 26 -94 -21 0 -14 -4 -22 -10
-19 -5 3 -10 23 -10 44 0 70 77 111 155 81z m169 -16 c9 -36 4 -38 -28 -13
-21 17 -25 24 -14 30 23 15 36 10 42 -17z m194 18 c9 -6 4 -16 -18 -37 -31
-30 -37 -24 -20 19 10 27 17 31 38 18z m236 -3 c37 -17 59 -70 44 -106 l-12
-28 -4 25 c-5 34 -20 50 -48 50 -21 0 -48 -19 -56 -39 -2 -6 -26 -4 -58 5 -30
8 -62 12 -70 8 -26 -9 51 64 84 80 37 19 86 20 120 5z m-1060 -57 c2 -4 -5 -9
-16 -9 -54 -4 -46 -103 8 -103 9 0 14 -11 14 -33 0 -18 9 -49 19 -70 l19 -37
-25 0 c-55 0 -125 61 -138 121 -10 43 2 96 27 119 22 20 82 28 92 12z m1491 2
c23 -9 45 -57 45 -99 0 -79 -55 -142 -131 -152 l-40 -6 20 34 c12 19 21 51 21
72 0 26 4 37 15 37 19 0 55 36 55 55 0 22 -39 57 -56 51 -9 -3 -12 -1 -9 4 7
11 55 13 80 4z m-1233 -113 c25 -16 48 -33 52 -39 10 -16 -70 -80 -109 -88
-87 -16 -166 70 -120 132 14 19 14 19 9 -1 -7 -28 18 -57 49 -57 37 0 57 19
57 53 0 36 5 36 62 0z m958 7 c0 -29 9 -42 38 -57 19 -10 28 -10 48 4 13 8 24
25 24 38 0 18 2 19 10 7 14 -22 12 -63 -4 -86 -8 -11 -33 -26 -55 -34 -54 -17
-105 -3 -149 43 -36 37 -37 34 32 81 47 32 56 32 56 4z m-1538 -4 c17 -9 63
-46 102 -83 39 -36 82 -73 96 -82 l25 -16 -33 -17 c-18 -9 -63 -45 -100 -80
-78 -74 -117 -96 -167 -96 -89 0 -146 78 -99 136 13 16 15 16 10 2 -8 -26 4
-48 31 -59 51 -19 96 38 70 90 -12 23 -11 32 2 59 14 30 13 34 -6 60 -27 36
-67 41 -88 9 -8 -13 -13 -33 -9 -43 5 -18 5 -18 -10 0 -25 31 -20 74 13 107
25 24 37 29 81 29 28 0 65 -7 82 -16z m949 -13 c34 -34 40 -90 12 -112 -15
-12 -16 -12 -10 5 10 26 -18 66 -47 66 -37 0 -59 -33 -52 -77 7 -46 7 -47 0
-99 -6 -43 2 -56 43 -68 31 -10 67 27 57 57 -6 19 -5 20 10 8 18 -15 21 -63 6
-92 -26 -47 -117 -63 -177 -31 -17 9 -69 53 -115 97 l-83 81 88 84 c99 96 122
109 190 110 41 0 53 -5 78 -29z m328 8 c19 -11 69 -55 110 -98 l76 -76 -85
-81 c-96 -91 -132 -114 -186 -114 -80 0 -136 72 -102 131 13 24 13 24 16 -9 2
-23 10 -36 27 -44 50 -23 103 48 72 96 -11 17 -11 25 0 46 17 34 16 43 -8 74
-36 46 -89 30 -89 -28 -1 -29 -1 -30 -15 -12 -25 33 -19 75 16 107 26 24 40
29 83 29 34 0 62 -7 85 -21z m940 -5 c35 -29 42 -76 16 -110 -13 -18 -14 -18
-8 4 7 27 -21 62 -50 62 -11 0 -29 -7 -39 -17 -19 -17 -25 -72 -8 -89 6 -6 6
-20 -2 -40 -25 -67 26 -124 79 -88 18 11 24 22 20 40 -3 20 -2 22 9 13 16 -13
18 -62 4 -90 -14 -25 -62 -49 -100 -49 -51 0 -102 28 -165 90 -33 32 -77 69
-97 83 l-38 25 33 20 c18 10 63 47 99 80 81 76 110 92 170 92 35 0 54 -6 77
-26z m-1171 -184 c-16 -25 -20 -25 -35 -1 -9 15 -8 23 4 40 l15 22 14 -20 c12
-17 12 -24 2 -41z m-678 -15 c0 -2 -9 -19 -20 -37 -11 -18 -20 -49 -20 -68 0
-30 -4 -37 -30 -47 -24 -9 -30 -17 -30 -40 0 -33 16 -53 43 -53 10 0 15 -4 12
-10 -11 -18 -63 -11 -90 13 -55 47 -40 161 27 209 33 23 108 46 108 33z m1415
-24 c47 -27 75 -76 75 -133 0 -41 -5 -54 -29 -79 -29 -29 -64 -37 -89 -20 -10
6 -5 10 16 14 19 4 33 14 37 27 8 27 -19 70 -44 70 -15 0 -19 10 -23 50 -3 28
-12 58 -22 68 -9 10 -16 22 -16 26 0 11 61 -4 95 -23z m-1188 -28 c20 -16 38
-34 40 -40 4 -11 -92 -83 -109 -83 -5 0 -8 12 -8 27 0 34 -26 63 -56 63 -27 0
-59 -42 -49 -62 4 -7 -1 -4 -9 6 -19 24 -20 43 -2 75 33 60 129 67 193 14z
m1030 17 c36 -22 49 -56 37 -97 -6 -24 -8 -25 -12 -8 -6 28 -32 55 -54 55 -26
0 -58 -36 -58 -65 0 -14 -3 -25 -8 -25 -9 0 -46 24 -84 56 l-28 23 32 31 c17
18 41 36 52 40 36 15 90 11 123 -10z m-953 -206 c19 -12 28 -12 50 -3 14 7 26
19 26 27 0 11 7 13 33 7 17 -4 50 -10 71 -14 l39 -6 -38 -34 c-21 -18 -54 -40
-73 -48 -71 -30 -152 13 -152 80 0 39 13 59 18 28 2 -12 14 -28 26 -37z m761
-4 c-7 -30 -47 -68 -81 -76 -39 -10 -94 11 -144 55 l-45 40 30 1 c17 0 47 5
67 10 33 10 39 8 62 -15 14 -14 30 -25 36 -25 27 0 50 22 50 48 1 26 1 26 16
7 9 -12 13 -30 9 -45z m-865 -12 c0 -34 41 -86 85 -108 l40 -20 -34 0 c-47 0
-109 32 -156 80 -21 22 -37 41 -34 43 12 10 85 33 92 30 4 -2 7 -14 7 -25z
m988 -46 c-50 -51 -108 -82 -158 -82 l-35 0 41 19 c47 21 70 50 84 102 l10 36
50 -16 50 -15 -42 -44z m-604 14 c-5 -20 -12 -26 -32 -26 l-26 0 29 30 c33 34
39 33 29 -4z m190 -24 c-30 -4 -29 -5 -38 31 l-7 28 36 -28 35 -28 -26 -3z
m-96 9 c15 -49 15 -48 -4 -55 -30 -12 -42 10 -31 54 6 22 14 40 17 40 4 0 12
-17 18 -39z m-8 -217 c0 -21 -4 -33 -10 -29 -17 10 -11 65 7 65 2 0 3 -16 3
-36z"/>
</g>
</svg>
