

<svg id="svg" xmlns="http://www.w3.org/2000/svg" xmlns:xlink="http://www.w3.org/1999/xlink" width="400" height="120.90032154340835" viewBox="0, 0, 400,120.90032154340835"><g id="svgg"><path id="path0" d="M139.702 2.972 C 138.027 4.697,136.367 6.600,136.013 7.201 C 135.449 8.157,134.931 8.207,131.833 7.608 C 127.417 6.753,113.024 7.398,107.717 8.688 C 102.245 10.018,101.940 9.950,100.656 7.103 C 97.262 -0.425,87.963 -1.261,81.517 5.381 L 79.057 7.916 77.310 6.253 C 73.247 2.385,65.094 2.801,60.165 7.128 L 57.945 9.077 54.857 8.014 C 40.026 2.906,23.383 11.976,22.085 25.874 L 21.704 29.954 18.888 31.119 C 12.752 33.657,5.788 42.553,5.788 47.854 C 5.788 49.096,4.942 51.033,3.537 53.009 C 0.320 57.534,0.286 62.693,3.442 67.383 C 4.628 69.145,5.757 71.774,5.952 73.225 C 6.773 79.346,12.283 86.407,18.516 89.327 L 21.692 90.814 22.073 94.898 C 23.302 108.057,39.224 117.065,53.951 112.932 L 57.717 111.876 61.021 114.099 C 66.502 117.788,72.905 117.994,77.078 114.616 L 79.336 112.789 82.272 115.820 C 88.193 121.931,98.936 120.536,100.721 113.425 C 101.304 111.101,102.616 110.713,106.656 111.671 C 111.791 112.887,126.342 113.798,130.547 113.166 C 135.836 112.371,136.164 112.416,136.561 113.997 C 137.716 118.599,143.719 121.224,150.759 120.205 C 152.906 119.894,156.046 119.634,157.738 119.627 C 163.336 119.604,169.583 115.384,172.019 109.982 C 173.446 106.817,173.308 106.817,176.849 109.994 C 189.551 121.391,208.399 121.492,222.217 110.236 C 224.206 108.616,225.891 107.387,225.961 107.504 C 226.030 107.621,226.509 108.551,227.024 109.569 C 230.870 117.181,235.440 119.489,247.703 120.012 L 257.060 120.411 259.728 118.001 C 261.196 116.675,262.574 114.882,262.791 114.016 C 263.170 112.509,263.327 112.465,266.481 112.973 C 273.428 114.094,290.927 112.844,296.104 110.858 C 296.711 110.625,297.468 111.372,298.324 113.049 C 302.364 120.969,310.872 122.127,317.467 115.654 C 320.057 113.112,320.216 113.050,321.313 114.147 C 325.357 118.191,334.294 117.828,339.549 113.407 L 341.437 111.819 345.298 112.902 C 360.590 117.193,377.492 107.043,377.492 93.569 C 377.492 90.990,377.596 90.857,380.747 89.433 C 387.078 86.572,392.124 79.976,393.415 72.874 C 393.792 70.800,394.766 68.689,396.128 66.993 C 399.525 62.767,399.125 56.474,395.181 52.090 C 394.307 51.118,393.577 49.247,393.334 47.359 C 392.517 41.008,386.688 33.683,380.391 31.094 L 377.497 29.904 377.494 26.630 C 377.484 13.190,358.426 2.524,344.107 7.946 C 341.369 8.982,341.227 8.975,340.069 7.732 C 335.563 2.895,325.061 2.189,321.193 6.463 C 320.065 7.709,320.007 7.686,317.344 4.907 C 311.342 -1.357,302.072 -0.202,298.660 7.235 C 297.422 9.934,297.202 9.977,291.318 8.678 C 285.547 7.405,273.940 6.835,268.270 7.548 C 263.807 8.109,263.522 8.069,263.026 6.804 C 260.735 0.969,257.240 -0.088,243.087 0.775 C 235.683 1.226,229.286 5.302,227.006 11.022 C 226.532 12.211,226.061 13.293,225.959 13.426 C 225.857 13.560,224.258 12.307,222.406 10.641 C 209.758 -0.731,189.623 -0.752,177.004 10.594 L 173.759 13.511 171.994 10.453 C 168.466 4.339,163.612 1.183,157.235 0.855 C 155.113 0.745,150.985 0.471,148.062 0.245 L 142.748 -0.166 139.702 2.972 M152.960 13.191 C 156.315 15.109,156.043 15.085,156.456 13.505 C 157.318 10.211,161.428 13.480,162.975 18.689 C 164.810 24.871,164.411 28.296,161.853 28.296 C 155.315 28.296,146.095 22.550,150.141 20.997 C 150.914 20.700,150.738 19.973,149.176 17.004 C 146.113 11.180,147.317 9.966,152.960 13.191 M252.090 12.239 C 252.090 13.416,250.144 17.602,249.019 18.845 C 247.991 19.981,247.993 20.100,249.044 20.869 C 252.385 23.312,244.399 28.296,237.143 28.296 L 234.648 28.296 235.059 25.241 C 235.603 21.204,237.111 16.008,238.107 14.735 C 240.025 12.287,243.087 11.751,243.087 13.864 C 243.087 15.071,243.120 15.064,246.397 13.191 C 249.283 11.541,252.090 11.072,252.090 12.239 M90.675 15.142 C 90.675 20.364,98.471 22.077,111.224 19.658 C 134.569 15.230,150.874 24.007,149.699 40.372 C 148.509 56.953,131.058 62.994,118.006 51.342 C 111.524 45.555,109.066 44.767,108.805 48.392 C 108.540 52.079,105.790 53.116,103.186 50.512 C 98.539 45.864,107.205 40.543,114.868 43.339 C 116.135 43.801,116.252 43.581,116.531 40.219 C 117.665 26.544,138.264 25.849,138.264 39.485 C 138.264 45.818,133.193 50.114,128.979 47.352 C 124.920 44.692,126.604 37.589,130.765 39.816 C 133.738 41.407,134.965 38.502,132.402 35.939 C 131.254 34.791,130.488 34.626,127.471 34.876 C 114.979 35.912,119.614 53.376,132.381 53.376 C 145.140 53.376,149.832 36.991,139.784 27.526 C 132.139 20.326,115.335 23.293,113.867 32.102 C 113.340 35.261,112.048 35.311,110.750 32.222 C 109.386 28.975,110.026 28.871,103.537 33.399 C 80.909 49.190,68.112 59.443,69.078 61.007 C 69.857 62.267,89.918 77.888,96.237 82.155 C 96.892 82.597,100.156 84.836,103.491 87.131 C 109.787 91.465,110.076 91.553,110.429 89.245 C 111.031 85.298,113.796 85.084,113.817 88.982 C 113.850 95.336,128.407 99.598,136.239 95.548 C 150.074 88.393,147.272 67.367,132.476 67.305 C 124.605 67.272,118.780 73.769,120.508 80.653 C 121.524 84.702,128.111 87.496,131.464 85.299 C 134.692 83.184,134.163 79.411,130.849 80.921 C 127.027 82.662,124.927 77.520,128.086 74.157 C 133.483 68.413,141.255 78.524,137.309 86.155 C 132.522 95.412,116.399 90.478,116.399 79.756 C 116.399 77.980,116.289 76.527,116.156 76.527 C 116.022 76.527,114.865 76.965,113.585 77.500 C 107.649 79.980,100.417 75.885,102.244 71.079 C 103.593 67.530,108.472 68.236,109.085 72.069 C 109.307 73.460,109.606 74.598,109.749 74.598 C 111.008 74.598,114.678 72.373,117.042 70.177 C 131.656 56.599,151.197 64.378,149.688 83.172 C 148.440 98.725,133.357 105.199,109.168 100.565 C 97.978 98.421,92.271 100.192,90.359 106.401 C 90.007 107.543,89.859 107.485,88.720 105.758 C 86.812 102.863,87.122 101.296,90.072 98.926 C 92.506 96.970,92.605 96.767,91.519 95.962 C 90.399 95.131,90.402 95.062,91.602 94.172 C 93.720 92.603,104.854 93.417,107.213 95.313 C 107.643 95.659,108.329 95.830,108.736 95.695 C 109.143 95.559,108.212 94.617,106.667 93.601 C 101.062 89.916,81.174 74.761,73.379 68.234 C 67.802 63.564,65.147 61.722,64.576 62.125 C 39.755 79.621,27.266 83.781,20.458 76.818 C 15.598 71.848,16.097 64.818,21.434 63.060 C 25.121 61.846,28.939 63.636,28.939 66.580 C 28.939 69.627,24.709 70.483,23.481 67.685 C 22.590 65.654,21.990 65.882,21.511 68.433 C 19.244 80.522,39.506 76.900,58.489 61.823 C 60.568 60.172,60.075 59.606,51.847 54.181 C 36.306 43.933,21.222 41.996,21.222 50.247 C 21.222 53.815,22.502 55.258,23.520 52.838 C 24.474 50.569,25.402 50.328,27.510 51.805 C 30.673 54.020,28.313 57.878,23.794 57.878 C 17.754 57.878,15.092 51.641,18.646 45.814 C 24.374 36.423,40.502 40.749,63.491 57.842 L 65.568 59.386 69.279 55.879 C 71.320 53.950,74.799 50.964,77.010 49.242 C 79.220 47.521,81.026 45.938,81.022 45.725 C 81.011 45.158,76.532 43.221,74.170 42.761 C 72.672 42.470,71.858 41.782,71.086 40.154 C 69.884 37.622,69.432 37.475,67.933 39.132 C 67.087 40.067,65.522 40.410,60.643 40.730 C 56.536 41.000,53.594 41.552,51.964 42.358 C 49.072 43.789,48.761 43.533,49.748 40.537 C 50.620 37.889,53.853 35.514,57.345 34.956 C 60.574 34.440,60.552 34.396,54.855 29.904 C 46.947 23.667,42.397 22.226,38.728 24.795 C 36.712 26.208,36.830 28.296,38.927 28.296 C 41.020 28.296,41.583 29.802,40.249 31.838 C 37.948 35.349,33.441 32.505,33.441 27.543 C 33.441 17.091,50.303 15.106,62.174 24.161 L 64.309 25.789 64.309 23.226 C 64.309 16.376,68.540 12.869,69.899 18.592 C 70.312 20.329,71.426 23.440,72.374 25.505 C 74.175 29.426,74.478 31.119,73.696 32.886 C 73.344 33.681,73.831 34.232,75.683 35.136 C 77.187 35.872,78.210 36.859,78.329 37.693 C 78.436 38.440,79.376 39.869,80.419 40.868 C 81.462 41.867,82.315 43.064,82.315 43.529 C 82.315 44.911,82.639 44.708,94.117 36.146 C 100.182 31.622,106.102 27.249,107.272 26.430 C 109.795 24.662,109.656 24.062,107.018 25.336 C 103.562 27.006,96.133 27.950,93.250 27.086 C 90.597 26.291,89.949 25.319,91.640 24.670 C 93.132 24.097,92.802 23.378,90.353 21.864 C 87.626 20.179,87.007 18.175,88.389 15.503 C 89.641 13.082,90.675 12.918,90.675 15.142 M209.987 15.906 C 215.126 18.525,218.662 22.068,220.600 26.541 L 222.186 30.203 227.191 30.214 C 233.033 30.227,233.138 30.361,233.385 38.083 C 233.431 39.543,234.023 40.117,236.975 41.562 C 253.632 49.718,253.382 71.552,236.543 79.277 C 233.566 80.643,233.441 80.807,233.441 83.356 C 233.441 84.817,233.260 86.917,233.039 88.023 L 232.637 90.032 227.605 90.032 L 222.574 90.032 220.604 94.160 C 212.197 111.775,186.310 111.314,178.363 93.408 L 176.865 90.032 171.712 90.032 L 166.559 90.032 166.550 86.013 C 166.538 81.210,166.425 81.016,162.601 79.188 C 153.081 74.640,148.268 65.007,150.724 55.419 C 152.542 48.323,155.290 45.366,164.952 40.111 C 165.982 39.550,166.260 38.681,166.347 35.738 C 166.513 30.165,166.551 30.125,171.540 30.231 C 173.929 30.281,176.188 30.301,176.559 30.274 C 176.930 30.247,177.583 29.259,178.010 28.079 C 182.419 15.885,198.175 9.887,209.987 15.906 M311.151 15.690 C 312.368 18.187,311.585 20.427,308.955 21.979 C 306.832 23.231,306.760 23.380,307.753 24.477 C 310.828 27.875,298.939 28.596,292.444 25.405 C 289.726 24.069,290.346 25.381,293.408 27.444 C 294.912 28.456,299.580 31.884,303.782 35.061 C 307.984 38.237,312.637 41.704,314.122 42.765 C 318.023 45.553,327.155 53.125,330.695 56.506 L 333.737 59.412 336.482 57.366 C 358.702 40.807,375.054 36.536,380.711 45.814 C 384.005 51.217,381.190 57.878,375.612 57.878 C 371.096 57.878,368.696 53.891,371.935 51.769 C 373.825 50.530,375.451 51.098,375.973 53.180 C 376.543 55.449,378.355 53.574,378.276 50.798 C 378.113 45.083,370.059 43.314,360.901 46.981 C 353.068 50.118,339.192 59.055,339.716 60.627 C 340.483 62.929,356.808 72.440,363.573 74.525 C 372.478 77.271,380.174 74.019,378.092 68.390 C 377.306 66.267,376.288 66.010,375.833 67.819 C 375.134 70.605,370.418 69.528,370.418 66.583 C 370.418 63.480,373.451 61.934,377.437 63.008 C 384.394 64.881,383.375 76.297,376.003 79.063 C 369.056 81.670,356.873 77.429,342.330 67.341 C 338.652 64.789,335.267 62.444,334.810 62.129 C 334.225 61.728,331.644 63.525,326.153 68.156 C 319.314 73.922,317.030 76.288,318.845 75.723 C 319.130 75.635,320.359 76.054,321.578 76.655 C 322.797 77.255,324.585 77.911,325.551 78.111 C 326.634 78.336,327.688 79.211,328.301 80.395 C 329.353 82.430,330.823 82.913,331.398 81.414 C 331.644 80.772,333.558 80.383,338.058 80.061 C 341.841 79.790,345.469 79.135,347.106 78.426 L 349.839 77.243 349.839 79.042 C 349.839 82.183,345.689 85.531,341.797 85.531 C 338.915 85.531,339.596 86.642,345.306 91.258 C 352.758 97.281,356.876 98.516,360.363 95.773 C 362.587 94.024,362.634 91.961,360.450 91.961 C 358.803 91.961,358.370 90.724,359.233 88.477 C 360.545 85.056,365.916 88.920,365.916 93.285 C 365.916 103.159,349.936 105.417,338.366 97.179 C 335.328 95.016,334.891 95.188,334.719 98.615 C 334.479 103.406,329.904 108.354,329.904 103.823 C 329.904 102.867,328.741 99.364,327.320 96.038 C 325.248 91.189,324.872 89.737,325.420 88.712 C 326.276 87.113,325.933 86.550,323.484 85.535 C 322.263 85.030,321.361 84.076,321.059 82.973 C 320.795 82.006,319.616 80.125,318.439 78.792 L 316.299 76.369 313.818 78.217 C 312.453 79.233,307.374 82.958,302.532 86.495 C 292.561 93.779,289.622 96.200,291.640 95.464 C 300.476 92.246,311.920 92.728,307.717 96.142 C 306.782 96.902,306.657 97.280,307.258 97.530 C 311.221 99.170,312.616 102.210,310.916 105.498 C 309.734 107.783,308.682 107.960,308.682 105.875 C 308.682 100.618,301.129 98.482,290.032 100.599 C 265.898 105.205,250.792 98.544,249.658 82.795 C 248.346 64.594,267.828 56.755,281.994 69.784 C 287.771 75.097,290.417 75.754,290.793 71.967 C 291.034 69.533,292.430 68.466,294.646 69.022 C 298.982 70.110,297.782 76.055,292.893 77.707 C 290.498 78.516,289.181 78.423,284.276 77.100 C 283.575 76.911,283.218 77.804,282.834 80.707 C 280.988 94.660,261.105 94.749,261.096 80.804 C 261.091 74.246,267.563 70.004,271.358 74.076 C 274.363 77.302,272.476 82.547,268.850 81.045 C 265.407 79.619,264.427 81.849,267.254 84.676 C 271.246 88.667,279.100 84.510,279.100 78.406 C 279.100 67.963,264.945 63.289,257.679 71.332 C 249.229 80.684,255.967 95.890,269.025 96.938 C 277.651 97.631,285.515 93.854,285.540 89.006 C 285.562 84.865,287.756 85.214,289.155 89.582 L 289.732 91.383 293.258 88.908 C 304.269 81.178,318.839 70.722,320.041 69.687 C 320.806 69.028,323.482 66.762,325.989 64.651 C 328.496 62.540,330.547 60.512,330.547 60.144 C 330.547 59.514,310.468 43.087,309.698 43.087 C 309.501 43.087,307.672 41.835,305.634 40.305 C 299.779 35.909,290.302 29.582,289.572 29.582 C 289.206 29.582,288.907 30.355,288.907 31.300 C 288.907 33.030,287.099 34.977,286.079 34.347 C 285.777 34.160,285.531 33.263,285.531 32.353 C 285.531 22.386,265.962 20.229,257.964 29.315 C 248.957 39.548,255.977 54.688,269.015 53.149 C 280.654 51.775,283.187 35.778,271.907 34.893 C 268.248 34.606,266.655 35.341,265.996 37.621 C 265.342 39.884,266.504 40.934,268.489 39.871 C 272.383 37.787,274.299 44.384,270.601 47.145 C 264.289 51.858,257.446 39.079,263.063 33.067 C 269.871 25.780,282.958 30.898,282.958 40.847 C 282.958 43.654,283.038 43.788,284.405 43.291 C 291.415 40.744,299.865 45.228,296.819 49.877 C 294.648 53.191,290.675 52.320,290.675 48.530 C 290.675 44.645,287.857 45.508,280.917 51.520 C 269.539 61.377,255.671 58.841,250.877 46.028 C 243.955 27.528,261.810 14.724,287.747 19.589 C 300.447 21.971,308.682 20.141,308.682 14.939 C 308.682 12.950,310.013 13.355,311.151 15.690 M333.168 17.094 C 334.381 18.386,334.727 19.454,334.727 21.917 C 334.727 25.739,334.354 25.718,340.461 22.237 C 350.556 16.484,360.635 16.974,364.861 23.424 C 367.798 27.907,363.539 35.895,359.845 32.829 C 358.123 31.400,358.538 28.296,360.450 28.296 C 362.528 28.296,362.634 26.200,360.629 24.795 C 356.827 22.133,351.135 24.126,343.497 30.795 L 339.406 34.367 342.215 35.083 C 347.455 36.420,349.839 38.558,349.839 41.922 L 349.839 43.687 347.736 42.445 C 346.232 41.558,343.803 41.082,339.215 40.777 C 334.029 40.431,332.519 40.096,331.346 39.029 C 329.775 37.601,328.654 38.291,327.627 41.318 C 327.386 42.026,326.293 42.595,324.673 42.854 C 323.258 43.080,321.667 43.698,321.138 44.227 C 320.328 45.038,319.928 45.057,318.609 44.351 C 316.628 43.291,316.643 43.137,318.928 40.981 C 319.966 40.001,320.906 38.555,321.018 37.767 C 321.141 36.901,322.069 35.911,323.363 35.265 C 326.189 33.854,326.177 33.872,325.460 31.985 C 324.958 30.664,325.263 29.382,327.051 25.304 C 328.268 22.528,329.445 19.172,329.666 17.846 C 330.139 15.010,331.030 14.818,333.168 17.094 M194.421 20.823 C 188.073 22.899,184.582 26.402,183.128 32.154 L 182.234 35.691 177.773 35.738 L 173.312 35.784 173.123 40.034 C 172.935 44.241,172.913 44.288,170.872 44.729 C 164.919 46.016,158.782 50.853,157.571 55.213 C 154.885 64.886,160.327 73.706,170.247 75.758 L 172.669 76.259 172.859 80.573 L 173.049 84.887 177.741 84.887 L 182.432 84.887 183.249 88.538 C 187.124 105.852,216.720 103.374,216.720 85.735 C 216.720 85.109,217.980 84.887,221.543 84.887 L 226.367 84.887 226.367 80.538 L 226.367 76.189 229.453 75.455 C 247.161 71.249,247.158 49.405,229.449 44.989 L 226.422 44.234 226.234 40.022 L 226.045 35.811 222.138 35.858 C 217.313 35.917,217.264 35.881,215.871 31.367 C 213.208 22.735,203.366 17.896,194.421 20.823 M202.842 31.853 C 203.125 32.983,203.741 33.410,205.308 33.561 C 209.173 33.933,207.489 41.918,201.965 49.415 C 199.457 52.817,199.039 52.576,194.903 45.347 C 191.126 38.745,190.774 33.877,194.051 33.561 C 195.286 33.442,196.141 33.001,196.141 32.484 C 196.141 32.003,196.903 30.705,197.834 29.599 L 199.526 27.588 200.995 28.967 C 201.803 29.726,202.634 31.025,202.842 31.853 M190.808 45.145 C 195.602 49.791,197.738 57.193,193.812 55.553 C 186.608 52.543,179.717 44.321,181.704 41.105 C 182.290 40.158,188.511 42.918,190.808 45.145 M218.006 41.674 C 218.006 45.784,213.271 51.589,207.410 54.661 C 202.994 56.977,202.603 56.648,204.268 52.018 C 206.193 46.665,210.267 42.686,215.430 41.115 C 217.844 40.381,218.006 40.416,218.006 41.674 M96.208 51.112 C 98.918 52.244,112.335 55.946,113.735 55.948 C 114.346 55.948,114.488 55.465,114.205 54.341 C 113.687 52.277,113.837 52.303,117.856 54.955 C 119.707 56.177,122.886 57.809,124.920 58.581 C 129.466 60.308,129.499 60.658,125.241 62.044 C 123.384 62.649,120.204 64.274,118.174 65.655 C 113.945 68.534,113.589 68.643,114.146 66.887 C 114.370 66.183,114.391 65.344,114.193 65.024 C 113.432 63.793,97.921 68.528,91.784 71.865 C 89.335 73.196,88.552 73.372,87.925 72.732 C 85.611 70.372,105.736 61.093,113.171 61.093 C 116.192 61.093,114.031 60.011,107.845 58.427 C 97.167 55.691,85.460 49.528,87.756 47.849 C 88.715 47.148,89.263 47.256,91.312 48.549 C 92.644 49.390,94.847 50.543,96.208 51.112 M312.194 48.192 C 313.447 50.218,298.549 56.873,286.495 59.671 C 283.600 60.343,283.648 60.368,291.640 62.283 C 300.957 64.516,313.205 70.930,311.489 72.677 C 310.939 73.238,309.436 72.784,305.380 70.833 C 299.463 67.988,285.773 64.039,285.176 65.005 C 284.972 65.336,284.987 66.183,285.211 66.887 C 285.689 68.392,284.745 68.580,283.605 67.207 C 282.685 66.099,276.365 62.379,275.402 62.379 C 275.046 62.379,273.635 61.907,272.265 61.329 L 269.775 60.278 273.792 58.766 C 277.897 57.221,282.523 54.601,283.264 53.402 C 284.104 52.043,285.358 52.703,285.045 54.341 C 284.659 56.361,284.928 56.360,292.605 54.328 C 299.281 52.560,304.715 50.555,307.717 48.752 C 309.835 47.480,311.616 47.257,312.194 48.192 M89.711 55.092 C 90.772 55.796,93.593 57.210,95.981 58.233 C 100.087 59.993,101.415 61.093,99.431 61.093 C 97.969 61.093,88.560 66.058,86.684 67.819 C 83.992 70.347,83.303 69.281,85.226 65.563 C 85.953 64.157,86.001 63.666,85.412 63.666 C 84.231 63.666,77.170 60.844,77.170 60.372 C 77.170 59.811,83.270 57.235,84.599 57.235 C 85.414 57.235,85.579 56.878,85.269 55.788 C 85.042 54.992,84.679 53.473,84.461 52.412 L 84.066 50.482 85.924 52.147 C 86.945 53.063,88.650 54.388,89.711 55.092 M314.228 54.695 C 313.503 56.147,313.449 56.714,314.020 56.875 C 323.221 59.475,323.807 60.592,317.093 62.738 L 313.387 63.922 314.350 66.373 C 315.588 69.523,315.023 70.037,312.743 67.836 C 311.747 66.875,308.188 64.787,304.834 63.195 L 298.736 60.301 304.513 57.559 C 307.690 56.051,311.302 53.941,312.540 52.871 C 315.111 50.647,315.849 51.445,314.228 54.695 M182.333 54.930 C 191.105 59.265,191.595 60.072,187.195 62.923 C 178.650 68.460,164.523 70.754,170.740 65.595 C 172.181 64.399,171.909 63.666,170.023 63.666 C 168.290 63.666,163.344 61.229,163.344 60.376 C 163.344 59.272,167.411 57.106,169.482 57.106 C 172.033 57.106,172.051 57.075,170.684 54.990 C 168.192 51.185,174.689 51.152,182.333 54.930 M229.278 52.761 C 229.506 53.131,229.249 54.110,228.706 54.938 C 227.507 56.769,227.884 57.235,230.567 57.235 C 232.526 57.235,236.013 59.290,236.013 60.444 C 236.013 61.468,231.683 63.666,229.667 63.666 C 227.475 63.666,227.107 64.342,228.617 65.595 C 229.916 66.673,229.837 68.020,228.457 68.305 C 224.826 69.054,214.814 65.380,210.297 61.641 L 208.696 60.317 210.616 58.786 C 216.273 54.275,227.895 50.523,229.278 52.761 M45.016 55.561 C 45.016 57.370,45.314 57.701,47.702 58.541 C 51.920 60.024,51.598 60.867,46.141 62.621 C 45.393 62.861,45.016 63.642,45.016 64.952 C 45.016 68.640,41.906 68.200,35.825 63.653 C 31.304 60.272,31.304 60.091,35.845 56.913 C 42.430 52.304,45.016 51.922,45.016 55.561 M363.078 56.672 C 368.813 60.636,368.795 60.083,363.306 63.845 C 356.706 68.367,354.247 68.535,354.083 64.474 C 354.033 63.251,353.473 62.714,351.560 62.057 C 347.538 60.675,347.610 59.691,351.827 58.427 C 353.825 57.829,354.381 57.355,354.301 56.320 C 354.102 53.731,354.346 53.376,356.326 53.376 C 357.665 53.376,359.861 54.448,363.078 56.672 M18.321 58.922 C 19.392 60.556,19.378 60.657,17.872 62.163 L 16.317 63.718 14.589 62.359 C 12.485 60.704,12.438 60.046,14.309 58.485 C 16.265 56.853,17.019 56.935,18.321 58.922 M384.910 58.273 C 386.979 59.629,386.912 60.709,384.658 62.314 L 382.820 63.622 381.388 62.097 C 378.813 59.356,381.730 56.190,384.910 58.273 M196.127 65.434 C 196.059 70.863,187.809 79.716,182.797 79.737 C 178.046 79.757,185.614 68.679,192.482 65.560 C 195.824 64.043,196.145 64.032,196.127 65.434 M206.875 65.560 C 213.414 68.529,221.342 79.761,216.881 79.736 C 212.178 79.710,206.329 74.401,203.960 68.006 C 202.416 63.838,202.650 63.642,206.875 65.560 M202.356 71.866 C 208.178 80.603,209.445 88.173,204.910 87.132 C 203.798 86.877,203.293 87.336,202.251 89.550 C 200.523 93.222,198.833 93.221,197.106 89.547 C 196.112 87.431,195.536 86.879,194.567 87.109 C 189.371 88.342,191.725 77.743,198.308 70.257 C 199.996 68.339,200.009 68.344,202.356 71.866 M81.661 76.507 C 82.461 77.013,82.339 77.398,80.898 78.908 C 79.954 79.898,78.878 81.510,78.507 82.492 C 78.137 83.473,76.816 84.876,75.573 85.610 C 74.329 86.344,73.312 87.041,73.312 87.160 C 73.312 87.279,73.582 88.086,73.912 88.954 C 74.382 90.192,74.113 91.374,72.664 94.438 C 71.648 96.587,70.444 99.947,69.989 101.906 C 69.052 105.935,68.894 106.030,66.524 103.991 C 65.169 102.826,64.724 101.735,64.398 98.785 L 63.987 95.054 62.259 96.416 C 51.041 105.261,33.441 103.349,33.441 93.285 C 33.441 88.758,37.512 85.835,40.147 88.470 C 41.975 90.298,40.629 93.102,38.345 92.225 C 36.280 91.433,37.110 94.788,39.298 96.081 C 43.278 98.431,47.100 97.064,55.151 90.409 C 59.673 86.671,60.304 85.531,57.853 85.531 C 53.725 85.531,49.518 81.976,49.518 78.489 C 49.518 77.116,50.445 76.713,51.115 77.796 C 51.716 78.769,55.752 79.646,61.736 80.106 C 65.398 80.387,67.601 80.874,68.410 81.581 C 69.535 82.565,69.666 82.553,70.339 81.407 C 71.680 79.123,73.304 77.814,74.797 77.814 C 75.613 77.814,76.843 77.389,77.530 76.869 C 78.978 75.774,80.316 75.656,81.661 76.507 M163.987 95.060 C 163.987 102.949,157.936 112.411,156.472 106.812 C 156.166 105.643,156.044 105.659,153.870 107.134 C 152.616 107.985,151.268 108.686,150.875 108.690 C 150.482 108.695,149.464 108.886,148.613 109.113 C 146.561 109.662,147.094 106.391,149.661 102.687 C 151.232 100.420,151.288 100.142,150.291 99.584 C 147.699 98.133,150.791 95.122,156.870 93.176 C 163.114 91.178,163.987 91.409,163.987 95.060 M242.537 93.230 C 248.225 94.996,251.308 97.926,249.264 99.622 C 248.512 100.246,248.665 100.905,250.217 103.720 C 252.239 107.386,252.580 109.325,251.204 109.325 C 249.879 109.325,245.496 107.408,244.212 106.267 C 243.179 105.349,243.087 105.381,243.087 106.653 C 243.087 108.400,240.533 108.566,239.084 106.913 C 236.694 104.187,233.983 94.328,235.119 92.491 C 235.652 91.627,238.188 91.880,242.537 93.230 " stroke="none" fill="#000000" fill-rule="evenodd"></path></g>
<g id="pins" style="display:none">
  <circle id="pinR" cx="90%" cy="50%" r="3" fill="red" stroke="black"/>
  <circle id="pinL" cx="10%" cy="50%" r="3" fill="red" stroke="black"/>
  <!-- etc. -->
</g>

</svg>
