<?xml version="1.0" standalone="no"?>
<!DOCTYPE svg PUBLIC "-//W3C//DTD SVG 20010904//EN"
 "http://www.w3.org/TR/2001/REC-SVG-20010904/DTD/svg10.dtd">
<svg version="1.0" xmlns="http://www.w3.org/2000/svg"
 width="300.000000pt" height="136.000000pt" viewBox="0 0 300.000000 136.000000"
 preserveAspectRatio="xMidYMid meet">
<metadata>
Created by potrace 1.10, written by Peter Selinger 2001-2011
</metadata>
<g transform="translate(0.000000,136.000000) scale(0.100000,-0.100000)"
fill="#000000" stroke="none">
<path d="M1836 1308 c-62 -17 -131 -92 -153 -167 l-18 -60 -26 25 c-32 30 -93
41 -129 22 -13 -7 -34 -27 -45 -44 l-21 -31 -16 28 c-36 62 -125 75 -177 25
l-26 -25 -18 58 c-35 110 -110 171 -212 171 -65 0 -114 -22 -162 -72 -36 -37
-72 -111 -73 -147 l0 -25 -27 26 c-65 61 -155 79 -220 45 -18 -10 -45 -38 -60
-65 -36 -61 -39 -155 -7 -219 22 -45 18 -55 -12 -26 -29 29 -56 102 -53 143 2
22 1 42 -2 45 -10 9 -67 -16 -73 -32 -6 -15 18 -75 50 -123 9 -14 -6 -1 -33
27 -27 29 -54 53 -60 53 -14 0 -63 -39 -63 -50 0 -5 19 -18 43 -29 l42 -19
-72 5 c-111 9 -173 -29 -173 -104 0 -84 47 -119 159 -117 l76 1 -37 -16 c-21
-9 -38 -22 -38 -29 0 -11 56 -52 71 -52 4 0 16 15 29 32 12 18 34 42 48 53
l26 19 -22 -31 c-12 -18 -30 -49 -38 -70 -15 -36 -15 -38 6 -55 12 -10 32 -18
44 -18 19 0 21 6 21 53 0 58 27 121 63 145 l22 14 -20 -45 c-54 -122 -22 -245
77 -296 52 -27 140 -8 200 43 l31 26 7 -39 c8 -50 53 -121 96 -153 74 -55 149
-62 230 -20 42 21 61 39 86 80 17 30 35 71 38 93 l7 39 28 -30 c24 -26 35 -30
78 -30 54 0 96 24 107 61 7 20 8 20 25 -7 41 -62 118 -73 174 -24 l34 30 7
-37 c23 -125 138 -215 250 -198 90 13 185 107 200 196 7 40 19 50 28 25 3 -8
31 -26 61 -41 97 -47 175 -24 226 66 32 58 34 143 3 212 -25 54 -16 61 21 17
30 -36 49 -100 44 -147 -4 -29 -1 -33 19 -33 13 0 32 9 43 20 19 19 19 23 5
56 -8 19 -24 49 -36 66 -21 28 -21 30 -2 20 11 -6 32 -29 48 -51 15 -23 31
-41 36 -41 11 0 69 50 69 60 0 4 -10 10 -22 13 -13 4 -31 12 -41 19 -15 11 -5
12 60 10 91 -4 134 13 154 59 16 40 5 98 -26 128 -24 24 -32 26 -115 26 l-90
0 40 20 c22 10 39 24 37 30 -2 5 -19 20 -38 33 l-34 23 -15 -22 c-26 -40 -61
-79 -71 -79 -6 0 2 15 16 34 54 71 50 120 -12 132 -32 6 -32 6 -27 -28 8 -45
-11 -110 -42 -148 -37 -43 -48 -37 -22 13 31 59 31 156 0 215 -54 102 -180
119 -273 35 -33 -30 -39 -32 -39 -16 0 84 -96 200 -184 222 -52 13 -57 13
-110 -1z m169 -104 c34 -22 65 -92 65 -145 0 -49 -44 -152 -78 -183 -18 -15
-24 -17 -37 -6 -14 11 -13 16 6 44 11 17 29 50 40 74 37 79 0 163 -77 178 -42
8 -115 -25 -134 -60 -21 -40 -7 -109 35 -173 29 -44 34 -57 23 -64 -21 -14
-31 -6 -65 52 -66 110 -65 196 3 264 54 54 153 62 219 19z m-937 7 c93 -49
112 -150 51 -267 -38 -73 -61 -96 -80 -77 -8 8 -1 26 27 67 26 40 38 71 42
106 4 46 2 52 -31 85 -31 31 -41 35 -85 35 -126 0 -157 -126 -62 -247 19 -24
19 -28 5 -42 -15 -15 -20 -13 -50 23 -44 50 -69 124 -63 188 12 119 138 185
246 129z m867 -126 c15 -14 25 -36 25 -52 0 -29 -38 -104 -55 -110 -17 -5 -58
69 -63 113 -4 35 -1 44 19 58 32 22 46 20 74 -9z m-894 -6 c16 -30 5 -84 -26
-131 l-27 -40 -25 36 c-52 78 -37 156 32 156 25 0 37 -6 46 -21z m-381 -4 c30
-16 60 -61 60 -91 0 -24 -29 -54 -52 -54 -21 0 -22 4 -6 29 29 46 -35 80 -78
40 -42 -39 -29 -105 26 -134 58 -30 125 -10 152 46 l16 32 15 -29 c8 -16 31
-44 51 -63 28 -27 33 -38 25 -52 -9 -17 -12 -17 -64 7 -74 32 -145 32 -202 -1
l-43 -24 -25 34 c-49 63 -58 142 -25 210 30 63 88 82 150 50z m928 -1 c44 -30
16 -94 -29 -66 -23 15 -34 -1 -19 -28 25 -46 70 -51 110 -11 l29 28 55 -83
c31 -46 56 -86 56 -88 0 -9 -64 -26 -96 -26 -37 0 -59 26 -44 51 8 11 13 12
30 1 18 -11 20 -10 20 13 0 15 -9 31 -24 40 -31 21 -68 5 -88 -38 l-14 -30
-28 36 c-58 76 -70 153 -31 192 28 29 42 31 73 9z m757 0 c29 -19 55 -82 55
-132 0 -42 -42 -140 -63 -148 -8 -3 -34 5 -58 18 -56 29 -129 29 -186 -1 -77
-39 -104 -15 -46 40 19 19 42 47 50 63 l15 29 14 -30 c33 -67 112 -82 169 -32
42 37 48 86 14 120 -39 39 -110 5 -81 -41 16 -26 15 -30 -5 -30 -27 0 -53 31
-53 63 0 20 11 40 34 63 28 28 42 34 75 34 23 0 52 -7 66 -16z m-961 -16 c28
-40 12 -117 -39 -183 l-27 -36 -22 33 c-38 57 -106 48 -106 -15 0 -29 1 -30
14 -12 12 16 16 17 30 6 27 -23 3 -51 -44 -51 -39 0 -93 18 -88 29 2 4 28 43
58 89 45 68 56 78 62 63 16 -45 82 -54 118 -17 28 30 22 63 -8 45 -26 -17 -52
-5 -52 24 0 32 18 47 56 47 23 0 38 -7 48 -22z m142 -233 c16 -17 44 -43 62
-58 l33 -27 -60 -56 c-37 -34 -71 -78 -89 -114 l-30 -59 -17 47 c-12 29 -42
70 -85 113 l-67 66 61 59 c40 39 70 79 86 115 l24 55 27 -56 c14 -30 39 -69
55 -85z m-508 12 l22 -23 -25 -24 -25 -23 -25 23 -25 24 22 23 c12 13 24 23
28 23 4 0 16 -10 28 -23z m910 0 l22 -23 -25 -24 -25 -23 -25 23 -25 24 22 23
c12 13 24 23 28 23 4 0 16 -10 28 -23z m830 -60 c21 -17 10 -70 -18 -85 -34
-18 -146 -9 -235 18 -64 20 -68 23 -50 36 59 44 263 64 303 31z m-2405 -3 c34
-9 70 -20 81 -26 19 -10 18 -11 -7 -24 -39 -21 -146 -44 -204 -44 -75 0 -103
15 -103 56 0 21 6 37 18 43 26 16 147 13 215 -5z m387 6 c76 -21 89 -58 28
-79 -92 -32 -218 13 -164 58 33 27 85 35 136 21z m1110 -65 c-29 -31 -35 -31
-56 0 -16 25 -16 27 7 51 l23 25 25 -25 25 -25 -24 -26z m155 -4 l-25 -26 -27
27 -27 27 24 26 24 25 28 -27 28 -27 -25 -25z m249 65 c45 -19 53 -34 28 -58
-37 -38 -159 -33 -192 8 -36 43 89 81 164 50z m-1315 -17 l25 -20 -27 -27 -26
-26 -26 24 -25 24 22 23 c26 28 27 28 57 2z m153 4 c23 -21 23 -36 -2 -58 -18
-17 -21 -17 -45 -1 -29 19 -31 33 -8 58 20 22 31 23 55 1z m-52 -103 c0 -4
-11 -17 -25 -30 l-26 -24 -25 25 -25 26 22 25 23 26 28 -21 c15 -11 28 -24 28
-27z m890 25 l24 -26 -27 -27 -27 -27 -27 27 -27 27 24 26 c13 14 26 25 30 25
4 0 17 -11 30 -25z m-1318 -20 c67 -32 119 -31 187 0 48 23 56 24 69 11 13
-13 11 -18 -16 -41 -17 -14 -41 -42 -53 -61 l-21 -35 -19 31 c-26 42 -81 65
-122 50 -17 -6 -41 -20 -54 -32 -56 -53 0 -164 63 -123 28 18 31 49 7 65 -15
8 -11 10 17 8 28 -2 37 -9 44 -30 20 -57 -45 -128 -117 -128 -35 0 -83 43 -97
86 -17 52 -7 124 24 178 15 25 28 46 30 46 2 0 28 -11 58 -25z m1486 0 c77
-31 113 -31 182 1 62 29 64 28 101 -51 38 -83 12 -190 -55 -222 -44 -20 -80
-11 -123 32 -42 42 -45 87 -8 111 31 20 49 11 32 -16 -28 -46 43 -80 82 -41
32 32 28 83 -9 114 -60 51 -123 43 -166 -21 l-22 -32 -20 32 c-12 18 -34 46
-51 62 -23 23 -28 33 -20 43 14 16 5 17 77 -12z m-856 -7 c4 -7 6 -17 5 -23
-6 -16 -39 -18 -48 -3 -6 9 -9 3 -9 -19 0 -61 74 -70 109 -13 l18 30 21 -23
c28 -30 62 -106 62 -141 0 -38 -35 -76 -70 -76 -34 0 -50 17 -50 52 0 23 4 28
24 28 14 0 28 -5 32 -11 4 -8 9 -7 15 2 13 20 11 27 -11 49 -30 30 -83 27
-109 -7 -12 -14 -23 -24 -24 -22 -2 2 -19 29 -38 59 -20 30 -44 67 -53 82
l-18 28 33 15 c38 17 98 13 111 -7z m514 7 l35 -15 -29 -42 c-16 -24 -41 -62
-56 -86 l-27 -43 -20 25 c-28 36 -91 37 -115 2 -12 -19 -13 -29 -5 -43 6 -10
11 -13 11 -7 0 15 26 25 45 18 22 -9 19 -61 -4 -74 -32 -17 -58 -12 -80 16
-27 35 -26 67 3 129 32 67 55 95 63 76 11 -26 52 -61 72 -61 27 0 51 26 51 57
0 21 -2 23 -15 13 -16 -13 -45 -7 -45 9 0 18 31 41 56 41 14 0 41 -7 60 -15z
m-841 -129 c-40 -62 -50 -105 -35 -151 16 -47 53 -75 102 -75 133 0 168 121
71 248 -23 31 -24 35 -9 50 15 15 17 15 31 -3 32 -41 73 -132 80 -175 16 -114
-104 -214 -216 -181 -135 41 -159 197 -51 339 23 30 26 32 43 16 17 -15 16
-18 -16 -68z m934 70 c8 -10 7 -19 -8 -37 -56 -73 -77 -162 -46 -205 18 -26
74 -54 110 -54 70 0 122 66 110 140 -4 21 -22 62 -40 91 -32 48 -33 53 -17 65
22 16 39 1 77 -67 78 -145 13 -293 -130 -293 -85 0 -155 58 -171 140 -8 42 15
116 57 184 33 53 40 58 58 36z m-818 -107 c23 -47 24 -87 2 -111 -36 -40 -103
-6 -103 54 0 17 12 51 26 75 29 50 41 47 75 -18z m904 18 c31 -54 32 -93 3
-124 -61 -65 -125 14 -82 100 15 30 43 67 50 67 2 0 15 -20 29 -43z"/>
</g>
</svg>
