
<?xml version="1.0" standalone="no"?>
<!DOCTYPE svg PUBLIC "-//W3C//DTD SVG 20010904//EN"
 "http://www.w3.org/TR/2001/REC-SVG-20010904/DTD/svg10.dtd">
<svg version="1.0" xmlns="http://www.w3.org/2000/svg"
 width="300.000000pt" height="122.000000pt" viewBox="0 0 300.000000 122.000000"
 preserveAspectRatio="xMidYMid meet">
<metadata>
Created by potrace 1.10, written by Peter Selinger 2001-2011
</metadata>
<g transform="translate(0.000000,122.000000) scale(0.100000,-0.100000)"
fill="#000000" stroke="none">
<path d="M1386 977 c-20 -21 -46 -37 -68 -41 -23 -4 -46 -18 -62 -37 l-25 -29
-33 20 c-19 11 -50 20 -73 20 -43 0 -131 -37 -154 -63 -15 -18 -41 -22 -57 -9
-14 13 -198 35 -223 27 -16 -5 -21 -14 -21 -44 0 -33 -4 -38 -35 -50 -19 -6
-43 -23 -54 -37 -12 -15 -27 -23 -41 -22 -30 4 -49 -26 -32 -49 26 -37 25 -46
-3 -70 -35 -31 -79 -28 -83 5 -2 15 2 22 12 22 9 0 16 -5 16 -11 0 -16 20 1
30 25 8 21 -4 55 -24 68 -34 23 -106 -13 -106 -53 0 -9 -30 -29 -72 -48 -122
-56 -138 -64 -138 -71 0 -14 36 -39 65 -46 62 -15 143 -63 149 -89 15 -57 89
-70 122 -20 15 23 15 27 -1 51 -12 19 -20 23 -28 15 -17 -17 -27 -13 -27 9 0
32 32 42 71 22 38 -19 49 -48 24 -66 -10 -7 -16 -22 -13 -37 2 -18 10 -25 32
-27 16 -2 38 -14 48 -28 11 -13 34 -27 51 -32 29 -7 32 -12 35 -52 l3 -43 112
7 c72 4 120 12 134 22 22 14 26 13 56 -10 46 -35 116 -66 152 -66 17 0 47 9
68 20 l38 21 30 -30 c16 -17 46 -33 65 -37 20 -4 41 -16 50 -29 23 -36 67 -50
105 -35 17 7 37 23 45 36 9 13 30 25 51 29 20 3 49 20 66 37 l30 30 38 -21
c20 -12 50 -21 65 -21 35 0 106 32 151 66 30 23 34 24 56 9 18 -11 55 -16 138
-18 l114 -2 0 39 c0 36 3 40 32 48 17 4 40 19 51 32 10 14 32 26 48 28 22 2
30 9 32 27 3 15 -3 30 -13 37 -25 18 -11 49 31 69 39 18 64 8 64 -26 0 -21
-11 -24 -26 -9 -16 16 -36 -13 -32 -47 2 -17 13 -33 31 -43 24 -13 30 -13 55
0 15 8 34 29 42 46 14 29 83 71 150 90 14 4 36 15 48 25 l24 18 -34 21 c-18
11 -37 20 -42 20 -5 0 -37 14 -72 30 -45 22 -65 39 -74 61 -23 55 -85 67 -119
23 -19 -24 -19 -28 -5 -56 12 -22 19 -27 27 -19 18 18 29 13 25 -11 -4 -31
-46 -35 -81 -8 -30 24 -35 45 -12 54 8 3 15 16 15 29 0 28 -24 52 -40 42 -7
-4 -26 6 -43 23 -18 17 -45 34 -60 38 -26 6 -28 10 -25 41 6 51 -19 60 -130
44 -48 -7 -102 -18 -119 -24 -28 -9 -36 -8 -55 10 -62 58 -167 79 -224 44
l-32 -19 -28 29 c-15 16 -43 32 -63 35 -21 4 -48 20 -67 41 -23 24 -40 33 -64
33 -24 0 -41 -9 -64 -33z m89 -47 c0 -18 -33 -26 -47 -12 -6 6 -7 15 -3 22 10
16 50 8 50 -10z m-87 -85 c4 -29 3 -29 -16 -12 -16 15 -25 16 -40 8 -31 -17
-37 -49 -15 -80 28 -37 75 -40 109 -6 l26 26 23 -26 c29 -31 77 -33 105 -5 26
26 26 62 -1 86 -16 15 -24 16 -39 6 -27 -17 -32 -15 -28 11 2 17 10 23 40 25
52 4 78 -23 78 -84 0 -48 -10 -76 -42 -111 l-20 -21 -58 45 -59 45 -59 -45
-59 -46 -20 22 c-49 53 -58 125 -22 171 17 22 28 27 58 24 32 -3 36 -6 39 -33z
m-223 -10 c39 -16 41 -19 50 -89 l7 -49 -29 18 c-15 10 -54 41 -86 68 -41 36
-54 53 -45 59 20 12 65 9 103 -7z m674 6 c10 -6 -7 -26 -64 -75 -43 -36 -82
-66 -86 -66 -9 0 0 101 10 112 28 31 110 48 140 29z m-1049 -25 c0 -2 -6 -17
-13 -33 -10 -26 -15 -29 -35 -22 -13 5 -21 12 -19 16 2 5 7 16 10 26 5 14 57
26 57 13z m1380 -15 c14 -27 13 -31 -12 -40 -19 -7 -25 -4 -34 18 -6 14 -9 29
-7 34 8 14 43 7 53 -12z m-1159 -9 c14 -9 47 -36 73 -59 46 -40 47 -42 26 -53
-19 -10 -27 -8 -54 17 -67 62 -61 62 -120 4 l-53 -53 -22 28 c-28 35 -26 97 2
102 16 3 18 -1 12 -27 -6 -27 -3 -31 20 -37 33 -8 67 20 64 56 -3 47 8 52 52
22z m934 -19 c0 -43 25 -68 60 -59 24 6 27 11 21 37 -5 25 -3 30 12 27 27 -5
28 -68 1 -102 l-22 -28 -53 53 -53 52 -50 -42 c-44 -37 -53 -41 -72 -30 -22
11 -22 11 -2 28 11 9 44 35 73 59 62 50 85 51 85 5z m-1211 -83 c23 -11 56
-33 75 -49 l35 -28 -39 -34 c-21 -19 -43 -38 -49 -42 -7 -5 6 -23 39 -52 56
-51 58 -45 -34 -106 -52 -34 -108 -38 -139 -11 -47 39 -31 112 21 98 29 -7 37
-26 12 -26 -26 0 -17 -40 11 -50 65 -25 100 64 44 115 -18 16 -17 18 6 52 13
20 24 45 24 56 0 44 -59 74 -88 45 -18 -18 -15 -46 6 -50 14 -3 14 -6 -6 -17
-20 -11 -26 -10 -43 5 -23 21 -24 42 -3 72 31 44 70 51 128 22z m1554 -16 c27
-31 28 -55 3 -78 -17 -15 -23 -16 -43 -5 -20 11 -20 14 -5 17 20 4 23 32 5 50
-20 20 -56 14 -74 -13 -13 -20 -14 -30 -4 -59 6 -19 18 -40 26 -47 13 -10 12
-15 -4 -33 -23 -25 -35 -68 -26 -91 9 -24 51 -37 75 -25 23 13 26 50 3 50 -14
0 -14 3 -4 15 26 32 70 7 70 -40 0 -30 -46 -65 -85 -65 -43 0 -65 10 -123 57
l-42 35 47 43 48 42 -48 44 -49 44 51 38 c82 63 136 69 179 21z m-1279 -80
l-35 -35 -25 20 -24 21 39 36 38 36 21 -21 22 -21 -36 -36z m945 -15 l-21 -21
-37 33 -37 32 23 24 22 24 35 -36 36 -35 -21 -21z m-474 56 c34 -17 37 -27 15
-45 -14 -12 -13 -16 6 -36 18 -19 26 -21 42 -13 14 8 23 7 34 -3 12 -13 12
-16 -1 -28 -13 -10 -19 -10 -31 0 -13 11 -20 9 -41 -11 -21 -19 -22 -24 -9
-31 22 -13 19 -24 -15 -48 l-30 -21 -31 21 c-28 20 -29 24 -15 39 21 23 20 26
-10 46 -20 13 -28 14 -40 4 -12 -10 -18 -9 -30 3 -13 13 -13 16 1 28 13 11 21
11 35 3 14 -10 22 -7 39 11 19 20 20 24 6 36 -21 17 -19 23 13 42 33 21 27 21
62 3z m-217 -16 c21 -12 20 -13 -23 -51 l-45 -39 43 -40 c24 -23 42 -42 40
-44 -18 -15 -55 -25 -94 -25 l-47 0 23 25 24 25 -21 22 c-21 21 -32 20 -65 -4
-15 -11 -22 -9 -43 13 l-25 25 28 27 29 28 25 -21 c33 -25 32 -25 52 5 16 25
16 27 -6 45 l-23 19 53 1 c29 0 63 -5 75 -11z m479 -12 l-22 -23 25 -24 25
-23 23 21 22 21 29 -26 29 -25 -26 -25 c-25 -26 -35 -26 -69 -1 -15 11 -21 9
-40 -9 l-22 -23 24 -25 23 -25 -49 0 c-27 1 -60 7 -72 14 l-24 13 46 40 47 41
-47 38 c-42 35 -44 39 -28 51 10 7 42 13 73 13 l54 0 -21 -23z m-1368 -49 c20
-28 20 -38 -3 -67 l-18 -23 -51 26 c-29 15 -52 28 -52 31 0 5 91 54 102 55 4
0 14 -10 22 -22z m2234 -4 l57 -26 -59 -30 -59 -30 -18 23 c-10 13 -19 29 -19
34 0 12 28 55 36 55 3 0 31 -12 62 -26z m-1698 -9 c24 -29 -21 -60 -48 -33 -9
9 -8 16 5 30 20 22 27 22 43 3z m1123 -3 c13 -14 14 -21 5 -30 -27 -27 -64 -2
-45 29 15 24 20 24 40 1z m-1476 -8 c10 -26 -12 -38 -37 -21 -21 14 -21 16 -3
26 25 14 33 14 40 -5z m1832 2 c10 -12 8 -17 -8 -25 -26 -14 -28 -14 -35 5
-12 32 21 47 43 20z m-1381 -77 c33 -29 33 -31 16 -50 -22 -24 -22 -24 -64 10
-34 29 -34 30 -16 50 24 26 24 26 64 -10z m944 14 c25 -22 23 -28 -17 -59 -34
-26 -36 -26 -55 -9 -20 18 -20 19 12 52 37 38 36 38 60 16z m-966 -164 c3 -5
26 9 51 31 25 22 51 40 57 40 14 0 42 -18 36 -22 -3 -2 -33 -27 -67 -56 -69
-58 -114 -70 -106 -28 8 40 -14 68 -50 64 -29 -3 -32 -6 -29 -35 2 -35 2 -36
-22 -27 -23 9 -20 66 5 98 l21 26 49 -41 c27 -22 52 -45 55 -50z m1058 65 c21
-31 18 -99 -4 -99 -10 0 -14 8 -12 27 3 32 -22 50 -54 38 -23 -9 -38 -48 -28
-74 5 -12 0 -16 -20 -16 -16 0 -44 16 -75 44 -27 24 -58 49 -68 54 -20 12 -18
17 14 26 17 6 32 -2 66 -33 l43 -40 54 49 c30 27 58 49 61 50 4 0 14 -11 23
-26z m-655 -24 c28 -22 55 -40 61 -40 6 0 35 18 64 40 29 22 56 40 59 40 3 0
18 -17 32 -37 49 -73 23 -183 -44 -183 -15 0 -32 5 -39 12 -15 15 -16 48 -2
48 6 0 10 -5 10 -11 0 -6 12 -9 27 -7 38 4 53 46 29 82 -22 35 -77 36 -111 2
l-24 -24 -22 24 c-40 43 -129 21 -129 -32 0 -45 49 -71 78 -42 9 9 12 6 12
-14 0 -14 -7 -29 -16 -32 -87 -33 -136 73 -79 171 14 23 30 43 35 43 4 0 31
-18 59 -40z m-173 -31 c-3 -17 -6 -42 -6 -55 0 -32 -45 -54 -110 -54 -27 0
-50 3 -49 8 0 10 148 132 161 132 6 0 8 -12 4 -31z m556 -30 c40 -33 75 -65
76 -70 2 -5 -21 -9 -52 -9 -72 0 -102 25 -110 93 -3 27 -2 47 4 47 5 0 42 -27
82 -61z m-998 -6 c3 -10 9 -24 12 -30 4 -9 -4 -13 -25 -13 -17 0 -31 4 -31 9
0 5 -3 16 -6 24 -5 13 4 20 37 26 4 0 9 -7 13 -16z m1403 3 c1 -1 0 -12 -4
-24 -4 -16 -13 -22 -33 -22 -27 0 -28 1 -17 30 9 24 16 29 32 24 11 -4 21 -7
22 -8z m-706 -152 c10 -13 10 -17 -2 -25 -8 -5 -16 -9 -19 -9 -3 0 -11 4 -19
9 -12 8 -12 12 -2 25 8 9 17 16 21 16 4 0 13 -7 21 -16z"/>
</g>
  
<g id="pins" style="display:none">
  <circle id="pinL" cx="11%" cy="57%" r="3" fill="red" stroke="black"/>
  <circle id="pinR" cx="86%" cy="57%" r="3" fill="red" stroke="black"/>
  <!-- etc. -->
</g>

</svg>
