<?xml version="1.0" standalone="no"?>
<!DOCTYPE svg PUBLIC "-//W3C//DTD SVG 20010904//EN"
 "http://www.w3.org/TR/2001/REC-SVG-20010904/DTD/svg10.dtd">
<svg version="1.0" xmlns="http://www.w3.org/2000/svg"
 width="300.000000pt" height="113.000000pt" viewBox="0 0 300.000000 113.000000"
 preserveAspectRatio="xMidYMid meet">
<metadata>
Created by potrace 1.10, written by Peter Selinger 2001-2011
</metadata>
<g transform="translate(0.000000,113.000000) scale(0.100000,-0.100000)"
fill="#000000" stroke="none">
<path d="M653 876 c-25 -21 -31 -22 -48 -10 -26 19 -54 18 -95 -5 -27 -14 -42
-16 -68 -9 -95 26 -212 -48 -212 -134 0 -18 -5 -28 -15 -28 -24 0 -83 -66 -90
-102 -4 -18 -14 -42 -21 -53 -18 -25 -18 -75 0 -100 7 -11 16 -34 20 -51 7
-33 56 -89 86 -99 11 -4 20 -20 24 -47 13 -82 120 -142 209 -117 30 8 41 6 69
-11 40 -24 66 -25 98 -3 17 12 25 13 28 5 7 -21 60 -43 87 -36 14 3 34 19 45
34 18 26 23 27 57 19 21 -5 72 -9 114 -9 68 0 78 -3 100 -26 22 -24 29 -25 91
-21 73 5 107 21 134 63 17 25 17 25 38 6 43 -40 89 -56 156 -56 67 0 113 16
156 56 21 19 21 19 38 -6 27 -42 61 -58 134 -63 62 -4 69 -3 91 21 22 23 32
26 100 26 42 0 93 4 114 9 34 8 39 7 57 -19 11 -15 31 -31 45 -34 26 -7 80 15
87 34 2 8 13 6 33 -4 38 -20 43 -20 89 4 32 16 46 18 81 10 94 -21 205 50 205
132 0 17 7 29 19 33 31 10 79 65 87 99 4 17 13 40 20 51 18 25 18 75 0 100 -7
11 -17 35 -21 53 -7 36 -66 102 -90 102 -10 0 -15 10 -15 28 0 86 -117 160
-212 134 -26 -7 -41 -5 -68 9 -42 23 -69 24 -96 5 -17 -13 -21 -12 -39 5 -12
10 -35 22 -53 25 -26 5 -36 1 -61 -24 l-30 -30 -113 5 c-104 5 -115 7 -137 30
-22 23 -29 25 -99 21 -74 -3 -75 -4 -112 -46 -33 -37 -39 -40 -51 -26 -22 27
-89 55 -143 61 -57 6 -139 -22 -172 -58 -16 -18 -18 -17 -54 23 -37 42 -39 43
-112 46 -70 4 -77 2 -99 -21 -22 -23 -33 -25 -137 -30 l-113 -5 -29 29 c-35
35 -69 37 -107 5z m487 -66 c9 -6 17 -5 22 3 14 20 48 -31 48 -70 0 -35 0 -36
-36 -30 -45 8 -66 25 -59 48 3 9 1 20 -5 24 -14 9 -13 35 3 35 6 0 19 -4 27
-10z m620 0 c0 -6 10 -5 25 2 29 13 41 6 29 -19 -4 -10 -8 -27 -8 -38 -1 -23
-39 -45 -78 -45 -26 0 -27 2 -22 33 4 17 13 42 20 55 15 23 34 30 34 12z
m-212 -27 c15 -11 38 -36 51 -56 20 -30 30 -37 58 -37 30 0 33 -3 33 -30 0
-22 7 -33 28 -44 49 -26 75 -62 79 -113 6 -65 -8 -97 -62 -135 -35 -25 -45
-38 -45 -60 0 -26 -3 -28 -40 -28 -27 0 -40 -4 -40 -14 0 -41 -92 -106 -150
-106 -58 0 -150 65 -150 106 0 10 -13 14 -40 14 -37 0 -40 2 -40 28 0 22 -10
35 -45 60 -54 38 -68 70 -62 135 4 51 30 87 80 113 20 11 27 22 27 44 0 28 3
30 35 30 28 0 37 6 49 28 18 34 53 68 86 81 37 16 117 7 148 -16z m682 -2 c0
-10 -7 -24 -15 -31 -8 -6 -13 -17 -12 -23 1 -8 -14 -11 -45 -10 -27 1 -48 0
-48 -1 0 -2 51 -42 113 -88 61 -47 121 -95 131 -107 25 -28 32 -27 95 15 121
81 211 104 251 64 27 -27 26 -76 0 -90 -25 -13 -60 -4 -60 15 0 20 19 28 34
16 21 -18 29 15 9 35 -35 34 -134 4 -237 -72 -19 -13 -19 -14 -1 -34 27 -30
153 -90 188 -90 35 0 68 25 60 46 -4 11 -8 12 -20 3 -18 -15 -38 2 -30 25 7
19 48 21 65 4 20 -20 14 -63 -13 -88 -21 -19 -31 -22 -70 -17 -51 7 -117 39
-189 90 l-49 36 -53 -47 -53 -47 27 -14 c15 -7 35 -20 45 -29 11 -9 17 -11 17
-4 0 7 18 12 46 12 25 0 54 5 66 11 17 9 19 8 16 -8 -2 -10 -18 -25 -36 -35
l-33 -16 47 -36 c48 -37 60 -41 88 -30 19 7 21 30 4 37 -10 4 -10 7 0 18 10
11 15 10 29 -4 26 -26 7 -68 -40 -86 -36 -13 -42 -13 -90 8 -29 12 -58 25 -64
28 -9 3 -13 -3 -13 -19 0 -13 -5 -29 -12 -36 -9 -9 -16 1 -30 40 -10 29 -18
58 -18 65 0 6 -15 28 -34 48 l-33 37 -84 -62 c-46 -34 -85 -63 -87 -65 -1 -1
17 2 42 8 45 10 82 4 72 -12 -3 -5 1 -14 9 -21 15 -13 21 -50 7 -50 -4 0 -13
9 -20 21 -12 19 -19 20 -150 14 -164 -8 -192 2 -230 78 -29 56 -24 93 20 142
50 58 112 56 186 -5 40 -33 62 -38 62 -16 0 24 21 30 38 12 16 -16 15 -19 -8
-37 -16 -14 -33 -19 -51 -15 -24 4 -28 1 -34 -23 -8 -36 -32 -59 -72 -67 -26
-5 -37 -1 -57 19 -30 30 -33 53 -10 85 18 27 50 29 63 4 12 -23 -2 -47 -24
-38 -12 4 -16 1 -13 -12 8 -41 88 -16 88 28 0 29 -48 80 -77 80 -57 0 -92 -37
-93 -97 0 -81 74 -130 160 -104 29 9 41 19 50 44 11 31 11 32 23 10 12 -21 14
-20 118 55 58 42 123 91 143 108 l38 32 -84 64 c-140 109 -205 150 -212 133
-8 -22 -24 -18 -28 7 -4 29 -42 48 -95 48 -33 0 -50 -7 -78 -31 -31 -27 -35
-37 -35 -78 0 -71 52 -112 115 -91 42 14 63 59 46 96 -9 21 -17 25 -43 22 -21
-2 -34 -9 -36 -20 -2 -12 2 -15 16 -11 25 6 36 -11 22 -37 -14 -26 -45 -25
-64 2 -22 31 -20 52 7 84 20 23 28 26 60 20 38 -7 77 -46 77 -76 0 -13 6 -17
20 -13 50 13 96 -25 66 -55 -16 -16 -36 -9 -36 14 0 22 -24 17 -65 -16 -21
-17 -55 -35 -76 -41 -32 -10 -42 -9 -70 7 -73 43 -96 128 -50 193 43 60 108
77 231 60 96 -14 140 -7 147 21 6 24 23 16 23 -9z m-1640 -93 c0 -9 15 -33 33
-53 l34 -37 76 57 c42 32 77 59 77 61 0 2 -21 3 -47 1 -32 -1 -47 2 -46 10 1
6 -4 17 -12 23 -14 12 -21 50 -10 50 3 0 15 -10 26 -21 20 -20 27 -21 103 -13
114 11 171 8 213 -13 103 -51 105 -177 4 -237 -28 -16 -38 -17 -70 -7 -21 6
-55 24 -76 41 -44 35 -61 38 -68 9 -5 -17 -9 -19 -26 -9 -25 13 -26 23 -4 45
11 11 28 15 50 13 26 -3 33 0 33 13 0 28 42 68 77 75 25 5 37 1 57 -19 31 -31
33 -60 6 -87 -25 -25 -46 -26 -59 -2 -12 23 2 47 23 39 11 -5 16 -1 16 13 0
28 -65 28 -80 1 -16 -32 -12 -51 20 -83 26 -25 36 -29 62 -24 53 10 78 42 78
97 0 41 -4 51 -35 78 -27 24 -45 31 -76 31 -50 0 -95 -22 -103 -52 -6 -21 -7
-22 -19 -6 -12 15 -20 12 -93 -40 -44 -31 -108 -79 -143 -107 l-63 -49 38 -31
c20 -16 85 -65 143 -107 104 -75 106 -76 118 -55 12 22 12 21 23 -10 14 -39
67 -60 123 -49 103 19 120 177 22 202 -56 14 -114 -38 -101 -90 7 -27 43 -43
71 -32 22 8 19 35 -4 29 -25 -6 -35 11 -21 37 15 27 46 25 66 -5 33 -51 -14
-114 -75 -100 -34 7 -71 47 -71 76 0 15 -5 17 -29 13 -22 -5 -34 -1 -51 16
-20 20 -21 24 -7 37 17 17 37 10 37 -13 0 -23 27 -16 63 16 38 33 76 50 112
50 35 0 93 -55 106 -100 10 -34 9 -44 -12 -86 -39 -77 -66 -87 -231 -79 -134
6 -137 5 -152 -17 -14 -19 -18 -21 -26 -8 -6 10 -3 22 13 38 12 13 20 27 17
30 -9 12 38 14 76 3 44 -12 43 -11 -61 64 -44 32 -107 82 -141 111 l-60 53
-64 -45 c-68 -47 -154 -84 -197 -84 -53 0 -95 74 -61 108 17 17 58 15 65 -4 9
-23 -13 -40 -32 -24 -13 10 -15 9 -15 -7 0 -28 20 -43 56 -43 36 0 162 60 189
90 18 20 18 21 -1 34 -127 94 -244 114 -244 42 0 -16 2 -18 9 -7 11 17 41 7
41 -13 0 -20 -35 -29 -60 -16 -27 15 -27 63 2 90 43 39 128 18 249 -64 30 -20
58 -36 64 -36 5 1 32 20 58 44 l48 43 -35 17 c-19 9 -36 22 -39 29 -4 9 -7 9
-18 0 -7 -7 -30 -13 -52 -13 -21 0 -47 -5 -58 -10 -14 -8 -19 -7 -19 1 0 20
32 49 53 49 20 0 19 1 -4 26 -29 31 -71 54 -98 54 -23 0 -41 -22 -23 -28 15
-5 16 -29 2 -37 -16 -10 -40 15 -40 41 0 28 51 64 91 64 14 0 48 -11 75 -25
27 -14 50 -25 52 -25 1 0 2 10 2 23 0 13 5 28 12 35 9 9 16 1 30 -36 10 -26
18 -55 18 -64z m1803 57 c-7 -19 -7 -19 51 10 27 14 61 25 75 25 40 0 91 -36
91 -64 0 -26 -24 -51 -40 -41 -14 8 -13 32 2 37 18 6 0 28 -23 28 -26 0 -57
-16 -91 -48 l-27 -25 32 -16 c18 -9 33 -24 35 -34 3 -16 1 -17 -16 -8 -12 6
-38 11 -59 11 -22 0 -45 6 -51 12 -10 10 -14 10 -21 0 -12 -20 -63 -44 -73
-34 -4 4 5 22 21 39 16 17 31 44 34 60 3 15 11 45 19 66 13 38 13 38 30 17 9
-12 14 -28 11 -35z m-1580 -217 c32 -8 50 -9 55 -2 4 6 25 0 56 -17 l48 -26
-33 -12 c-18 -6 -41 -19 -51 -28 -16 -14 -18 -14 -18 0 0 14 -6 14 -57 0 -32
-8 -70 -21 -86 -29 -16 -9 -34 -13 -40 -11 -16 5 64 46 132 67 l54 17 -49 12
c-56 14 -146 60 -139 71 3 4 22 -1 42 -11 21 -10 60 -24 86 -31z m1422 42 c7
-12 -78 -55 -140 -71 l-48 -12 54 -17 c68 -21 148 -62 132 -67 -6 -2 -24 2
-40 11 -16 8 -54 21 -86 29 -51 14 -57 14 -57 0 0 -14 -2 -14 -18 0 -10 9 -33
22 -51 28 l-33 12 48 26 c30 16 52 23 56 17 8 -12 120 18 152 39 24 18 23 18
31 5z m-1489 -70 l28 -11 -53 -30 c-63 -34 -62 -34 -55 -14 4 9 -5 19 -27 28
l-33 13 32 13 c26 11 31 18 26 34 -6 20 -6 20 24 -1 16 -12 42 -26 58 -32z
m1509 31 c-4 -14 2 -22 27 -32 l32 -13 -33 -13 c-22 -9 -31 -19 -27 -28 7 -20
8 -20 -54 14 l-53 29 34 15 c19 8 43 22 54 31 26 20 28 20 20 -3z m-1865 -17
c0 -8 6 -14 14 -14 24 0 30 -21 7 -27 -12 -3 -21 -12 -21 -19 0 -21 -32 -17
-64 10 l-29 23 38 26 c39 27 55 27 55 1z m2204 -7 l29 -20 -29 -24 c-32 -26
-64 -30 -64 -9 0 7 -9 16 -21 19 -22 6 -18 27 5 27 8 0 16 9 19 21 6 22 9 22
61 -14z m-2384 -23 c0 -17 -26 -19 -36 -3 -7 12 15 31 28 23 4 -3 8 -12 8 -20z
m2540 5 c0 -12 -29 -24 -37 -16 -3 4 -3 13 0 21 6 16 37 11 37 -5z m-2106
-117 c3 -5 -8 -23 -24 -41 -17 -18 -30 -38 -30 -45 0 -6 -8 -36 -19 -65 -18
-52 -19 -53 -34 -31 -9 12 -13 29 -10 36 7 19 4 18 -62 -12 -51 -24 -61 -25
-97 -15 -44 14 -69 51 -52 79 6 9 16 18 22 20 18 6 27 -28 11 -39 -12 -8 -12
-11 1 -19 26 -17 46 -11 95 26 l47 37 -31 13 c-17 7 -31 15 -31 18 0 2 -3 12
-7 21 -5 15 -3 16 15 6 11 -6 39 -11 61 -11 22 0 42 -4 46 -10 3 -5 22 2 42
15 38 27 49 30 57 17z m566 -138 c0 -47 -16 -74 -43 -73 -12 0 -32 -2 -44 -6
-17 -6 -23 -3 -23 8 0 9 5 19 11 23 6 3 9 15 6 25 -6 21 10 37 50 49 43 13 43
12 43 -26z m578 9 c12 -7 20 -19 16 -24 -3 -6 -1 -22 7 -35 16 -30 6 -40 -25
-26 -15 7 -27 7 -33 1 -6 -6 -14 -4 -22 5 -15 18 -32 86 -25 98 7 10 52 0 82
-19z"/>
<path d="M1382 735 c-16 -14 -33 -36 -36 -50 -5 -20 -13 -25 -36 -25 -25 0
-29 -4 -32 -32 -2 -25 -9 -33 -32 -39 -105 -28 -112 -155 -10 -200 35 -16 44
-25 44 -44 0 -21 5 -25 28 -25 23 0 30 -6 41 -35 20 -55 56 -78 119 -73 60 5
97 33 107 79 5 24 12 29 36 29 24 0 29 4 29 25 0 19 9 28 44 44 102 45 95 172
-10 200 -23 6 -30 14 -32 39 -3 28 -7 32 -32 32 -23 0 -31 5 -36 25 -11 43
-59 75 -114 75 -37 0 -55 -6 -78 -25z m95 -44 c3 -11 14 -22 25 -24 15 -4 18
-11 13 -29 -12 -40 -41 -83 -55 -83 -14 0 -43 43 -55 83 -5 18 -2 25 13 29 11
2 22 13 25 24 3 10 10 19 17 19 7 0 14 -9 17 -19z m-102 -83 c23 -10 72 -84
63 -93 -8 -8 -68 29 -81 49 -34 54 -29 66 18 44z m215 6 c0 -21 -41 -69 -72
-85 -21 -11 -38 -17 -38 -14 0 20 42 83 62 92 26 13 48 16 48 7z m-257 -88
c18 -8 41 -20 51 -28 18 -14 16 -16 -35 -41 -58 -29 -102 -36 -93 -14 3 8 -6
19 -22 25 -21 10 -24 15 -14 27 7 8 19 15 27 15 9 0 13 6 9 15 -7 20 33 20 77
1z m331 -1 c-4 -9 0 -15 9 -15 8 0 20 -7 27 -15 10 -12 7 -17 -14 -27 -16 -6
-25 -17 -22 -25 9 -22 -43 -15 -96 14 -46 25 -48 28 -31 41 50 39 138 57 127
27z m-235 -95 c-12 -32 -62 -80 -85 -80 -18 0 -18 4 1 39 13 25 68 70 87 71 4
0 2 -13 -3 -30z m98 9 c34 -21 70 -75 58 -87 -11 -11 -59 22 -82 57 -37 55
-31 64 24 30z m-36 -55 c30 -53 33 -75 10 -81 -11 -3 -23 -14 -26 -24 -8 -25
-22 -24 -30 1 -3 11 -13 20 -20 20 -23 0 -26 17 -10 56 30 72 48 79 76 28z"/>
</g>
</svg>
