

<svg id="svg" xmlns="http://www.w3.org/2000/svg" xmlns:xlink="http://www.w3.org/1999/xlink" width="400" height="165.8227848101266" viewBox="0, 0, 400,165.8227848101266"><g id="svgg"><path id="path0" d="M128.499 1.647 C 114.200 5.489,101.868 21.037,101.274 35.969 C 101.270 36.084,99.816 34.591,98.043 32.652 C 75.117 7.567,42.741 36.308,57.920 68.271 C 60.390 73.471,60.367 74.121,57.773 72.467 C 51.091 68.209,45.887 52.910,48.413 44.951 C 48.872 43.505,48.818 43.485,45.398 43.838 C 34.160 44.998,34.346 52.627,45.960 66.930 C 46.879 68.062,47.320 68.987,46.940 68.987 C 45.603 68.987,38.129 61.374,35.767 57.607 C 34.453 55.512,33.042 53.797,32.631 53.797 C 29.758 53.797,20.554 61.394,21.926 62.633 C 22.224 62.903,23.861 63.584,25.563 64.148 C 28.779 65.214,34.462 68.280,34.027 68.715 C 33.890 68.852,31.233 68.516,28.123 67.967 C 16.079 65.842,6.809 67.872,2.243 73.633 C 0.032 76.422,-0.942 86.705,0.643 90.530 C 3.982 98.593,19.113 101.947,33.070 97.719 C 33.679 97.534,34.177 97.642,34.177 97.959 C 34.177 98.522,25.764 102.648,22.943 103.469 C 20.120 104.290,24.978 110.081,30.208 112.130 L 32.885 113.179 36.284 108.330 C 38.153 105.663,40.912 102.484,42.414 101.266 C 43.916 100.047,45.539 98.661,46.020 98.184 C 48.062 96.163,47.128 98.082,44.213 101.899 C 35.275 113.598,34.770 120.142,42.624 122.475 C 48.014 124.076,48.884 123.856,48.292 121.044 C 46.542 112.721,49.695 102.143,55.724 96.115 C 60.335 91.503,61.106 92.066,58.227 97.943 C 42.481 130.078,73.761 158.785,97.761 134.227 C 101.427 130.475,101.899 130.333,101.899 132.978 C 101.899 138.893,105.511 147.512,110.269 152.950 C 129.982 175.477,159.098 167.437,166.699 137.368 L 168.121 131.744 170.870 134.935 C 178.799 144.141,194.854 141.468,198.173 130.390 C 199.111 127.258,199.517 127.215,200.573 130.136 C 204.597 141.264,219.911 143.856,228.063 134.789 L 230.864 131.675 232.190 137.103 C 236.097 153.090,245.959 163.225,259.494 165.161 C 277.706 167.767,295.865 151.231,297.460 130.589 C 297.465 130.529,299.106 132.119,301.108 134.120 C 325.152 158.163,356.288 129.791,340.795 97.956 C 338.310 92.851,338.360 92.407,341.233 94.085 C 347.543 97.770,352.704 112.941,350.437 121.136 L 349.930 122.969 353.425 122.608 C 363.757 121.542,364.196 113.745,354.611 101.553 C 350.946 96.891,350.733 96.307,353.505 98.524 C 357.829 101.981,362.277 107.137,365.641 112.591 C 366.148 113.414,372.031 110.180,374.403 107.775 C 377.379 104.755,377.956 103.165,376.074 103.165 C 374.780 103.165,364.239 98.208,364.653 97.794 C 364.801 97.646,367.617 97.967,370.911 98.507 C 389.663 101.584,400.198 95.305,399.219 81.636 C 398.525 71.925,393.063 67.565,381.109 67.180 C 374.863 66.978,368.430 67.637,365.442 68.783 C 364.955 68.970,364.557 68.847,364.557 68.510 C 364.557 67.936,372.652 63.973,375.791 63.010 C 378.567 62.158,374.796 57.308,369.171 54.497 C 365.756 52.789,366.280 52.559,363.188 57.120 C 360.437 61.178,354.615 67.241,352.267 68.494 C 351.148 69.091,351.211 68.870,352.681 67.035 C 364.107 52.773,364.466 44.822,353.750 43.348 C 349.792 42.804,349.816 42.777,350.726 46.718 C 352.495 54.383,347.883 67.050,341.597 71.791 C 338.497 74.129,338.153 73.640,340.140 69.719 C 346.400 57.366,346.631 45.580,340.817 35.127 C 332.911 20.910,314.522 19.268,301.648 31.630 C 297.566 35.549,296.835 35.758,296.835 33.005 C 296.835 20.244,284.312 5.149,270.724 1.532 C 253.107 -3.159,237.533 8.171,232.009 29.697 L 230.641 35.027 229.403 33.075 C 222.697 22.503,206.397 23.770,200.876 35.293 L 199.137 38.924 198.492 36.709 C 195.201 25.393,178.486 22.560,170.454 31.956 L 167.987 34.842 166.865 29.921 C 162.253 9.680,145.246 -2.854,128.499 1.647 M270.664 12.908 C 287.768 17.462,293.416 35.096,283.780 53.857 C 278.705 63.738,275.193 66.850,272.164 64.152 C 269.744 61.995,269.596 62.629,274.152 55.653 C 285.889 37.681,281.604 22.217,264.873 22.166 C 246.547 22.111,241.672 37.677,254.190 56.281 C 255.889 58.805,257.563 61.294,257.911 61.813 C 258.396 62.535,258.026 63.195,256.329 64.638 L 254.114 66.522 252.346 64.432 C 242.444 52.723,238.085 35.904,242.507 26.471 C 247.429 15.971,259.796 10.014,270.664 12.908 M145.322 15.532 C 157.526 21.691,161.548 35.163,155.415 49.342 C 154.141 52.287,152.859 54.993,152.566 55.355 C 152.273 55.717,151.405 57.152,150.636 58.544 C 146.600 65.856,145.074 67.063,142.379 65.071 C 139.965 63.286,140.006 62.921,143.084 58.817 C 155.788 41.879,154.430 27.483,139.717 23.114 C 119.866 17.218,111.448 37.297,125.396 57.274 L 128.715 62.028 126.897 63.925 C 124.485 66.444,124.006 66.351,120.786 62.741 C 98.015 37.205,116.768 1.122,145.322 15.532 M268.315 32.192 C 274.313 36.521,274.095 44.363,267.711 53.941 L 264.873 58.198 262.816 55.840 C 257.274 49.486,254.267 39.790,256.309 34.859 C 257.967 30.856,264.464 29.413,268.315 32.192 M138.808 31.602 C 145.008 33.959,144.589 43.470,137.842 53.557 C 134.124 59.117,134.094 59.117,130.548 53.438 C 122.348 40.308,127.297 27.225,138.808 31.602 M86.392 34.291 C 94.674 38.454,98.627 47.274,94.620 52.647 C 92.399 55.625,87.166 56.822,85.443 54.747 C 84.804 53.977,84.829 53.797,85.572 53.797 C 89.420 53.797,90.142 47.607,86.639 44.658 C 79.044 38.267,69.262 51.068,74.916 60.000 C 81.874 70.994,97.782 69.310,102.998 57.027 L 104.169 54.269 106.647 58.506 C 108.010 60.836,111.372 65.002,114.119 67.763 L 119.113 72.784 117.309 74.870 L 115.506 76.955 109.177 73.988 C 96.341 67.970,88.000 68.084,77.549 74.422 C 73.079 77.132,72.859 77.060,69.224 71.696 C 55.854 51.965,68.169 25.133,86.392 34.291 M326.427 34.378 C 337.675 41.553,338.242 61.657,327.555 74.386 L 325.603 76.710 321.587 74.357 C 309.702 67.391,301.756 67.500,287.093 74.828 L 283.363 76.692 281.894 74.897 C 279.822 72.364,279.813 72.385,285.619 66.440 C 288.501 63.490,291.562 59.685,292.423 57.984 C 294.264 54.345,294.992 54.051,295.671 56.671 C 299.127 70.009,321.342 69.845,325.354 56.452 C 327.965 47.740,318.046 38.852,312.086 44.562 C 308.743 47.765,309.060 52.339,312.705 53.496 C 314.762 54.149,313.190 55.236,310.187 55.236 C 305.306 55.236,301.992 51.099,302.804 46.019 C 304.507 35.367,317.749 28.842,326.427 34.378 M188.553 35.298 C 195.539 40.476,193.275 55.040,183.833 65.665 C 180.275 69.668,180.024 69.709,179.490 66.370 C 178.207 58.347,167.835 55.124,163.927 61.535 C 162.480 63.907,162.359 65.409,163.380 68.336 L 164.101 70.405 164.931 68.431 C 166.357 65.040,170.886 65.949,170.886 69.626 C 170.886 75.066,162.381 76.431,153.355 72.440 C 150.964 71.382,150.053 70.668,150.381 70.109 C 150.641 69.666,152.755 66.598,155.079 63.291 C 157.402 59.984,160.900 54.622,162.851 51.376 L 166.399 45.474 167.299 47.579 C 171.442 57.271,187.644 55.685,186.528 45.697 C 186.125 42.084,185.669 41.784,183.918 43.980 C 180.904 47.761,175.316 45.719,175.316 40.838 C 175.316 35.063,183.573 31.607,188.553 35.298 M219.613 34.490 C 225.269 37.415,224.589 45.570,218.690 45.570 C 216.975 45.570,216.180 45.146,215.066 43.638 C 213.751 41.860,213.574 41.795,212.832 42.810 C 209.754 47.020,215.106 53.797,221.508 53.797 C 225.990 53.797,231.646 50.084,231.646 47.141 C 231.646 45.013,232.954 45.860,234.841 49.209 C 235.968 51.210,239.587 56.781,242.881 61.587 C 246.176 66.394,248.770 70.418,248.645 70.530 C 241.601 76.836,226.362 74.994,228.106 68.048 C 228.840 65.120,234.177 65.442,234.177 68.414 C 234.177 70.533,235.302 69.161,235.753 66.493 C 236.942 59.456,230.069 55.526,223.539 59.509 C 221.493 60.757,219.030 64.957,219.001 67.247 C 218.925 73.290,208.119 56.793,206.664 48.411 C 204.775 37.532,211.505 30.297,219.613 34.490 M200.008 51.145 C 200.061 58.530,210.550 71.975,224.664 82.751 C 224.828 82.876,223.979 83.746,222.779 84.685 C 210.741 94.099,200.000 108.435,200.000 115.088 C 200.000 117.477,198.851 117.120,198.425 114.597 C 197.158 107.104,189.879 96.638,180.358 88.623 C 174.552 83.736,174.087 83.185,175.125 82.427 C 187.092 73.695,197.092 60.649,198.482 51.957 C 198.874 49.503,199.992 48.908,200.008 51.145 M271.519 72.195 C 271.519 72.415,269.784 74.104,267.664 75.948 L 263.808 79.302 260.268 75.705 L 256.728 72.108 260.465 68.332 L 264.202 64.556 267.861 68.176 C 269.873 70.167,271.519 71.976,271.519 72.195 M138.608 68.672 L 142.047 72.154 138.290 75.951 L 134.532 79.748 130.890 76.144 L 127.248 72.541 130.554 68.937 C 134.661 64.461,134.457 64.468,138.608 68.672 M384.844 76.615 C 390.609 79.517,389.666 87.765,383.290 90.200 C 376.231 92.896,353.202 89.704,343.599 84.699 C 340.579 83.125,340.565 83.301,343.877 81.360 C 352.910 76.067,377.984 73.162,384.844 76.615 M43.828 77.767 C 51.649 79.826,57.905 82.531,57.259 83.576 C 54.434 88.147,23.899 93.276,15.674 90.562 C 8.830 88.303,8.259 79.560,14.757 76.503 C 19.029 74.493,33.838 75.137,43.828 77.767 M149.210 87.169 L 145.584 90.794 142.096 87.349 C 137.908 83.213,137.930 84.017,141.880 79.536 L 145.135 75.843 148.985 79.694 L 152.835 83.544 149.210 87.169 M256.997 86.977 L 253.222 90.753 251.537 88.889 C 250.611 87.864,248.960 86.079,247.869 84.923 L 245.886 82.821 249.661 79.381 L 253.436 75.941 257.105 79.572 L 260.773 83.202 256.997 86.977 M278.936 79.251 C 283.045 83.309,283.048 83.144,278.797 87.342 L 275.316 90.780 271.835 87.342 C 267.595 83.154,267.601 83.398,271.656 79.292 C 275.639 75.258,274.898 75.263,278.936 79.251 M315.242 77.683 C 321.387 80.440,322.562 82.728,319.374 85.734 C 312.438 92.275,290.506 90.439,290.506 83.317 C 290.506 77.393,306.484 73.755,315.242 77.683 M103.967 78.698 C 111.719 82.491,109.818 86.719,99.051 89.634 C 92.008 91.541,83.063 89.834,79.197 85.846 C 72.607 79.046,92.780 73.225,103.967 78.698 M127.057 79.740 C 131.121 83.558,131.129 83.164,126.891 87.349 L 123.403 90.794 119.785 87.177 L 116.168 83.559 119.613 80.071 C 123.734 75.898,123.001 75.930,127.057 79.740 M141.768 94.286 C 141.765 94.470,140.187 96.309,138.262 98.373 L 134.760 102.126 130.987 98.392 L 127.214 94.658 130.789 91.045 L 134.365 87.432 138.068 90.692 C 140.105 92.485,141.770 94.103,141.768 94.286 M268.354 90.823 L 271.792 94.304 268.354 97.785 C 266.464 99.699,264.612 101.266,264.241 101.266 C 263.869 101.266,262.017 99.699,260.127 97.785 L 256.689 94.304 260.127 90.823 C 262.017 88.908,263.869 87.342,264.241 87.342 C 264.612 87.342,266.464 88.908,268.354 90.823 M331.644 98.318 C 342.930 121.244,326.201 143.338,308.043 129.488 C 300.038 123.382,301.590 110.759,310.345 110.759 C 313.380 110.759,313.656 111.563,311.397 113.822 C 309.251 115.968,309.082 116.989,310.439 119.613 C 315.323 129.058,329.337 118.806,325.163 108.842 C 319.806 96.057,302.328 95.773,296.281 108.372 L 294.428 112.234 292.452 108.320 C 291.137 105.716,288.693 102.639,285.149 99.127 L 279.823 93.848 281.577 91.747 L 283.331 89.646 289.925 92.560 C 303.315 98.478,310.819 98.312,321.476 91.862 L 325.548 89.397 327.622 91.881 C 328.764 93.247,330.573 96.144,331.644 98.318 M75.246 90.908 C 85.647 98.193,95.453 98.924,107.779 93.334 C 111.333 91.721,114.567 90.264,114.967 90.095 C 115.366 89.926,116.461 90.794,117.399 92.025 L 119.105 94.261 115.200 97.877 C 111.083 101.689,106.246 107.988,105.036 111.115 L 104.315 112.975 103.094 109.736 C 98.997 98.869,85.841 96.012,77.021 104.073 C 71.459 109.158,71.856 117.948,77.831 121.994 C 84.441 126.469,92.999 119.208,87.342 113.924 C 84.993 111.730,84.994 111.640,87.381 111.163 C 96.456 109.348,99.090 122.626,91.009 129.449 C 70.723 146.576,53.700 116.019,70.658 92.918 C 73.170 89.495,73.207 89.479,75.246 90.908 M243.392 93.114 C 249.414 95.353,249.409 94.927,243.533 103.481 C 240.663 107.658,237.007 113.272,235.408 115.955 L 232.499 120.835 231.381 118.299 C 227.580 109.684,212.025 110.824,212.025 119.718 C 212.025 122.519,213.596 124.979,214.272 123.236 C 215.429 120.250,220.616 119.699,222.483 122.365 C 226.529 128.142,218.500 135.142,211.590 131.863 C 203.294 127.927,205.005 112.036,214.936 100.791 C 218.450 96.811,218.712 96.760,219.223 99.951 C 220.373 107.146,229.332 110.829,234.096 106.065 C 235.899 104.262,236.448 98.221,234.946 96.718 C 234.343 96.115,234.177 96.222,234.177 97.215 C 234.177 98.947,232.980 100.000,231.013 100.000 C 226.123 100.000,227.062 93.163,232.104 92.049 C 233.070 91.836,234.146 91.560,234.494 91.436 C 235.605 91.040,240.087 91.885,243.392 93.114 M167.152 92.486 C 169.785 93.359,170.886 94.649,170.886 96.858 C 170.886 100.974,165.718 101.870,164.683 97.935 L 164.144 95.886 163.338 98.301 C 161.739 103.096,164.295 107.674,169.063 108.550 C 173.500 109.365,178.753 105.245,179.552 100.322 C 180.018 97.451,180.283 97.506,183.727 101.189 C 195.728 114.019,195.469 132.927,183.292 132.907 C 177.114 132.897,172.922 126.227,176.607 122.271 C 178.727 119.996,184.177 120.854,184.177 123.463 C 184.177 124.683,185.945 123.990,186.310 122.627 C 187.322 118.849,186.166 116.131,182.613 113.935 C 177.436 110.736,168.559 113.733,167.386 119.076 C 166.815 121.673,166.381 121.391,163.587 116.615 C 161.324 112.746,158.169 107.939,152.081 99.087 L 149.930 95.958 151.704 95.029 C 157.457 92.014,162.988 91.104,167.152 92.486 M150.609 108.228 C 163.932 130.660,159.084 148.943,138.586 153.572 C 115.571 158.770,101.793 131.392,116.505 109.695 C 122.575 100.742,124.128 99.640,126.780 102.408 C 128.952 104.675,128.976 104.524,125.718 109.097 C 112.570 127.552,117.496 145.448,135.369 144.160 C 153.819 142.830,156.949 127.525,142.869 107.487 L 140.190 103.674 142.386 101.833 L 144.583 99.991 145.998 101.420 C 146.777 102.205,148.851 105.269,150.609 108.228 M256.763 101.629 L 258.898 103.258 257.609 104.952 C 244.509 122.165,243.397 134.079,254.245 141.013 C 267.331 149.377,282.223 140.751,280.811 125.626 C 280.380 121.013,278.342 116.465,273.475 109.259 L 270.111 104.277 272.291 102.097 L 274.471 99.917 277.921 103.644 C 296.049 123.224,289.589 152.243,266.793 153.631 C 240.513 155.232,232.155 126.988,251.717 102.690 C 254.270 99.518,254.055 99.563,256.763 101.629 M137.981 113.301 C 146.596 125.987,143.765 138.366,132.916 135.444 C 124.702 133.232,123.965 123.236,131.203 112.205 C 134.164 107.692,134.174 107.694,137.981 113.301 M266.898 110.918 C 275.212 122.549,274.266 134.228,264.923 135.281 C 254.674 136.436,252.368 125.696,260.322 113.853 C 264.887 107.057,264.319 107.310,266.898 110.918 " stroke="none" fill="#000000" fill-rule="evenodd"></path></g>
<g id="pins" style="display:none">
  <circle id="pinL" cx="93%" cy="50%" r="3" fill="red" stroke="black"/>
  <circle id="pinR" cx="7%" cy="50%" r="3" fill="red" stroke="black"/>
  <!-- etc. -->
</g>


</svg>