
<svg id="svg" xmlns="http://www.w3.org/2000/svg" xmlns:xlink="http://www.w3.org/1999/xlink" width="400" height="162.37037037037035" viewBox="0, 0, 400,162.37037037037035"><g id="svgg"><path id="path0" d="M191.404 27.813 C 187.448 29.016,183.163 32.592,182.258 35.444 C 182.003 36.247,181.137 36.711,179.391 36.981 C 173.690 37.860,171.081 39.168,167.349 43.015 L 163.736 46.741 161.554 44.943 C 153.623 38.405,141.777 40.111,129.680 49.533 C 126.435 52.060,124.306 52.770,123.566 51.572 C 122.665 50.114,117.593 48.497,114.882 48.803 C 113.307 48.981,110.778 48.743,108.956 48.246 C 104.448 47.016,94.505 46.513,91.407 47.358 L 88.889 48.046 88.889 53.356 C 88.889 58.246,88.796 58.667,87.721 58.667 C 85.046 58.667,80.210 61.501,77.285 64.782 C 74.338 68.089,74.303 68.107,72.189 67.459 C 66.688 65.770,64.116 74.043,69.308 76.728 C 71.278 77.746,71.380 78.030,70.555 80.200 C 67.905 87.170,55.704 88.742,55.704 82.113 C 55.704 79.360,58.863 78.342,59.503 80.889 C 60.142 83.438,62.189 82.158,63.993 78.080 C 66.728 71.897,59.705 65.620,52.927 68.188 C 49.826 69.363,46.235 74.006,46.215 76.865 C 46.210 77.608,44.479 78.804,40.437 80.858 C 37.263 82.470,34.267 84.096,33.778 84.471 C 33.289 84.846,31.556 85.486,29.926 85.892 C 28.296 86.299,26.163 86.922,25.185 87.276 C 23.473 87.896,17.849 91.836,17.808 92.444 C 17.747 93.344,25.481 97.476,28.910 98.376 C 31.114 98.955,34.245 100.206,35.866 101.156 C 37.488 102.106,40.481 103.648,42.519 104.583 C 45.551 105.974,46.222 106.538,46.222 107.695 C 46.222 109.819,49.689 114.701,51.969 115.788 C 60.840 120.019,68.702 110.305,62.098 103.275 C 60.787 101.880,59.259 102.309,59.259 104.073 C 59.259 104.938,58.191 105.124,56.641 104.529 C 54.183 103.586,57.083 97.778,60.012 97.778 C 67.213 97.778,73.108 104.495,69.038 108.062 C 65.926 110.789,65.588 113.679,68.088 116.179 C 69.408 117.499,70.250 117.915,70.976 117.604 C 73.607 116.478,75.145 116.606,75.895 118.015 C 77.742 121.489,84.028 125.630,87.457 125.630 C 88.244 125.630,88.911 125.963,88.939 126.370 C 88.966 126.778,89.033 129.232,89.087 131.825 L 89.185 136.538 91.556 137.062 C 94.475 137.706,105.621 137.184,108.444 136.269 C 109.585 135.900,112.282 135.623,114.436 135.655 C 118.471 135.713,121.866 134.716,123.231 133.071 C 124.504 131.538,126.066 132.005,129.999 135.096 C 141.553 144.176,155.962 146.013,162.135 139.192 C 163.168 138.051,164.741 137.675,164.741 138.570 C 164.741 138.843,166.056 140.416,167.663 142.066 C 170.655 145.137,172.573 146.064,178.370 147.238 C 180.983 147.767,181.781 148.212,182.391 149.479 C 186.685 158.403,199.010 158.970,203.760 150.462 C 205.174 147.929,205.555 147.646,207.990 147.315 C 213.491 146.569,216.080 145.281,219.496 141.591 C 223.257 137.529,222.924 137.645,225.390 139.526 C 233.750 145.902,245.268 144.288,256.959 135.100 C 260.897 132.005,262.459 131.537,263.732 133.071 C 265.097 134.716,268.492 135.713,272.526 135.655 C 274.681 135.623,277.378 135.901,278.519 136.273 C 281.366 137.200,293.163 137.743,295.704 137.064 L 297.778 136.509 297.778 131.235 L 297.778 125.961 299.852 125.594 C 303.617 124.928,306.032 123.469,309.485 119.773 L 312.897 116.122 314.676 117.042 C 319.836 119.710,322.561 111.827,317.827 107.925 C 315.367 105.897,315.396 104.321,317.939 101.778 C 323.784 95.933,333.360 97.539,330.900 103.952 C 330.314 105.478,327.986 105.091,327.186 103.334 C 326.496 101.822,326.445 101.809,325.291 102.853 C 319.526 108.070,323.041 116.787,330.883 116.720 C 335.681 116.679,340.741 111.840,340.741 107.291 C 340.741 106.627,342.007 105.710,344.444 104.609 C 346.481 103.688,349.615 102.075,351.407 101.023 C 353.200 99.971,356.133 98.775,357.926 98.365 C 361.707 97.499,363.193 96.802,366.705 94.244 L 369.261 92.382 366.408 90.149 C 363.428 87.815,361.939 87.134,357.059 85.870 C 354.520 85.213,352.423 84.216,348.444 81.778 C 347.956 81.478,346.022 80.512,344.148 79.631 C 341.778 78.518,340.741 77.691,340.741 76.917 C 340.741 75.363,338.756 71.658,337.095 70.114 C 328.984 62.569,317.318 72.987,324.872 81.029 C 326.479 82.739,326.896 82.716,327.354 80.889 C 327.999 78.320,331.259 79.341,331.259 82.113 C 331.259 84.505,329.062 86.519,326.452 86.519 C 320.786 86.519,313.229 79.393,316.743 77.364 C 322.704 73.922,320.902 65.617,314.604 67.504 C 312.380 68.171,312.043 68.141,311.534 67.230 C 309.214 63.085,302.673 58.667,298.857 58.667 L 297.304 58.667 297.681 53.354 L 298.058 48.041 295.548 47.356 C 292.458 46.513,282.509 47.017,278.007 48.246 C 276.185 48.743,273.656 48.981,272.081 48.803 C 269.370 48.497,264.298 50.114,263.397 51.572 C 262.640 52.797,260.309 52.044,257.353 49.619 C 246.102 40.390,233.648 38.446,225.762 44.687 L 223.201 46.714 219.600 43.001 C 215.888 39.173,213.266 37.859,207.599 36.985 C 205.576 36.673,204.990 36.279,204.389 34.830 C 203.462 32.591,198.557 28.675,195.676 27.875 C 193.221 27.194,193.430 27.197,191.404 27.813 M196.187 36.762 C 198.165 37.820,195.998 42.074,193.481 42.074 C 192.520 42.074,189.630 39.344,189.630 38.437 C 189.630 36.438,193.660 35.409,196.187 36.762 M183.648 46.091 C 185.736 47.650,186.590 50.701,185.300 51.991 C 184.409 52.882,184.223 52.835,182.863 51.367 C 177.298 45.362,170.407 55.819,175.747 62.165 C 179.478 66.600,189.071 65.631,191.370 60.587 C 192.464 58.185,193.638 58.341,196.175 61.224 C 202.284 68.163,213.333 65.155,213.333 56.553 C 213.333 51.003,207.483 47.717,204.100 51.367 C 202.762 52.811,202.543 52.871,201.697 52.025 C 199.436 49.764,202.320 45.338,206.457 44.721 C 219.160 42.824,221.800 63.839,210.082 73.571 C 208.966 74.498,208.792 74.450,206.807 72.656 C 205.079 71.095,200.759 67.722,194.387 62.959 C 193.338 62.175,192.861 62.492,182.118 71.131 C 177.531 74.819,177.168 74.803,174.196 70.779 C 167.097 61.169,167.822 48.890,175.704 45.250 C 177.950 44.212,181.657 44.605,183.648 46.091 M155.852 51.143 C 160.495 53.493,161.405 54.699,161.259 58.308 C 161.186 60.115,161.539 62.811,162.044 64.299 C 164.504 71.542,161.163 70.084,147.326 57.871 C 145.052 55.864,142.374 53.507,141.374 52.633 L 139.556 51.044 141.037 50.422 C 143.413 49.423,153.415 49.910,155.852 51.143 M246.535 50.742 C 246.976 51.183,244.512 53.626,238.230 58.976 C 224.631 70.557,222.318 71.481,224.906 64.296 C 225.376 62.993,225.764 60.304,225.769 58.323 C 225.778 54.437,227.603 52.338,232.593 50.470 C 234.768 49.656,245.661 49.869,246.535 50.742 M105.481 54.620 C 105.481 55.002,105.059 55.781,104.542 56.352 C 104.026 56.923,103.455 58.496,103.273 59.849 C 102.908 62.571,102.245 62.670,97.960 60.644 C 96.291 59.854,96.134 59.581,96.627 58.319 C 96.934 57.532,97.445 56.222,97.763 55.407 C 98.402 53.769,105.481 53.047,105.481 54.620 M289.243 55.556 C 290.813 59.675,290.690 60.095,287.603 61.202 C 283.909 62.526,283.852 62.517,283.850 60.593 C 283.848 59.696,283.315 58.090,282.664 57.023 C 280.931 54.179,281.126 53.926,285.052 53.926 C 288.401 53.926,288.660 54.027,289.243 55.556 M133.630 55.991 C 134.607 56.388,137.807 58.917,140.741 61.611 C 143.674 64.306,147.052 67.135,148.246 67.898 C 151.463 69.952,151.485 70.400,148.433 71.709 C 146.919 72.358,145.482 72.889,145.241 72.889 C 144.889 72.889,138.422 67.564,133.302 63.060 C 132.288 62.167,132.750 61.801,122.793 71.381 L 117.882 76.105 116.090 74.053 C 110.145 67.242,109.904 58.667,115.659 58.667 C 117.622 58.667,117.917 60.188,116.402 62.500 C 114.620 65.220,118.424 68.631,122.407 67.884 C 126.317 67.150,127.972 63.543,127.420 56.957 C 127.212 54.470,129.144 54.169,133.630 55.991 M258.618 54.878 C 259.355 55.161,259.556 56.167,259.556 59.573 C 259.556 63.361,259.747 64.137,261.073 65.712 C 264.731 70.060,272.949 67.300,270.486 62.551 C 268.794 59.290,269.940 57.431,272.831 58.748 C 277.018 60.656,276.109 67.768,270.877 74.042 L 269.174 76.085 262.186 69.450 C 253.869 61.552,255.271 61.710,248.000 67.846 C 241.205 73.581,242.069 73.226,238.568 71.725 C 235.205 70.283,235.204 70.040,238.552 67.925 C 240.036 66.988,243.656 64.003,246.597 61.292 C 249.889 58.259,252.895 56.027,254.417 55.488 C 257.397 54.432,257.439 54.426,258.618 54.878 M98.128 70.506 C 101.850 72.383,110.769 78.881,111.559 80.291 C 112.058 81.184,110.286 83.015,103.242 88.884 C 98.903 92.498,98.630 91.691,106.484 98.499 C 112.968 104.121,112.931 103.351,106.952 108.182 C 93.607 118.967,81.210 118.522,79.108 107.183 C 78.039 101.411,85.246 97.241,88.830 101.559 C 89.855 102.794,89.022 104.409,87.719 103.712 C 86.219 102.909,84.483 104.903,85.054 106.772 C 86.190 110.495,89.961 112.064,94.035 110.508 C 99.544 108.404,99.912 100.710,94.770 95.131 C 91.954 92.076,91.955 92.560,94.767 89.604 C 101.568 82.454,97.825 71.235,89.397 73.504 C 87.155 74.108,84.749 76.755,84.743 78.624 C 84.739 79.754,86.598 81.282,87.537 80.921 C 90.038 79.961,89.627 82.551,87.069 83.874 C 81.946 86.523,77.383 81.233,79.730 75.366 C 82.401 68.691,90.358 66.589,98.128 70.506 M303.254 70.291 C 306.213 72.548,307.551 75.076,307.553 78.416 C 307.558 83.805,302.342 86.585,298.593 83.193 C 297.022 81.771,297.134 80.363,298.784 80.795 C 301.787 81.580,302.758 77.434,300.140 75.007 C 291.852 67.326,284.248 81.248,292.178 89.584 C 295.025 92.577,295.021 92.316,292.258 94.935 C 288.639 98.365,287.479 104.536,289.753 108.266 C 291.909 111.802,298.431 112.155,300.739 108.860 C 302.478 106.377,301.348 102.413,299.268 103.699 C 298.805 103.984,298.214 104.087,297.954 103.926 C 297.054 103.369,297.488 101.949,298.815 101.109 C 307.045 95.897,311.394 108.809,303.237 114.240 C 297.135 118.303,288.327 115.550,277.573 106.219 L 274.667 103.696 279.103 99.700 C 281.543 97.502,284.422 94.904,285.500 93.926 L 287.460 92.148 281.243 86.815 C 274.050 80.644,274.167 81.293,279.452 76.833 C 288.949 68.818,298.045 66.318,303.254 70.291 M136.173 76.022 C 139.335 79.245,139.355 79.127,135.004 82.979 C 128.970 88.320,129.565 88.178,126.360 85.046 L 123.556 82.307 128.286 77.894 C 133.867 72.688,133.083 72.874,136.173 76.022 M258.667 77.919 L 263.407 82.322 260.603 85.054 C 257.379 88.195,257.996 88.359,251.672 82.676 L 247.726 79.129 250.507 76.305 C 253.907 72.853,253.025 72.679,258.667 77.919 M197.193 77.832 C 198.811 78.920,200.571 79.979,201.105 80.183 C 202.597 80.756,202.285 81.504,199.635 83.705 L 197.196 85.731 200.080 88.482 C 203.439 91.686,204.100 91.811,206.338 89.667 L 208.000 88.075 209.778 89.778 C 211.950 91.858,212.001 92.785,210.044 94.599 C 208.182 96.324,208.354 96.330,205.873 94.438 C 203.579 92.688,203.927 92.562,199.249 96.848 L 197.313 98.622 199.694 100.798 C 202.319 103.198,202.694 104.296,200.889 104.296 C 200.237 104.296,199.704 104.520,199.704 104.794 C 199.704 105.067,199.104 105.586,198.370 105.947 C 197.637 106.308,196.218 107.147,195.216 107.812 L 193.395 109.020 189.760 106.658 C 187.761 105.359,185.847 104.296,185.507 104.296 C 184.137 104.296,185.026 102.510,187.287 100.719 C 190.009 98.563,189.940 98.353,185.320 94.689 L 183.085 92.917 180.941 94.551 C 178.578 96.354,177.753 96.181,176.158 93.546 C 174.260 90.409,178.251 87.127,180.741 89.778 C 182.660 91.821,183.446 91.663,186.753 88.569 L 189.630 85.878 187.111 83.478 C 185.726 82.158,184.859 80.968,185.185 80.834 C 185.511 80.700,187.244 79.544,189.037 78.265 C 193.059 75.395,193.535 75.370,197.193 77.832 M168.444 79.901 C 171.420 81.750,171.460 81.666,165.075 86.938 C 158.572 92.309,158.646 92.121,161.974 94.815 C 163.383 95.956,165.976 98.184,167.736 99.767 L 170.936 102.645 169.557 103.762 C 167.368 105.534,162.561 106.667,157.226 106.667 C 151.331 106.667,150.973 106.053,154.963 102.783 C 158.247 100.092,158.263 100.360,154.610 96.649 L 151.591 93.582 148.442 96.272 C 144.599 99.556,145.215 99.585,140.990 95.911 C 136.733 92.209,136.740 92.699,140.889 88.663 C 144.999 84.664,144.885 84.675,148.148 88.000 C 151.375 91.287,151.328 91.288,154.794 87.874 C 158.241 84.479,158.234 84.730,154.963 81.715 C 151.165 78.214,151.349 78.069,159.259 78.309 C 165.302 78.492,166.516 78.702,168.444 79.901 M234.667 78.785 C 234.667 79.095,233.467 80.351,232.000 81.577 C 228.706 84.331,228.707 84.360,232.126 87.831 C 235.514 91.271,235.142 91.262,238.815 88.000 C 242.529 84.701,242.017 84.639,246.233 88.899 L 249.761 92.465 246.214 95.687 C 241.912 99.594,242.311 99.562,238.491 96.299 L 235.373 93.635 232.353 96.593 C 228.687 100.182,228.695 100.005,232.063 102.980 C 235.480 106.001,235.233 106.373,229.667 106.580 C 224.689 106.765,219.679 105.609,217.404 103.749 L 216.000 102.602 218.328 100.458 C 219.608 99.278,222.207 97.060,224.103 95.527 C 228.432 92.029,228.536 92.428,221.855 86.911 C 215.629 81.769,215.522 81.465,219.266 79.556 C 222.048 78.137,234.667 77.506,234.667 78.785 M48.593 85.342 C 48.593 85.673,49.561 87.402,50.744 89.185 L 52.896 92.425 51.425 94.361 C 50.615 95.425,49.508 97.162,48.963 98.219 L 47.973 100.142 41.616 96.953 C 38.120 95.199,34.659 93.583,33.926 93.361 C 31.726 92.695,32.282 92.232,39.852 88.422 C 47.162 84.742,48.593 84.238,48.593 85.342 M347.071 88.326 C 351.086 90.298,354.370 92.019,354.370 92.149 C 354.370 92.392,339.115 100.148,338.636 100.148 C 338.490 100.148,338.370 99.811,338.370 99.399 C 338.370 98.988,337.437 97.265,336.296 95.571 C 335.156 93.877,334.222 92.348,334.222 92.173 C 334.222 91.998,335.156 90.555,336.296 88.968 C 337.437 87.380,338.370 85.779,338.370 85.411 C 338.370 84.243,339.595 84.654,347.071 88.326 M121.066 89.952 L 123.262 92.201 120.930 94.478 L 118.598 96.755 116.188 94.846 C 113.240 92.511,113.235 92.373,116.000 89.802 C 118.737 87.257,118.426 87.248,121.066 89.952 M270.844 89.630 C 273.747 92.039,273.741 92.392,270.763 94.785 L 268.341 96.732 266.021 94.466 L 263.701 92.201 265.897 89.952 C 268.530 87.256,268.024 87.289,270.844 89.630 M75.259 92.459 C 75.259 92.655,74.526 93.515,73.630 94.370 L 72.000 95.925 69.195 94.085 L 66.390 92.246 69.195 90.303 L 72.000 88.360 73.630 90.232 C 74.526 91.261,75.259 92.264,75.259 92.459 M319.975 92.410 C 319.962 92.592,318.829 93.459,317.457 94.337 L 314.963 95.932 313.333 94.374 C 311.332 92.459,311.327 92.264,313.239 90.119 L 314.774 88.396 317.387 90.238 C 318.824 91.251,319.989 92.229,319.975 92.410 M138.086 104.607 C 138.973 105.675,137.727 107.766,134.983 109.815 C 133.177 111.163,133.164 111.156,127.390 105.914 L 123.624 102.495 126.504 99.571 L 129.384 96.647 133.350 100.163 C 135.531 102.096,137.662 104.097,138.086 104.607 M259.577 105.868 C 253.522 111.537,253.586 111.520,250.392 108.325 L 247.673 105.606 250.799 102.652 C 252.519 101.028,254.726 99.013,255.704 98.176 L 257.481 96.654 260.380 99.528 L 263.278 102.403 259.577 105.868 M121.481 112.102 C 123.274 113.774,126.407 116.725,128.445 118.658 C 132.630 122.630,132.350 122.601,135.811 119.407 C 137.224 118.104,139.910 115.750,141.782 114.177 L 145.184 111.316 148.244 112.770 L 151.303 114.224 148.688 116.113 C 147.250 117.153,143.836 120.052,141.101 122.557 C 134.770 128.355,133.591 129.095,130.355 129.308 L 127.704 129.481 127.407 124.539 C 127.137 120.037,126.963 119.470,125.448 118.169 C 121.399 114.690,113.680 117.947,116.484 121.951 C 118.787 125.239,115.752 127.658,112.902 124.807 C 110.064 121.970,110.999 116.955,115.373 111.556 C 117.881 108.459,117.546 108.429,121.481 112.102 M271.602 111.556 C 276.426 117.476,276.793 124.850,272.319 125.973 C 269.893 126.582,268.489 124.044,270.269 122.265 C 272.727 119.806,268.562 115.845,264.486 116.765 C 260.838 117.588,259.940 119.019,259.578 124.587 L 259.259 129.481 256.608 129.308 C 253.375 129.096,252.141 128.331,245.946 122.696 C 243.276 120.267,239.915 117.467,238.478 116.474 C 235.240 114.235,235.228 114.353,238.848 112.693 L 241.844 111.318 248.035 116.716 C 255.292 123.043,254.010 123.196,262.222 115.025 C 269.086 108.196,268.916 108.259,271.602 111.556 M179.653 111.398 C 185.700 116.537,193.348 122.047,193.950 121.698 C 195.080 121.043,206.283 112.411,207.498 111.259 C 209.058 109.781,209.399 109.907,212.071 112.942 C 218.393 120.125,219.610 131.083,214.699 136.611 C 210.847 140.946,203.929 141.049,201.733 136.803 C 199.718 132.905,201.515 130.495,204.334 133.314 C 208.407 137.387,214.032 132.944,213.054 126.425 C 211.814 118.154,200.018 116.743,195.259 124.296 C 193.725 126.731,193.229 126.669,191.237 123.791 C 187.105 117.819,177.948 117.856,174.729 123.857 C 171.127 130.574,177.741 138.448,182.608 133.237 C 185.073 130.599,186.683 131.928,185.560 135.675 C 184.119 140.486,176.534 141.480,172.964 137.325 C 167.371 130.817,168.181 120.566,174.892 112.942 C 177.619 109.844,177.768 109.796,179.653 111.398 M162.963 116.666 C 162.963 117.277,162.563 118.911,162.074 120.296 C 161.585 121.682,161.185 124.350,161.185 126.226 C 161.185 131.749,155.756 135.111,147.292 134.830 C 138.442 134.536,138.296 134.241,144.444 129.058 C 146.970 126.929,150.979 123.544,153.353 121.535 C 160.122 115.809,162.963 114.370,162.963 116.666 M227.490 116.889 C 228.774 117.622,231.248 119.447,232.987 120.945 C 234.726 122.443,238.415 125.607,241.185 127.977 C 248.609 134.329,248.590 134.438,239.981 134.735 C 231.287 135.035,225.778 131.750,225.778 126.267 C 225.778 124.369,225.378 121.682,224.889 120.296 C 223.167 115.415,223.695 114.723,227.490 116.889 M102.982 123.886 C 103.011 124.882,103.588 126.636,104.264 127.783 C 105.833 130.442,105.466 130.965,102.039 130.954 C 98.529 130.942,98.171 130.682,97.037 127.311 L 96.107 124.548 98.868 123.359 C 102.602 121.751,102.923 121.792,102.982 123.886 M287.655 123.238 C 290.736 124.559,290.699 124.455,289.426 128.191 L 288.481 130.963 285.259 130.963 C 281.638 130.963,280.620 129.934,282.349 128.024 C 282.905 127.410,283.506 125.819,283.684 124.490 C 284.058 121.700,284.062 121.698,287.655 123.238 M196.389 144.401 L 198.099 145.986 196.498 147.364 C 194.075 149.447,189.630 148.708,189.630 146.222 C 189.630 143.119,193.796 141.996,196.389 144.401 " stroke="none" fill="#000000" fill-rule="evenodd"></path></g>


<g id="pins" style="display:none">
  <circle id="pinL" cx="11%" cy="57%" r="3" fill="red" stroke="black"/>
  <circle id="pinR" cx="86%" cy="57%" r="3" fill="red" stroke="black"/>
  <!-- etc. -->
</g>

</svg>
