
<svg id="svg" xmlns="http://www.w3.org/2000/svg" xmlns:xlink="http://www.w3.org/1999/xlink" width="400" height="208.99653979238755" viewBox="0, 0, 400,208.99653979238755"><g id="svgg"><path id="path0" d="M195.038 3.724 C 188.331 9.884,186.856 21.042,191.539 30.197 L 193.711 34.442 191.633 36.079 C 182.511 43.267,170.892 41.484,169.120 32.624 L 168.668 30.367 170.786 32.484 C 177.513 39.211,187.297 30.173,182.377 21.777 C 176.543 11.823,160.873 16.933,159.995 29.076 C 159.830 31.354,159.499 33.211,159.259 33.202 C 159.020 33.193,156.509 32.570,153.680 31.818 C 134.979 26.845,111.656 37.997,101.783 56.633 L 100.926 58.249 99.359 56.125 C 90.467 44.073,70.040 47.714,63.363 62.541 L 61.845 65.913 59.593 62.405 C 55.486 56.004,46.821 49.788,44.809 51.800 C 43.703 52.907,43.772 63.914,44.903 66.705 C 45.957 69.306,45.595 69.556,42.836 68.130 C 17.119 54.831,-11.398 79.695,4.381 101.659 C 6.709 104.899,6.766 105.115,5.591 106.179 C 0.274 110.991,-1.508 123.290,2.076 130.442 C 8.732 143.725,26.506 148.645,42.082 141.514 C 44.950 140.201,45.725 140.048,45.414 140.859 C 43.558 145.693,43.471 158.478,45.294 158.478 C 48.341 158.478,56.102 152.221,59.294 147.191 L 61.742 143.333 63.736 147.323 C 70.602 161.062,89.048 164.983,98.154 154.639 L 100.832 151.597 103.148 154.864 C 109.187 163.385,118.712 171.603,127.303 175.706 L 132.526 178.201 143.253 178.183 C 151.805 178.169,154.511 177.928,156.605 176.995 C 159.566 175.674,159.578 175.686,160.062 180.739 C 161.204 192.674,176.032 197.209,182.505 187.603 C 188.006 179.441,177.203 169.879,170.567 177.036 C 168.487 179.278,168.116 177.594,169.990 174.422 C 174.011 167.615,183.449 166.839,190.727 172.717 L 193.564 175.009 191.459 179.373 C 184.365 194.080,194.261 214.736,204.130 205.820 C 210.832 199.766,212.337 189.242,207.924 179.305 L 205.955 174.874 208.289 172.925 C 216.319 166.222,228.200 168.339,230.132 176.817 L 230.605 178.893 228.819 177.043 C 221.864 169.841,211.319 179.845,217.187 188.078 C 223.817 197.380,239.446 191.685,239.446 179.968 C 239.446 175.863,239.680 175.653,242.790 176.977 C 246.608 178.603,261.449 179.020,266.782 177.651 C 276.122 175.254,288.708 165.579,295.359 155.685 C 298.365 151.211,298.499 151.169,300.751 153.993 C 309.944 165.523,331.405 160.539,336.549 145.680 L 337.462 143.043 339.436 146.435 C 342.579 151.838,350.461 158.478,353.731 158.478 C 355.601 158.478,356.178 149.559,354.671 143.945 C 354.109 141.851,353.646 140.078,353.641 140.004 C 353.637 139.930,355.292 140.628,357.319 141.556 C 372.868 148.675,390.740 143.698,397.268 130.432 C 400.777 123.301,399.157 111.309,394.035 106.497 L 392.458 105.015 394.860 101.869 C 402.833 91.427,399.570 75.738,388.017 68.970 C 378.017 63.112,367.661 63.048,354.972 68.766 C 353.993 69.207,353.987 68.771,354.910 64.212 C 355.921 59.217,355.683 54.075,354.341 51.921 C 352.814 49.469,344.402 55.546,339.815 62.414 C 338.113 64.964,337.022 66.091,337.018 65.304 C 337.007 63.247,333.215 57.192,330.376 54.699 C 320.804 46.295,305.966 47.388,299.414 56.981 C 298.620 58.144,298.334 57.938,296.059 54.559 C 283.146 35.378,263.582 26.614,245.329 31.834 C 239.108 33.613,239.446 33.707,239.446 30.188 C 239.446 17.362,222.768 11.334,216.777 21.995 C 212.173 30.186,221.944 39.062,228.427 32.579 C 231.345 29.661,231.225 32.334,228.273 36.008 C 223.893 41.459,216.579 42.216,210.203 37.879 C 205.987 35.012,205.809 34.288,208.105 29.348 C 214.870 14.796,204.699 -5.150,195.038 3.724 M200.974 17.984 C 200.991 19.702,200.745 22.042,200.428 23.183 L 199.851 25.260 199.148 23.529 C 197.538 19.565,198.506 10.504,200.214 13.555 C 200.615 14.273,200.958 16.266,200.974 17.984 M146.367 40.138 L 147.751 40.733 146.367 40.782 C 138.229 41.072,127.336 53.238,127.336 62.038 C 127.336 64.117,127.144 64.430,126.125 64.015 C 122.071 62.365,115.106 60.208,113.835 60.208 C 111.373 60.208,111.344 59.465,113.686 56.478 C 122.935 44.687,138.658 36.826,146.367 40.138 M261.642 40.214 C 269.735 41.949,276.300 46.130,283.604 54.198 C 288.247 59.327,288.307 59.867,284.301 60.485 C 282.898 60.701,279.693 61.652,277.178 62.599 C 272.292 64.438,272.305 64.443,271.731 60.554 C 270.855 54.614,269.069 51.199,264.606 46.927 C 261.854 44.292,255.381 40.886,252.941 40.789 L 251.557 40.733 252.941 40.138 C 254.889 39.301,257.493 39.324,261.642 40.214 M202.356 43.908 L 204.366 45.551 202.804 50.630 C 201.946 53.424,200.851 56.778,200.371 58.085 L 199.499 60.461 198.763 58.085 C 197.566 54.217,195.634 47.485,195.401 46.367 C 194.774 43.355,199.595 41.651,202.356 43.908 M160.522 50.563 C 163.210 51.543,166.700 53.876,171.651 58.002 L 178.864 64.014 172.996 64.447 C 169.351 64.717,165.310 65.554,162.328 66.657 C 156.938 68.652,156.686 68.616,156.059 65.762 C 155.542 63.406,152.144 60.996,148.731 60.564 C 143.104 59.852,138.484 65.776,140.772 70.769 C 141.783 72.975,139.153 71.313,137.949 68.986 C 131.960 57.403,146.572 45.477,160.522 50.563 M253.595 51.144 C 261.623 54.783,264.915 63.149,260.907 69.723 C 259.153 72.600,258.027 72.673,258.835 69.857 C 261.542 60.418,247.283 56.806,243.186 65.891 C 242.293 67.872,241.694 68.446,240.885 68.096 C 235.581 65.797,229.595 64.358,225.284 64.346 L 220.415 64.331 223.875 61.218 C 237.412 49.036,244.013 46.799,253.595 51.144 M187.865 54.594 C 188.573 57.111,189.313 59.618,189.510 60.166 C 189.707 60.713,187.167 58.845,183.865 56.013 C 176.705 49.872,176.794 50.192,182.221 50.096 L 186.577 50.018 187.865 54.594 M221.277 50.842 C 221.370 50.914,218.740 53.277,215.433 56.093 C 212.126 58.908,209.591 60.753,209.800 60.191 C 210.008 59.629,210.716 57.457,211.372 55.363 C 212.027 53.270,212.687 51.164,212.838 50.684 C 213.064 49.961,220.313 50.097,221.277 50.842 M88.173 59.099 C 91.658 60.555,91.692 61.386,88.266 61.311 C 78.199 61.093,78.241 75.804,88.312 77.441 L 90.901 77.861 90.735 82.413 C 90.548 87.576,92.850 94.494,95.819 97.697 C 97.856 99.893,97.581 100.276,94.256 99.878 C 87.001 99.008,82.393 96.898,77.276 92.106 C 63.626 79.321,72.469 52.537,88.173 59.099 M321.156 60.035 C 335.762 67.433,329.564 92.807,311.765 98.486 C 303.331 101.177,300.882 100.646,304.098 96.823 C 306.815 93.595,308.651 87.751,308.651 82.327 C 308.651 77.520,308.655 77.509,310.573 77.509 C 314.001 77.509,318.041 73.920,318.726 70.265 C 319.692 65.116,314.862 60.186,309.916 61.272 C 307.182 61.872,307.874 60.481,310.983 59.128 C 314.274 57.696,317.023 57.941,321.156 60.035 M123.384 73.454 C 127.204 75.396,134.017 80.029,136.874 82.627 L 139.145 84.692 134.798 89.086 C 119.372 104.675,92.656 95.295,101.744 77.481 C 103.505 74.030,104.535 73.933,103.777 77.290 C 102.913 81.122,104.357 83.945,107.907 85.366 C 114.834 88.138,120.944 83.125,120.226 75.260 C 120.061 73.452,120.049 71.972,120.198 71.972 C 120.348 71.972,121.781 72.639,123.384 73.454 M279.392 74.765 C 278.306 82.864,284.279 88.215,291.280 85.414 C 294.735 84.032,296.486 80.997,295.909 77.392 C 295.403 74.224,296.280 74.331,297.995 77.645 C 304.095 89.443,288.971 101.515,274.752 96.198 C 270.527 94.618,260.900 86.724,260.900 84.840 C 260.900 82.948,276.401 72.032,279.157 71.983 C 279.492 71.977,279.598 73.229,279.392 74.765 M38.869 76.765 C 44.528 79.732,45.217 80.291,54.671 89.568 C 62.586 97.335,67.683 101.338,71.861 103.068 C 74.814 104.291,74.631 104.872,70.660 106.884 C 66.182 109.153,58.301 115.583,52.011 122.099 C 45.824 128.509,43.817 130.072,38.184 132.866 C 22.351 140.721,4.705 129.524,10.619 115.376 C 12.478 110.929,15.010 110.135,13.698 114.410 C 11.516 121.519,21.215 126.877,26.809 121.654 C 31.304 117.455,31.852 111.427,28.189 106.472 C 26.819 104.620,26.819 104.605,28.180 102.652 C 32.960 95.794,30.264 87.435,22.670 85.565 C 16.852 84.132,10.949 91.695,14.114 96.526 C 15.669 98.899,14.537 98.727,12.142 96.226 C 9.988 93.978,9.126 89.375,9.993 84.753 C 11.758 75.346,27.731 70.927,38.869 76.765 M183.683 76.128 C 191.658 80.234,194.507 91.011,189.030 96.353 C 186.839 98.491,186.743 98.520,187.294 96.886 C 190.490 87.412,179.285 81.094,173.271 88.978 C 170.078 93.164,170.206 98.055,173.652 103.489 C 174.429 104.716,174.309 105.255,172.741 107.565 C 170.675 110.609,170.319 115.149,171.907 118.200 C 177.258 128.486,191.249 123.265,187.126 112.521 C 186.328 110.442,188.185 111.419,189.940 114.001 C 196.265 123.309,187.160 135.619,173.937 135.636 C 165.413 135.648,158.310 131.279,146.225 118.591 C 141.199 113.314,135.671 108.112,133.941 107.030 C 130.089 104.621,130.089 104.601,133.820 102.244 C 136.996 100.237,141.148 96.340,150.850 86.256 C 162.145 74.518,173.658 70.966,183.683 76.128 M232.243 75.003 C 238.789 76.746,244.941 81.651,255.553 93.586 C 257.831 96.149,261.831 99.704,264.440 101.488 L 269.185 104.729 265.092 107.404 C 262.841 108.875,257.200 114.113,252.557 119.044 C 243.324 128.849,239.170 132.018,232.683 134.203 C 220.157 138.423,207.439 131.608,207.439 120.677 C 207.439 117.581,209.538 112.111,210.726 112.111 C 210.855 112.111,211.508 111.900,212.179 111.643 C 213.330 111.201,213.333 111.268,212.235 112.835 C 208.778 117.770,213.782 124.530,220.250 123.662 C 227.246 122.724,230.765 113.752,226.566 107.564 C 225.143 105.467,224.925 104.673,225.542 103.834 C 231.331 95.962,227.583 85.582,218.952 85.582 C 213.123 85.582,209.526 91.195,212.128 96.228 C 213.381 98.649,212.581 98.901,210.588 96.713 C 200.071 85.166,214.832 70.367,232.243 75.003 M379.265 75.096 C 389.171 78.591,393.080 89.077,387.118 96.162 C 385.079 98.585,383.468 99.036,385.082 96.732 C 389.634 90.233,379.745 82.128,373.157 86.958 C 368.714 90.215,367.570 97.697,370.818 102.259 L 372.336 104.391 370.597 107.662 C 367.444 113.592,369.021 120.405,374.105 122.818 C 380.939 126.061,388.773 119.478,385.294 113.417 C 383.738 110.705,385.504 110.631,387.425 113.328 C 394.565 123.356,386.188 135.257,371.972 135.284 C 363.141 135.300,358.216 132.584,346.492 121.228 C 338.137 113.137,334.809 110.490,327.423 106.064 L 325.088 104.665 329.499 102.094 C 334.680 99.074,339.800 94.791,348.637 86.084 C 359.648 75.234,369.568 71.675,379.265 75.096 M204.027 103.632 C 204.984 104.399,204.906 104.710,203.327 106.400 C 202.349 107.448,201.096 109.194,200.543 110.282 L 199.537 112.259 198.675 110.177 C 198.201 109.032,197.090 107.416,196.207 106.587 L 194.601 105.078 197.128 101.429 L 199.654 97.780 201.301 100.274 C 202.207 101.646,203.434 103.157,204.027 103.632 M96.391 110.900 C 92.881 114.725,91.063 119.775,91.032 125.776 C 91.005 131.271,90.944 131.482,89.401 131.485 C 85.873 131.491,81.955 134.745,80.941 138.511 C 79.515 143.809,83.765 148.723,89.034 147.868 C 91.883 147.405,92.001 148.106,89.340 149.678 C 83.515 153.118,73.349 148.748,71.453 141.988 C 66.844 125.554,78.328 109.966,95.449 109.418 L 97.819 109.343 96.391 110.900 M313.076 111.230 C 325.671 116.124,332.504 130.780,327.630 142.445 C 324.558 149.797,314.565 153.523,309.554 149.184 L 307.612 147.503 310.381 147.859 C 316.483 148.646,320.842 142.484,317.960 137.146 C 316.358 134.179,312.623 131.488,310.105 131.486 C 308.311 131.485,308.304 131.464,308.304 125.777 C 308.304 119.606,306.923 115.661,303.224 111.264 L 301.428 109.130 305.831 109.628 C 308.253 109.902,311.513 110.623,313.076 111.230 M125.537 113.529 C 128.360 114.585,130.853 116.325,134.378 119.700 L 139.289 124.401 136.365 127.042 C 133.050 130.037,127.825 133.563,123.064 136.018 L 119.831 137.685 120.188 134.372 C 121.058 126.275,114.055 120.711,107.355 124.176 C 103.792 126.018,102.748 129.140,104.183 133.660 C 104.902 135.925,102.770 134.168,101.263 131.254 C 95.128 119.389,110.736 107.991,125.537 113.529 M291.103 114.182 C 298.614 117.659,301.900 128.178,297.000 133.059 L 295.452 134.602 295.784 131.898 C 296.409 126.817,293.044 123.183,287.714 123.183 C 282.004 123.183,278.487 128.169,279.399 134.971 L 279.768 137.722 277.081 136.601 C 272.149 134.543,260.900 126.142,260.900 124.516 C 260.900 124.071,262.705 121.954,264.911 119.812 C 273.581 111.396,281.435 109.707,291.103 114.182 M140.353 139.579 C 137.976 145.878,146.492 151.239,152.782 147.404 C 154.865 146.134,155.621 145.021,156.679 141.671 C 157.039 140.530,157.224 140.517,159.122 141.498 C 162.496 143.243,168.931 144.808,173.356 144.960 C 178.763 145.147,178.678 145.408,171.169 151.722 C 161.174 160.125,153.427 161.915,144.550 157.871 C 137.615 154.712,134.439 143.716,139.045 138.813 C 141.091 136.636,141.396 136.815,140.353 139.579 M261.938 145.891 C 261.938 152.816,259.871 155.846,253.415 158.386 C 244.601 161.853,237.743 159.961,227.490 151.235 C 221.062 145.764,220.522 144.855,223.898 145.193 C 226.757 145.479,235.845 143.538,239.130 141.940 L 241.812 140.635 243.011 143.314 C 247.451 153.232,261.607 148.747,258.507 138.405 L 257.989 136.678 259.964 138.597 C 261.800 140.382,261.938 140.890,261.938 145.891 M127.482 148.686 C 128.304 157.241,138.347 168.118,145.461 168.159 C 147.731 168.172,147.491 169.550,145.197 169.675 C 134.960 170.230,124.638 165.248,116.025 155.592 C 111.491 150.510,111.287 149.698,114.396 149.115 C 115.653 148.879,118.689 147.961,121.144 147.075 C 127.194 144.889,127.115 144.869,127.482 148.686 M281.185 147.930 L 287.976 149.939 285.284 153.345 C 276.980 163.850,266.168 169.840,256.289 169.410 L 251.557 169.204 255.854 167.620 C 264.616 164.390,270.050 158.195,271.489 149.794 C 272.101 146.219,272.496 145.317,273.331 145.583 C 273.916 145.769,277.450 146.825,281.185 147.930 M217.281 155.028 C 217.482 155.225,218.683 156.237,219.949 157.278 L 222.252 159.170 217.527 159.169 L 212.803 159.168 211.507 154.843 C 209.274 147.395,209.228 147.492,213.210 151.211 C 215.248 153.114,217.080 154.832,217.281 155.028 M189.610 148.962 C 189.550 150.091,186.259 159.230,185.922 159.204 C 185.672 159.185,183.582 159.170,181.279 159.170 L 177.091 159.170 181.106 155.800 C 183.314 153.947,185.876 151.611,186.799 150.610 C 188.190 149.100,189.649 148.245,189.610 148.962 M204.110 163.182 C 204.264 166.471,199.412 168.035,196.968 165.484 L 195.062 163.494 197.324 156.072 L 199.585 148.649 201.827 155.466 C 203.059 159.216,204.087 162.688,204.110 163.182 M201.300 191.003 C 201.312 191.955,200.907 193.668,200.400 194.810 L 199.478 196.886 198.701 194.938 C 197.699 192.425,197.718 190.119,198.772 186.604 L 199.620 183.773 200.449 186.523 C 200.905 188.036,201.288 190.052,201.300 191.003 " stroke="none" fill="#000000" fill-rule="evenodd"></path></g>
<g id="pins" style="display:none">
  <circle id="pinR" cx="90%" cy="50%" r="3" fill="red" stroke="black"/>
  <circle id="pinL" cx="10%" cy="50%" r="3" fill="red" stroke="black"/>
  <!-- etc. -->
</g>


</svg>
