
<svg version="1.0" xmlns="http://www.w3.org/2000/svg"
 width="300.000000pt" height="333.000000pt" viewBox="0 0 300.000000 333.000000"
 preserveAspectRatio="xMidYMid meet">

<g transform="translate(0.000000,333.000000) scale(0.100000,-0.100000)"
fill="#000000" stroke="none">
<path d="M1455 3308 c-56 -21 -114 -69 -183 -151 -138 -164 -162 -224 -162
-402 l0 -121 -37 -36 c-48 -47 -125 -81 -238 -107 -388 -87 -458 -113 -571
-215 -204 -183 -288 -519 -214 -856 36 -169 108 -274 223 -328 137 -64 146
-58 158 104 4 65 13 143 18 172 28 144 74 276 95 269 6 -2 15 -39 19 -83 12
-106 49 -237 103 -362 25 -57 47 -124 50 -150 5 -41 2 -53 -28 -96 -114 -167
-123 -192 -122 -331 1 -81 6 -115 28 -180 85 -250 329 -475 442 -406 50 30 64
73 66 209 3 104 6 123 23 142 48 53 94 44 193 -36 142 -116 226 -115 377 8 66
53 107 69 146 56 45 -16 59 -55 59 -171 0 -116 8 -148 47 -189 48 -50 108 -43
209 26 58 39 171 182 215 271 90 182 91 395 1 518 -88 120 -87 119 -86 166 1
31 16 80 47 151 59 135 94 256 102 357 12 137 29 137 75 0 32 -96 56 -228 65
-365 10 -133 22 -140 147 -85 68 30 144 106 182 181 66 130 92 364 61 557 -28
180 -84 302 -188 412 -123 130 -202 164 -572 247 -148 33 -215 59 -267 105
l-43 39 -1 128 c0 109 -4 138 -23 186 -29 75 -84 155 -166 246 -99 107 -179
146 -250 120z m93 -118 c108 -57 214 -210 244 -351 13 -64 1 -99 -45 -133 -26
-19 -44 -21 -210 -24 -99 -2 -200 -1 -224 3 -51 7 -99 44 -106 82 -21 111 103
332 232 415 53 33 61 34 109 8z m162 -621 c79 -22 130 -45 130 -58 0 -14 -170
-171 -224 -207 -69 -45 -120 -52 -181 -25 -50 22 -191 136 -246 199 -28 32
-30 37 -15 48 24 17 142 53 211 64 85 13 240 3 325 -21z m-585 -171 c73 -81
63 -139 -50 -283 -120 -154 -196 -202 -339 -212 l-86 -6 6 34 c12 63 60 187
95 245 66 112 264 289 309 277 11 -3 40 -28 65 -55z m914 7 c142 -107 246
-257 290 -415 12 -41 21 -79 21 -84 0 -5 -37 -7 -85 -4 -136 9 -226 67 -347
224 -103 134 -110 188 -38 274 54 65 77 65 159 5z m-1321 -34 c10 -6 -3 -42
-58 -156 -40 -82 -94 -185 -120 -229 -77 -128 -118 -224 -145 -336 -70 -291
-109 -354 -178 -282 -65 68 -112 235 -104 367 20 292 244 564 522 631 62 15
67 16 83 5z m1692 -18 c100 -33 184 -87 271 -173 71 -71 94 -101 133 -180 83
-169 98 -342 43 -499 -49 -139 -102 -188 -152 -141 -29 27 -44 71 -84 241 -38
161 -69 236 -149 368 -36 58 -78 135 -94 171 -16 36 -46 98 -65 137 -19 40
-33 80 -29 88 6 18 46 14 126 -12z m-1011 -223 c23 -11 56 -31 73 -45 l30 -25
31 26 c81 68 158 80 229 35 119 -75 147 -196 76 -321 -48 -83 -115 -142 -232
-202 l-105 -53 -94 47 c-261 129 -356 344 -216 487 69 72 129 87 208 51z
m-475 -325 c67 -17 156 -73 187 -116 32 -45 35 -98 9 -149 -29 -56 -193 -221
-247 -249 -86 -43 -101 -27 -159 164 -51 169 -69 310 -42 333 38 31 163 40
252 17z m1346 4 c74 -16 86 -38 72 -137 -14 -96 -94 -357 -119 -384 -33 -37
-96 -9 -206 92 -70 63 -145 166 -153 208 -11 52 27 115 98 162 33 22 79 45
101 50 23 6 47 13 52 15 21 8 106 4 155 -6z m-867 -332 c18 -8 47 -26 65 -41
l32 -28 33 28 c66 56 123 67 186 34 52 -26 82 -77 88 -149 7 -72 -13 -119 -84
-200 -51 -59 -183 -151 -215 -151 -38 0 -139 63 -202 126 -103 102 -134 186
-102 277 34 94 118 138 199 104z m-340 -300 c53 -31 124 -107 133 -141 10 -41
-4 -92 -35 -125 -60 -64 -142 -28 -225 98 -71 108 -81 148 -48 184 24 27 116
19 175 -16z m1051 17 c36 -35 3 -129 -82 -233 -90 -111 -188 -108 -223 8 -10
35 -10 46 6 81 48 108 243 201 299 144z m-698 -299 c19 -8 46 -23 60 -34 l25
-20 40 29 c107 77 218 27 205 -94 -10 -91 -80 -175 -191 -230 l-55 -27 -42 22
c-75 37 -137 89 -165 136 -52 89 -48 178 10 213 38 24 66 25 113 5z m-515 -49
c53 -36 120 -129 135 -188 12 -44 11 -61 -6 -137 -10 -47 -22 -113 -25 -146
-8 -80 -22 -113 -56 -130 -97 -51 -195 31 -252 210 -31 97 -31 233 0 290 24
46 65 87 108 109 40 21 54 20 96 -8z m1295 8 c50 -24 101 -81 119 -133 44
-129 -16 -365 -115 -455 -33 -30 -47 -36 -85 -36 -35 0 -52 6 -76 28 -28 25
-32 36 -40 107 -4 44 -15 105 -24 135 -21 79 -19 152 6 202 27 52 139 168 163
168 10 0 33 -7 52 -16z"/>
</g>
  <g id="pins" style="display:none">
  <circle id="pinL" cx="92%" cy="50%" r="3" fill="red" stroke="black"/>
  <circle id="pinR" cx="8%" cy="50%" r="3" fill="red" stroke="black"/>
  <!-- etc. -->
</g>

</svg>
