<svg id="svg"
     xmlns="http://www.w3.org/2000/svg"
     xmlns:xlink="http://www.w3.org/1999/xlink"
     width="400" height="400"
     viewBox="0 0 400 425"
     version="1.1">

  <g id="svgg">
    <path id="path0"
      d="M203.629 59.138 C 168.283 60.852,135.941 86.938,128.222 119.960 C 124.507 135.855,125.906 164.256,131.876 194.113 C 133.727 203.368,133.817 202.635,130.947 201.648 C 116.584 196.706,105.245 200.864,104.150 211.476 C 103.545 217.336,106.568 221.251,113.316 223.345 C 121.822 225.985,123.697 226.703,129.234 229.437 C 134.911 232.241,143.135 237.891,143.739 239.402 C 143.898 239.798,145.841 244.929,148.059 250.806 C 153.955 266.432,157.716 275.360,162.384 284.807 C 168.205 296.587,168.092 297.573,160.349 302.664 C 138.760 316.858,135.675 343.574,153.696 360.283 C 181.237 385.820,225.139 357.981,213.293 322.491 C 211.357 316.689,209.984 314.347,204.660 307.763 C 201.542 303.907,202.194 301.623,208.329 294.915 C 219.548 282.649,227.192 272.093,230.704 264.018 C 231.546 262.080,233.193 259.282,234.364 257.800 C 249.642 238.453,266.962 207.892,273.228 189.226 L 274.221 186.267 273.421 184.459 C 271.911 181.044,262.559 167.772,261.471 167.499 C 260.036 167.139,259.663 167.584,256.014 174.005 C 247.475 189.028,233.712 203.976,218.395 214.862 C 212.693 218.914,214.022 219.252,205.765 211.652 C 164.259 173.446,151.664 151.012,157.835 126.279 C 169.870 78.043,237.158 72.390,259.869 117.708 C 266.040 130.020,266.951 144.278,262.464 158.308 C 261.819 160.327,261.290 162.260,261.290 162.604 C 261.290 163.342,275.547 182.686,276.472 183.203 C 279.411 184.848,284.987 170.573,287.946 153.831 C 297.045 102.346,256.298 56.585,203.629 59.138 M182.357 314.893 C 205.096 320.709,202.077 352.562,178.545 355.105 C 169.465 356.086,159.469 348.560,157.290 339.102 C 153.695 323.498,166.740 310.899,182.357 314.893 "
      stroke="none" fill="#000000" fill-rule="evenodd"/>
  </g>

  <!-- Invisible pin markers (percentages are relative to viewBox 400×425).
       R = connector that attaches to the chain on the left side. 
       L is optional but included so the loader picks up pins. -->
  <g id="pins" style="display:none">
    <!-- Right pin (near the rightmost loop of the lock) -->
    <circle id="pinR" cx="94%" cy="50%" r="3" fill="red" stroke="black"/>
    <!-- Left pin (dummy or the small end ring). You can keep it equal to R or place it logically. -->
    <circle id="pinL" cx="6%" cy="50%" r="3" fill="red" stroke="black"/>
  </g>
</svg>
